{
.appVersion = "3414";
.formatVersion = 3;
axes = (
{
name = Weight;
tag = wght;
}
);
classes = (
{
automatic = 1;
code = "k-deva kh-deva g-deva gh-deva ng-deva c-deva ch-deva j-deva jh-deva ny-deva tt-deva tth-deva dd-deva ddh-deva nn-deva t-deva th-deva dh-deva n-deva nnn-deva p-deva ph-deva b-deva bh-deva m-deva y-deva rr-deva l-deva ll-deva lll-deva v-deva sh-deva ss-deva s-deva h-deva q-deva khh-deva ghh-deva z-deva f-deva yy-deva l-deva.loclMAR sh-deva.loclMAR jh-deva.loclNEP";
name = DevaHalfforms;
},
{
automatic = 1;

glyphs = (
{
color = 10;
glyphname = A;
kernLeft = A;
kernRight = A;
layers = (
{
anchors = (
{
name = bottom;
pos = (385,0);
},
{
name = ogonek;
pos = (823,12);
},
{
name = top;
pos = (385,841);
}
);
layerId = "B3961A9D-C6DC-4F74-9770-9C992C479D86";
shapes = (
{
closed = 1;
nodes = (
(169,0,l),
(233,203,l),
(536,203,l),
(600,0,l),
(772,0,l),
(496,841,l),
(274,841,l),
(-2,0,l)
);
},
{
closed = 1;
nodes = (
(383,682,l),
(386,682,l),
(496,334,l),
(274,334,l)
);
}
);
width = 770;
},
{
anchors = (
{
name = bottom;
pos = (322,0);
},
{
name = ogonek;
pos = (598,12);
},
{
name = top;
pos = (322,840);
}
);
layerId = "0DC1F6FB-20EC-4E8F-AE98-F98B5FD714DE";
shapes = (
{
closed = 1;
nodes = (
(48,0,l),
(143,278,l),
(499,278,l),
(594,0,l),
(647,0,l),
(347,841,l),
(296,841,l),
(-4,0,l)
);
},
{
closed = 1;
nodes = (
(319,791,l),
(323,791,l),
(485,318,l),
(157,318,l)
);
}
);
width = 644;
}
);
unicode = 65;
},
{
color = 10;
glyphname = AE;
layers = (
{
anchors = (
{
name = bottom;
pos = (746,0);
},
{
name = ogonek;
pos = (1024,12);
},
{
name = top;
pos = (746,756);
},
{
name = topleft;
pos = (422,756);
}
);
layerId = "B3961A9D-C6DC-4F74-9770-9C992C479D86";
shapes = (
{
closed = 1;
nodes = (
(167,0,l),
(230,203,l),
(626,203,l),
(626,334,l),
(274,334,l),
(391,710,l),
(626,710,l),
(626,841,l),
(274,841,l),
(-2,0,l)
);
},
{
closed = 1;
nodes = (
(1025,0,l),
(1025,131,l),
(665,131,l),
(665,361,l),
(1013,361,l),
(1013,490,l),
(665,490,l),
(665,710,l),
(1025,710,l),
(1025,841,l),
(502,841,l),
(502,0,l)
);
}
);
width = 1060;
},
{
anchors = (
{
name = bottom;
pos = (646,0);
},
{
name = ogonek;
pos = (883,12);
},
{
name = top;
pos = (646,840);
},
{
name = topleft;
pos = (372,840);
}
);
layerId = "0DC1F6FB-20EC-4E8F-AE98-F98B5FD714DE";
shapes = (
{
closed = 1;
nodes = (
(44,0,l),
(143,278,l),
(464,278,l),
(464,318,l),
(157,318,l),
(326,798,l),
(464,798,l),
(464,841,l),
(296,841,l),
(-4,0,l)
);
},
{
closed = 1;
nodes = (
(907,0,l),
(907,43,l),
(487,43,l),
(487,410,l),
(895,410,l),
(895,450,l),
(487,450,l),
(487,798,l),
(907,798,l),
(907,841,l),
(444,841,l),
(444,0,l)
);
}
);
width = 918;
}
);
metricLeft = A;
metricRight = E;
unicode = 198;
},
{
color = 10;
glyphname = B;
layers = (
{
anchors = (
{
name = bottom;
pos = (347,0);
},
{
name = center;
pos = (347,378);
},
{
name = top;
pos = (347,756);
}
);
guides = (
{
angle = 90;
pos = (1362,0);
},
{
angle = 90;
pos = (582,0);
},
{
angle = 90;
pos = (1255,0);
}
);
layerId = "B3961A9D-C6DC-4F74-9770-9C992C479D86";
shapes = (
{
closed = 1;
nodes = (
(307,0,ls),
(424,0,o),
(655,-20,o),
(655,227,cs),
(655,257,ls),
(654,385,o),
(590,418,o),
(508,427,c),
(508,432,l),
(584,444,o),
(642,479,o),
(643,601,cs),
(643,632,ls),
(643,858,o),
(442,841,o),
(338,841,cs),
(70,841,l),
(70,0,l)
);
},
{
closed = 1;
nodes = (
(233,360,l),
(366,360,ls),
(469,359,o),
(490,328,o),
(490,253,cs),
(490,235,ls),
(490,152,o),
(445,131,o),
(362,131,cs),
(233,131,l)
);
},
{
closed = 1;
nodes = (
(233,710,l),
(350,710,ls),
(433,710,o),
(476,689,o),
(478,606,cs),
(478,598,ls),
(476,530,o),
(448,492,o),
(344,491,cs),
(233,491,l)
);
}
);
width = 692;
},
{
anchors = (
{
name = bottom;
pos = (305,0);
},
{
name = center;
pos = (305,420);
},
{
name = top;
pos = (305,840);
}
);
layerId = "0DC1F6FB-20EC-4E8F-AE98-F98B5FD714DE";
shapes = (
{
closed = 1;
nodes = (
(248,0,ls),
(442,4,o),
(571,11,o),
(571,229,cs),
(571,245,ls),
(570,395,o),
(480,430,o),
(425,439,c),
(425,444,l),
(479,450,o),
(559,476,o),
(559,600,cs),
(559,673,ls),
(559,838,o),
(374,840,o),
(280,841,cs),
(70,841,l),
(70,0,l)
);
},
{
closed = 1;
nodes = (
(113,420,l),
(276,420,ls),
(367,419,o),
(528,418,o),
(528,263,cs),
(528,216,ls),
(528,36,o),
(386,47,o),
(224,43,cs),
(113,43,l)
);
},
{
closed = 1;
nodes = (
(113,798,l),
(254,798,ls),
(335,797,o),
(515,799,o),
(516,673,cs),
(516,602,ls),
(515,511,o),
(460,462,o),
(276,460,cs),
(113,460,l)
);
}
);
width = 608;
}
);
unicode = 66;
},
{
color = 10;
glyphname = C;
kernLeft = C;
kernRight = C;
layers = (
{
anchors = (
{
name = bottom;
pos = (319,0);
},
{
name = top;
pos = (319,756);
}
);
guides = (
{
pos = (-28,711);
}
);
layerId = "B3961A9D-C6DC-4F74-9770-9C992C479D86";
shapes = (
{
closed = 1;
nodes = (
(200,491,ls),
(200,646,o),
(254,704,o),
(398,708,cs),
(456,709,o),
(563,695,o),
(613,679,c),
(613,817,l),
(550,842,o),
(449,853,o),
(398,853,cs),
(182,853,o),
(40,784,o),
(40,514,cs),
(40,329,ls),
(40,59,o),
(182,-11,o),
(398,-11,cs),
(449,-11,o),
(550,0,o),
(613,25,c),
(613,162,l),
(563,146,o),
(456,132,o),
(398,133,cs),
(254,137,o),
(200,197,o),
(200,352,cs)
);
}
);
width = 638;
},
{
anchors = (
{
name = bottom;
pos = (290,0);
},
{
name = top;
pos = (290,840);
}
);
layerId = "0DC1F6FB-20EC-4E8F-AE98-F98B5FD714DE";
shapes = (
{
closed = 1;
nodes = (
(88,523,ls),
(88,720,o),
(151,809,o),
(370,809,cs),
(437,809,o),
(530,797,o),
(576,780,c),
(576,823,l),
(526,841,o),
(434,851,o),
(370,852,cs),
(100,852,o),
(44,745,o),
(44,509,cs),
(44,332,ls),
(44,96,o),
(100,-11,o),
(370,-11,cs),
(434,-10,o),
(526,0,o),
(576,18,c),
(576,61,l),
(530,44,o),
(437,32,o),
(370,32,cs),
(151,32,o),
(88,121,o),
(88,318,cs)
);
}
);
width = 582;
}
);
unicode = 67;
},
{
color = 10;
glyphname = D;
kernRight = D;
layers = (
{
anchors = (
{
name = bottom;
pos = (385,0);
},
{
name = center;
pos = (385,378);
},
{
name = top;
pos = (385,756);
}
);
layerId = "B3961A9D-C6DC-4F74-9770-9C992C479D86";
shapes = (
{
closed = 1;
nodes = (
(379,0,ls),
(587,0,o),
(730,68,o),
(730,332,cs),
(730,510,ls),
(730,774,o),
(587,841,o),
(379,841,cs),
(70,841,l),
(70,0,l)
);
},
{
closed = 1;
nodes = (
(233,710,l),
(378,710,ls),
(518,710,o),
(569,654,o),
(569,500,cs),
(569,342,ls),
(569,190,o),
(517,131,o),
(378,131,cs),
(233,131,l)
);
}
);
width = 769;
},
{
anchors = (
{
name = bottom;
pos = (352,0);
},
{
name = center;
pos = (352,420);
},
{
name = top;
pos = (352,840);
}
);
guides = (
{
angle = 90;
pos = (249,0);
}
);
hints = (
{
place = (390,36);
type = Stem;
}
);
layerId = "0DC1F6FB-20EC-4E8F-AE98-F98B5FD714DE";
shapes = (
{
closed = 1;
nodes = (
(312,0,ls),
(559,0,o),
(660,70,o),
(660,332,cs),
(660,510,ls),
(660,773,o),
(565,841,o),
(312,841,cs),
(70,841,l),
(70,0,l)
);
},
{
closed = 1;
nodes = (
(113,798,l),
(311,798,ls),
(552,798,o),
(617,722,o),
(617,524,cs),
(617,318,ls),
(617,121,o),
(551,43,o),
(312,43,cs),
(113,43,l)
);
}
);
width = 703;
}
);
unicode = 68;
},
{
color = 10;
glyphname = Eth;
layers = (
{
layerId = "B3961A9D-C6DC-4F74-9770-9C992C479D86";
shapes = (
{
closed = 1;
nodes = (
(437,0,ls),
(644,0,o),
(787,68,o),
(787,332,cs),
(787,510,ls),
(787,774,o),
(644,841,o),
(437,841,cs),
(127,841,l),
(127,0,l)
);
},
{
closed = 1;
nodes = (
(431,350,l),
(431,492,l),
(30,492,l),
(30,350,l)
);
},
{
closed = 1;
nodes = (
(290,710,l),
(436,710,ls),
(576,710,o),
(626,654,o),
(626,500,cs),
(626,342,ls),
(626,190,o),
(575,131,o),
(436,131,cs),
(290,131,l)
);
}
);
width = 827;
},
{
layerId = "0DC1F6FB-20EC-4E8F-AE98-F98B5FD714DE";
shapes = (
{
closed = 1;
nodes = (
(354,0,ls),
(601,0,o),
(702,70,o),
(702,332,cs),
(702,510,ls),
(702,773,o),
(607,841,o),
(354,841,cs),
(112,841,l),
(112,0,l)
);
},
{
closed = 1;
nodes = (
(305,401,l),
(305,442,l),
(24,442,l),
(24,401,l)
);
},
{
closed = 1;
nodes = (
(155,798,l),
(353,798,ls),
(594,798,o),
(659,722,o),
(659,524,cs),
(659,318,ls),
(659,121,o),
(593,43,o),
(354,43,cs),
(155,43,l)
);
}
);
width = 745;
}
);
metricRight = D;
unicode = (208,240);
},
{
color = 10;
glyphname = E;
kernRight = E;
layers = (
{
anchors = (
{
name = bottom;
pos = (314,0);
},
{
name = ogonek;
pos = (592,12);
},
{
name = top;
pos = (314,756);
},
{
name = topleft;
pos = (-10,756);
}
);
layerId = "B3961A9D-C6DC-4F74-9770-9C992C479D86";
shapes = (
{
closed = 1;
nodes = (
(593,0,l),
(593,131,l),
(233,131,l),
(233,361,l),
(581,361,l),
(581,490,l),
(233,490,l),
(233,710,l),
(593,710,l),
(593,841,l),
(70,841,l),
(70,0,l)
);
}
);
width = 628;
},
{
anchors = (
{
name = bottom;
pos = (271,0);
},
{
name = ogonek;
pos = (509,12);
},
{
name = top;
pos = (271,840);
},
{
name = topleft;
pos = (-2,840);
}
);
layerId = "0DC1F6FB-20EC-4E8F-AE98-F98B5FD714DE";
shapes = (
{
closed = 1;
nodes = (
(533,0,l),
(533,43,l),
(113,43,l),
(113,410,l),
(521,410,l),
(521,450,l),
(113,450,l),
(113,798,l),
(533,798,l),
(533,841,l),
(70,841,l),
(70,0,l)
);
}
);
width = 544;
}
);
unicode = 69;
},
{
color = 10;
glyphname = F;
layers = (
{
anchors = (
{
name = bottom;
pos = (306,0);
},
{
name = top;
pos = (306,756);
}
);
layerId = "B3961A9D-C6DC-4F74-9770-9C992C479D86";
shapes = (
{
closed = 1;
nodes = (
(233,0,l),
(233,348,l),
(580,348,l),
(580,476,l),
(233,476,l),
(233,710,l),
(593,710,l),
(593,841,l),
(70,841,l),
(70,0,l)
);
}
);
width = 611;
},
{
anchors = (
{
name = bottom;
pos = (266,0);
},
{
name = top;
pos = (266,840);
}
);
layerId = "0DC1F6FB-20EC-4E8F-AE98-F98B5FD714DE";
shapes = (
{
closed = 1;
nodes = (
(113,0,l),
(113,415,l),
(521,415,l),
(521,455,l),
(113,455,l),
(113,798,l),
(533,798,l),
(533,841,l),
(70,841,l),
(70,0,l)
);
}
);
width = 534;
}
);
unicode = 70;
},
{
color = 10;
glyphname = G;
kernLeft = G;
kernRight = G;
layers = (
{
anchors = (
{
name = bottom;
pos = (385,0);
},
{
name = top;
pos = (385,756);
}
);
layerId = "B3961A9D-C6DC-4F74-9770-9C992C479D86";
shapes = (
{
closed = 1;
nodes = (
(514,-11,o),
(554,67,o),
(575,157,c),
(578,157,l),
(578,1,l),
(725,0,l),
(725,409,l),
(391,409,l),
(391,282,l),
(565,282,l),
(557,185,o),
(530,120,o),
(391,120,cs),
(251,120,o),
(200,190,o),
(200,342,cs),
(200,500,ls),
(200,654,o),
(250,722,o),
(391,722,cs),
(505,722,o),
(548,678,o),
(565,580,c),
(724,600,l),
(698,787,o),
(578,853,o),
(391,853,cs),
(181,853,o),
(40,773,o),
(40,510,cs),
(40,332,ls),
(40,68,o),
(157,-11,o),
(367,-11,cs)
);
}
);
width = 769;
},
{
anchors = (
{
name = bottom;
pos = (364,0);
},
{
name = top;
pos = (364,840);
}
);
guides = (
{
angle = 90;
pos = (575,0);
}
);
layerId = "0DC1F6FB-20EC-4E8F-AE98-F98B5FD714DE";
shapes = (
{
closed = 1;
nodes = (
(520,-11,o),
(602,19,o),
(636,164,c),
(638,164,l),
(638,1,l),
(678,0,l),
(678,433,l),
(344,433,l),
(344,394,l),
(638,394,l),
(638,91,o),
(551,32,o),
(370,32,cs),
(151,32,o),
(88,121,o),
(88,318,cs),
(88,524,ls),
(88,722,o),
(150,810,o),
(370,810,cs),
(552,810,o),
(616,749,o),
(635,613,c),
(678,618,l),
(656,797,o),
(578,853,o),
(370,853,cs),
(104,853,o),
(44,751,o),
(44,510,cs),
(44,332,ls),
(44,96,o),
(100,-11,o),
(370,-11,cs)
);
}
);
width = 726;
}
);
unicode = 71;
},
{
color = 10;
glyphname = H;
layers = (
{
anchors = (
{
name = bottom;
pos = (392,0);
},
{
name = center;
pos = (392,378);
},
{
name = top;
pos = (392,756);
},
{
name = topleft;
pos = (-10,756);
}
);
layerId = "B3961A9D-C6DC-4F74-9770-9C992C479D86";
shapes = (
{
closed = 1;
nodes = (
(233,0,l),
(233,360,l),
(551,360,l),
(551,0,l),
(714,0,l),
(714,841,l),
(551,841,l),
(551,488,l),
(233,488,l),
(233,841,l),
(70,841,l),
(70,0,l)
);
}
);
width = 784;
},
{
anchors = (
{
name = bottom;
pos = (337,0);
},
{
name = center;
pos = (337,420);
},
{
name = top;
pos = (337,840);
},
{
name = topleft;
pos = (-2,840);
}
);
layerId = "0DC1F6FB-20EC-4E8F-AE98-F98B5FD714DE";
shapes = (
{
closed = 1;
nodes = (
(113,0,l),
(113,415,l),
(562,415,l),
(562,-6,l),
(605,0,l),
(605,841,l),
(562,841,l),
(562,455,l),
(113,455,l),
(113,841,l),
(70,841,l),
(70,-6,l)
);
}
);
width = 674;
}
);
unicode = 72;
},
{
color = 10;
glyphname = I;
kernRight = I;
layers = (
{
anchors = (
{
name = bottom;
pos = (151,0);
},
{
name = ogonek;
pos = (299,12);
},
{
name = top;
pos = (151,756);
},
{
name = topleft;
pos = (-10,756);
}
);
layerId = "B3961A9D-C6DC-4F74-9770-9C992C479D86";
shapes = (
{
closed = 1;
nodes = (
(233,0,l),
(233,841,l),
(70,841,l),
(70,0,l)
);
}
);
width = 302;
},
{
anchors = (
{
name = bottom;
pos = (91,0);
},
{
name = ogonek;
pos = (185,12);
},
{
name = top;
pos = (91,840);
},
{
name = topleft;
pos = (-2,840);
}
);
layerId = "0DC1F6FB-20EC-4E8F-AE98-F98B5FD714DE";
shapes = (
{
closed = 1;
nodes = (
(113,0,l),
(113,841,l),
(70,841,l),
(70,0,l)
);
}
);
width = 182;
}
);
unicode = 73;
},
{
color = 10;
glyphname = J;
kernLeft = J;
kernRight = J;
layers = (
{
anchors = (
{
name = bottom;
pos = (212,0);
},
{
name = top;
pos = (212,756);
}
);
layerId = "B3961A9D-C6DC-4F74-9770-9C992C479D86";
shapes = (
{
closed = 1;
nodes = (
(138,0,ls),
(320,0,o),
(360,43,o),
(360,282,cs),
(360,841,l),
(199,841,l),
(199,282,ls),
(199,162,o),
(192,131,o),
(85,131,cs),
(2,131,l),
(2,0,l)
);
}
);
width = 422;
},
{
anchors = (
{
name = bottom;
pos = (122,0);
},
{
name = top;
pos = (122,840);
}
);
layerId = "0DC1F6FB-20EC-4E8F-AE98-F98B5FD714DE";
shapes = (
{
closed = 1;
nodes = (
(64,0,ls),
(133,0,o),
(175,10,o),
(173,102,cs),
(173,841,l),
(130,841,l),
(130,102,ls),
(130,59,o),
(121,40,o),
(64,40,cs),
(-7,40,l),
(-7,0,l)
);
}
);
width = 240;
}
);
unicode = 74;
},
{
color = 10;
glyphname = K;
kernRight = K;
layers = (
{
anchors = (
{
name = bottom;
pos = (352,0);
},
{
name = top;
pos = (352,756);
}
);
guides = (
{
angle = 90;
pos = (577,0);
}
);
layerId = "B3961A9D-C6DC-4F74-9770-9C992C479D86";
shapes = (
{
closed = 1;
nodes = (
(233,0,l),
(233,360,l),
(289,360,l),
(523,0,l),
(706,0,l),
(426,421,l),
(692,841,l),
(511,841,l),
(289,480,l),
(233,480,l),
(233,841,l),
(70,841,l),
(70,0,l)
);
}
);
width = 703;
},
{
anchors = (
{
name = bottom;
pos = (272,0);
},
{
name = top;
pos = (272,840);
}
);
guides = (
{
angle = 90;
pos = (459,0);
}
);
layerId = "0DC1F6FB-20EC-4E8F-AE98-F98B5FD714DE";
shapes = (
{
closed = 1;
nodes = (
(113,0,l),
(113,416,l),
(190,416,l),
(497,0,l),
(551,0,l),
(224,437,l),
(541,841,l),
(486,841,l),
(190,457,l),
(113,457,l),
(113,841,l),
(70,841,l),
(70,0,l)
);
}
);
width = 547;
}
);
unicode = 75;
},
{
color = 10;
glyphname = L;
kernRight = L;
layers = (
{
anchors = (
{
name = bottom;
pos = (292,0);
},
{
name = center;
pos = (292,378);
},
{
name = top;
pos = (292,756);
},
{
name = topright;
pos = (592,756);
}
);
layerId = "B3961A9D-C6DC-4F74-9770-9C992C479D86";
shapes = (
{
closed = 1;
nodes = (
(581,0,l),
(581,131,l),
(233,131,l),
(233,841,l),
(70,841,l),
(70,0,l)
);
}
);
width = 582;
},
{
anchors = (
{
name = bottom;
pos = (250,0);
},
{
name = center;
pos = (250,420);
},
{
name = top;
pos = (250,840);
},
{
name = topright;
pos = (500,840);
}
);
layerId = "0DC1F6FB-20EC-4E8F-AE98-F98B5FD714DE";
shapes = (
{
closed = 1;
nodes = (
(509,0,l),
(509,40,l),
(113,40,l),
(113,841,l),
(70,841,l),
(70,0,l)
);
}
);
width = 502;
}
);
unicode = 76;
},
{
color = 10;
glyphname = M;
kernRight = M;
layers = (
{
anchors = (
{
name = bottom;
pos = (544,0);
},
{
name = top;
pos = (544,756);
}
);
layerId = "B3961A9D-C6DC-4F74-9770-9C992C479D86";
shapes = (
{
closed = 1;
nodes = (
(208,0,l),
(246,667,l),
(250,667,l),
(443,0,l),
(644,0,l),
(838,667,l),
(841,667,l),
(880,0,l),
(1042,0,l),
(994,841,l),
(758,841,l),
(546,142,l),
(541,142,l),
(329,841,l),
(94,841,l),
(46,0,l)
);
}
);
width = 1087;
},
{
anchors = (
{
name = bottom;
pos = (431,0);
},
{
name = top;
pos = (431,840);
}
);
layerId = "0DC1F6FB-20EC-4E8F-AE98-F98B5FD714DE";
shapes = (
{
closed = 1;
nodes = (
(95,0,l),
(127,767,l),
(132,767,l),
(398,0,l),
(463,0,l),
(730,767,l),
(734,767,l),
(767,0,l),
(810,0,l),
(774,841,l),
(718,841,l),
(433,54,l),
(428,54,l),
(144,841,l),
(88,841,l),
(52,0,l)
);
}
);
width = 862;
}
);
unicode = 77;
},
{
color = 10;
glyphname = N;
layers = (
{
anchors = (
{
name = bottom;
pos = (416,0);
},
{
name = top;
pos = (416,756);
}
);
layerId = "B3961A9D-C6DC-4F74-9770-9C992C479D86";
shapes = (
{
closed = 1;
nodes = (
(232,0,l),
(232,721,l),
(233,721,l),
(503,0,l),
(762,0,l),
(762,841,l),
(600,841,l),
(600,130,l),
(595,130,l),
(329,841,l),
(70,841,l),
(70,0,l)
);
}
);
width = 832;
},
{
anchors = (
{
name = bottom;
pos = (340,0);
},
{
name = top;
pos = (340,840);
}
);
layerId = "0DC1F6FB-20EC-4E8F-AE98-F98B5FD714DE";
shapes = (
{
closed = 1;
nodes = (
(113,0,l),
(113,794,l),
(118,794,l),
(540,0,l),
(608,0,l),
(608,841,l),
(565,841,l),
(565,47,l),
(560,47,l),
(138,841,l),
(70,841,l),
(70,0,l)
);
}
);
width = 678;
}
);
unicode = 78;
},
{
color = 10;
glyphname = O;
kernLeft = O;
kernRight = O;
layers = (
{
anchors = (
{
name = bottom;
pos = (391,0);
},
{
name = center;
pos = (391,378);
},
{
name = ogonek;
pos = (730,12);
},
{
name = top;
pos = (391,756);
},
{
name = topleft;
pos = (-10,756);
},
{
name = topright;
pos = (791,756);
}
);
guides = (
{
pos = (-28,701);
}
);
layerId = "B3961A9D-C6DC-4F74-9770-9C992C479D86";
shapes = (
{
closed = 1;
nodes = (
(600,-11,o),
(743,68,o),
(743,332,cs),
(743,510,ls),
(743,774,o),
(600,853,o),
(390,853,cs),
(180,853,o),
(38,773,o),
(38,510,cs),
(38,332,ls),
(38,68,o),
(180,-11,o),
(390,-11,cs)
);
},
{
closed = 1;
nodes = (
(250,120,o),
(199,190,o),
(199,342,cs),
(199,500,ls),
(199,654,o),
(248,722,o),
(390,722,cs),
(532,722,o),
(582,654,o),
(582,500,cs),
(582,342,ls),
(582,190,o),
(530,120,o),
(390,120,cs)
);
}
);
width = 781;
},
{
anchors = (
{
name = bottom;
pos = (371,0);
},
{
name = center;
pos = (371,420);
},
{
name = ogonek;
pos = (688,12);
},
{
name = top;
pos = (371,840);
},
{
name = topleft;
pos = (-2,840);
},
{
name = topright;
pos = (743,840);
}
);
layerId = "0DC1F6FB-20EC-4E8F-AE98-F98B5FD714DE";
shapes = (
{
closed = 1;
nodes = (
(616,-11,o),
(696,68,o),
(696,332,cs),
(696,510,ls),
(696,774,o),
(616,853,o),
(370,853,cs),
(124,853,o),
(44,773,o),
(44,510,cs),
(44,332,ls),
(44,68,o),
(124,-11,o),
(370,-11,cs)
);
},
{
closed = 1;
nodes = (
(152,32,o),
(88,121,o),
(88,318,cs),
(88,524,ls),
(88,722,o),
(151,810,o),
(370,810,cs),
(588,810,o),
(653,722,o),
(653,524,cs),
(653,318,ls),
(653,121,o),
(587,32,o),
(370,32,cs)
);
}
);
width = 740;
}
);
unicode = 79;
},
{
color = 10;
glyphname = Oslash;
layers = (
{
layerId = "B3961A9D-C6DC-4F74-9770-9C992C479D86";
shapes = (
{
closed = 1;
nodes = (
(600,-11,o),
(743,68,o),
(743,332,cs),
(743,510,ls),
(743,774,o),
(600,853,o),
(390,853,cs),
(180,853,o),
(38,773,o),
(38,510,cs),
(38,332,ls),
(38,68,o),
(180,-11,o),
(390,-11,cs)
);
},
{
closed = 1;
nodes = (
(278,-122,l),
(672,968,l),
(504,968,l),
(110,-122,l)
);
},
{
closed = 1;
nodes = (
(250,120,o),
(199,190,o),
(199,342,cs),
(199,500,ls),
(199,654,o),
(248,722,o),
(390,722,cs),
(532,722,o),
(582,654,o),
(582,500,cs),
(582,342,ls),
(582,190,o),
(530,120,o),
(390,120,cs)
);
}
);
width = 781;
},
{
layerId = "0DC1F6FB-20EC-4E8F-AE98-F98B5FD714DE";
shapes = (
{
closed = 1;
nodes = (
(616,-11,o),
(696,68,o),
(696,332,cs),
(696,510,ls),
(696,774,o),
(616,853,o),
(370,853,cs),
(124,853,o),
(44,773,o),
(44,510,cs),
(44,332,ls),
(44,68,o),
(124,-11,o),
(370,-11,cs)
);
},
{
closed = 1;
nodes = (
(160,-119,l),
(629,950,l),
(582,950,l),
(113,-119,l)
);
},
{
closed = 1;
nodes = (
(152,32,o),
(88,121,o),
(88,318,cs),
(88,524,ls),
(88,722,o),
(151,810,o),
(370,810,cs),
(588,810,o),
(653,722,o),
(653,524,cs),
(653,318,ls),
(653,121,o),
(587,32,o),
(370,32,cs)
);
}
);
width = 740;
}
);
metricLeft = O;
metricRight = O;
unicode = 216;
},
{
color = 10;
glyphname = OE;
layers = (
{
anchors = (
{
name = bottom;
pos = (388,0);
},
{
name = center;
pos = (388,378);
},
{
name = ogonek;
pos = (726,12);
},
{
name = top;
pos = (388,756);
},
{
name = topleft;
pos = (-13,756);
},
{
name = topright;
pos = (787,756);
}
);
layerId = "B3961A9D-C6DC-4F74-9770-9C992C479D86";
shapes = (
{
closed = 1;
nodes = (
(576,-11,o),
(679,68,o),
(679,332,cs),
(679,510,ls),
(679,774,o),
(576,853,o),
(366,853,cs),
(156,853,o),
(38,773,o),
(38,510,cs),
(38,332,ls),
(38,68,o),
(180,-11,o),
(366,-11,cs)
);
},
{
closed = 1;
nodes = (
(250,120,o),
(199,190,o),
(199,342,cs),
(199,500,ls),
(199,654,o),
(248,722,o),
(390,722,cs),
(532,722,o),
(582,654,o),
(582,500,cs),
(582,342,ls),
(582,190,o),
(530,120,o),
(390,120,cs)
);
},
{
closed = 1;
nodes = (
(1105,0,l),
(1105,131,l),
(745,131,l),
(745,361,l),
(1093,361,l),
(1093,490,l),
(745,490,l),
(745,710,l),
(1105,710,l),
(1105,841,l),
(582,841,l),
(582,0,l)
);
}
);
width = 1140;
},
{
anchors = (
{
name = bottom;
pos = (371,0);
},
{
name = center;
pos = (371,420);
},
{
name = ogonek;
pos = (688,12);
},
{
name = top;
pos = (371,840);
},
{
name = topleft;
pos = (-2,840);
},
{
name = topright;
pos = (743,840);
}
);
layerId = "0DC1F6FB-20EC-4E8F-AE98-F98B5FD714DE";
shapes = (
{
closed = 1;
nodes = (
(616,-11,o),
(684,68,o),
(684,332,cs),
(684,510,ls),
(684,774,o),
(616,853,o),
(370,853,cs),
(124,853,o),
(44,773,o),
(44,510,cs),
(44,332,ls),
(44,68,o),
(124,-11,o),
(370,-11,cs)
);
},
{
closed = 1;
nodes = (
(152,32,o),
(88,121,o),
(88,318,cs),
(88,524,ls),
(88,722,o),
(151,810,o),
(370,810,cs),
(588,810,o),
(653,722,o),
(653,524,cs),
(653,318,ls),
(653,121,o),
(587,32,o),
(370,32,cs)
);
},
{
closed = 1;
nodes = (
(1116,0,l),
(1116,43,l),
(696,43,l),
(696,410,l),
(1104,410,l),
(1104,450,l),
(696,450,l),
(696,798,l),
(1116,798,l),
(1116,841,l),
(653,841,l),
(653,0,l)
);
}
);
width = 1127;
}
);
metricLeft = O;
metricRight = E;
unicode = 338;
},
{
color = 10;
glyphname = P;
layers = (
{
anchors = (
{
name = bottom;
pos = (346,0);
},
{
name = top;
pos = (346,756);
}
);
layerId = "B3961A9D-C6DC-4F74-9770-9C992C479D86";
shapes = (
{
closed = 1;
nodes = (
(233,0,l),
(233,305,l),
(362,305,l),
(466,305,o),
(667,300,o),
(667,514,cs),
(667,632,ls),
(667,858,o),
(466,841,o),
(362,841,cs),
(70,841,l),
(70,0,l)
);
},
{
closed = 1;
nodes = (
(233,710,l),
(374,710,ls),
(457,710,o),
(500,689,o),
(502,606,cs),
(502,540,ls),
(500,457,o),
(457,436,o),
(374,436,cs),
(233,436,l)
);
}
);
width = 690;
},
{
anchors = (
{
name = bottom;
pos = (283,0);
},
{
name = top;
pos = (283,840);
}
);
layerId = "0DC1F6FB-20EC-4E8F-AE98-F98B5FD714DE";
shapes = (
{
closed = 1;
nodes = (
(113,0,l),
(113,352,l),
(264,352,l),
(383,352,o),
(547,353,o),
(547,532,cs),
(547,673,ls),
(547,845,o),
(361,841,o),
(268,841,cs),
(70,841,l),
(70,0,l)
);
},
{
closed = 1;
nodes = (
(113,798,l),
(242,798,ls),
(323,796,o),
(504,811,o),
(504,673,cs),
(504,534,ls),
(504,431,o),
(448,394,o),
(264,391,cs),
(113,391,l)
);
}
);
width = 569;
}
);
unicode = 80;
},
{
color = 10;
glyphname = Q;
layers = (
{
anchors = (
{
name = bottom;
pos = (380,0);
},
{
name = top;
pos = (380,756);
}
);
layerId = "B3961A9D-C6DC-4F74-9770-9C992C479D86";
shapes = (
{
closed = 1;
nodes = (
(589,-11,o),
(730,68,o),
(730,332,cs),
(730,510,ls),
(730,774,o),
(589,853,o),
(379,853,cs),
(169,853,o),
(30,773,o),
(30,510,cs),
(30,332,ls),
(30,68,o),
(169,-11,o),
(379,-11,cs)
);
},
{
closed = 1;
nodes = (
(454,-196,l),
(454,88,l),
(308,88,l),
(308,-196,l)
);
},
{
closed = 1;
nodes = (
(239,120,o),
(188,190,o),
(188,342,cs),
(188,500,ls),
(188,654,o),
(238,722,o),
(379,722,cs),
(521,722,o),
(571,654,o),
(571,500,cs),
(571,342,ls),
(571,190,o),
(520,120,o),
(379,120,cs)
);
}
);
width = 760;
},
{
anchors = (
{
name = bottom;
pos = (360,0);
},
{
name = top;
pos = (360,840);
}
);
layerId = "0DC1F6FB-20EC-4E8F-AE98-F98B5FD714DE";
shapes = (
{
closed = 1;
nodes = (
(605,-11,o),
(685,68,o),
(685,332,cs),
(685,510,ls),
(685,774,o),
(605,853,o),
(359,853,cs),
(113,853,o),
(34,773,o),
(34,510,cs),
(34,332,ls),
(34,68,o),
(113,-11,o),
(359,-11,cs)
);
},
{
closed = 1;
nodes = (
(380,-196,l),
(380,16,l),
(337,16,l),
(337,-196,l)
);
},
{
closed = 1;
nodes = (
(142,32,o),
(77,121,o),
(77,318,cs),
(77,524,ls),
(77,722,o),
(140,810,o),
(359,810,cs),
(577,810,o),
(642,722,o),
(642,524,cs),
(642,318,ls),
(642,121,o),
(576,32,o),
(359,32,cs)
);
}
);
width = 719;
}
);
unicode = 81;
},
{
color = 10;
glyphname = R;
kernRight = R;
layers = (
{
anchors = (
{
name = bottom;
pos = (353,0);
},
{
name = top;
pos = (353,756);
}
);
layerId = "B3961A9D-C6DC-4F74-9770-9C992C479D86";
shapes = (
{
closed = 1;
nodes = (
(233,0,l),
(233,329,l),
(340,329,l),
(497,0,l),
(680,0,l),
(504,335,l),
(588,350,o),
(667,396,o),
(667,538,cs),
(667,632,ls),
(667,858,o),
(466,841,o),
(362,841,cs),
(70,841,l),
(70,0,l)
);
},
{
closed = 1;
nodes = (
(233,710,l),
(374,710,ls),
(457,710,o),
(502,689,o),
(502,606,cs),
(502,564,ls),
(502,481,o),
(457,460,o),
(374,460,cs),
(233,460,l)
);
}
);
width = 704;
},
{
anchors = (
{
name = bottom;
pos = (292,0);
},
{
name = top;
pos = (292,840);
}
);
guides = (
{
angle = 90;
pos = (456,0);
}
);
layerId = "0DC1F6FB-20EC-4E8F-AE98-F98B5FD714DE";
shapes = (
{
closed = 1;
nodes = (
(113,0,l),
(113,368,l),
(304,368,l),
(515,0,l),
(562,0,l),
(349,370,l),
(449,377,o),
(547,407,o),
(547,548,cs),
(547,673,ls),
(547,847,o),
(361,841,o),
(268,841,cs),
(70,841,l),
(70,0,l)
);
},
{
closed = 1;
nodes = (
(113,798,l),
(242,798,ls),
(323,796,o),
(503,811,o),
(504,673,cs),
(504,551,ls),
(503,448,o),
(448,410,o),
(264,408,cs),
(113,408,l)
);
}
);
width = 583;
}
);
unicode = 82;
},
{
color = 10;
glyphname = S;
kernLeft = S;
kernRight = S;
layers = (
{
anchors = (
{
name = bottom;
pos = (314,0);
},
{
name = top;
pos = (314,756);
}
);
guides = (
{
pos = (-28,701);
},
{
angle = 90;
pos = (789,0);
},
{
angle = 90;
pos = (1294,0);
},
{
angle = 90;
pos = (501,0);
},
{
angle = 90;
pos = (28,0);
}
);
layerId = "B3961A9D-C6DC-4F74-9770-9C992C479D86";
shapes = (
{
closed = 1;
nodes = (
(503,-10,o),
(600,50,o),
(600,220,cs),
(600,364,o),
(552,427,o),
(384,478,cs),
(254,515,o),
(197,535,o),
(197,616,cs),
(197,684,o),
(248,710,o),
(341,710,cs),
(418,710,o),
(500,682,o),
(575,638,c),
(575,798,l),
(490,834,o),
(413,852,o),
(318,853,cs),
(127,857,o),
(34,756,o),
(34,629,cs),
(34,488,o),
(59,395,o),
(328,329,cs),
(391,313,o),
(443,283,o),
(437,216,cs),
(432,161,o),
(404,127,o),
(300,132,cs),
(211,136,o),
(125,155,o),
(34,184,c),
(34,40,l),
(121,10,o),
(215,-8,o),
(304,-10,cs)
);
}
);
width = 628;
},
{
anchors = (
{
name = bottom;
pos = (281,0);
},
{
name = top;
pos = (281,840);
}
);
layerId = "0DC1F6FB-20EC-4E8F-AE98-F98B5FD714DE";
shapes = (
{
closed = 1;
nodes = (
(454,-10,o),
(544,40,o),
(544,198,cs),
(544,338,o),
(454,389,o),
(299,439,cs),
(179,480,o),
(64,520,o),
(64,641,cs),
(64,781,o),
(181,810,o),
(283,810,cs),
(365,810,o),
(451,784,o),
(521,740,c),
(521,788,l),
(442,832,o),
(371,852,o),
(283,853,cs),
(109,856,o),
(20,776,o),
(20,641,cs),
(20,502,o),
(122,450,o),
(292,397,cs),
(350,379,o),
(504,332,o),
(500,194,cs),
(499,145,o),
(506,28,o),
(266,34,cs),
(186,36,o),
(104,53,o),
(20,82,c),
(20,36,l),
(101,6,o),
(187,-8,o),
(270,-10,cs)
);
}
);
width = 562;
}
);
unicode = 83;
},
{
color = 10;
glyphname = T;
kernLeft = T;
kernRight = T;
layers = (
{
anchors = (
{
name = bottom;
pos = (282,0);
},
{
name = center;
pos = (282,378);
},
{
name = top;
pos = (282,756);
}
);
layerId = "B3961A9D-C6DC-4F74-9770-9C992C479D86";
shapes = (
{
closed = 1;
nodes = (
(364,0,l),
(364,710,l),
(560,710,l),
(560,841,l),
(2,841,l),
(2,710,l),
(200,710,l),
(200,0,l)
);
}
);
width = 563;
},
{
anchors = (
{
name = bottom;
pos = (292,0);
},
{
name = center;
pos = (292,420);
},
{
name = top;
pos = (292,840);
}
);
layerId = "0DC1F6FB-20EC-4E8F-AE98-F98B5FD714DE";
shapes = (
{
closed = 1;
nodes = (
(313,0,l),
(313,802,l),
(589,802,l),
(589,841,l),
(-7,841,l),
(-7,802,l),
(270,802,l),
(270,-6,l)
);
}
);
width = 582;
}
);
unicode = 84;
},
{
color = 10;
glyphname = U;
kernLeft = U;
layers = (
{
anchors = (
{
name = bottom;
pos = (395,0);
},
{
name = ogonek;
pos = (737,12);
},
{
name = top;
pos = (395,756);
},
{
name = topright;
pos = (798,756);
}
);
guides = (
{
pos = (-28,701);
}
);
layerId = "B3961A9D-C6DC-4F74-9770-9C992C479D86";
shapes = (
{
closed = 1;
nodes = (
(592,-11,o),
(734,68,o),
(734,332,cs),
(734,841,l),
(574,841,l),
(574,342,ls),
(574,190,o),
(522,120,o),
(394,120,cs),
(265,120,o),
(215,190,o),
(215,342,cs),
(215,841,l),
(54,841,l),
(54,332,ls),
(54,68,o),
(196,-11,o),
(394,-11,cs)
);
}
);
width = 788;
},
{
anchors = (
{
name = bottom;
pos = (347,0);
},
{
name = ogonek;
pos = (647,12);
},
{
name = top;
pos = (347,840);
},
{
name = topright;
pos = (697,840);
}
);
layerId = "0DC1F6FB-20EC-4E8F-AE98-F98B5FD714DE";
shapes = (
{
closed = 1;
nodes = (
(569,-11,o),
(637,68,o),
(637,332,cs),
(637,844,l),
(594,844,l),
(594,318,ls),
(594,121,o),
(540,32,o),
(347,32,cs),
(154,32,o),
(101,121,o),
(101,318,cs),
(101,844,l),
(58,844,l),
(58,332,ls),
(58,68,o),
(125,-11,o),
(347,-11,cs)
);
}
);
width = 695;
}
);
unicode = 85;
},
{
color = 10;
glyphname = V;
layers = (
{
anchors = (
{
name = bottom;
pos = (372,0);
},
{
name = top;
pos = (372,756);
}
);
layerId = "B3961A9D-C6DC-4F74-9770-9C992C479D86";
shapes = (
{
closed = 1;
nodes = (
(482,0,l),
(745,841,l),
(575,841,l),
(373,169,l),
(370,169,l),
(168,841,l),
(-1,841,l),
(260,0,l)
);
}
);
width = 744;
},
{
anchors = (
{
name = bottom;
pos = (305,0);
},
{
name = top;
pos = (305,840);
}
);
layerId = "0DC1F6FB-20EC-4E8F-AE98-F98B5FD714DE";
shapes = (
{
closed = 1;
nodes = (
(328,0,l),
(611,841,l),
(565,841,l),
(306,59,l),
(301,59,l),
(43,841,l),
(-2,841,l),
(280,0,l)
);
}
);
width = 608;
}
);
unicode = 86;
},
{
color = 10;
glyphname = W;
layers = (
{
anchors = (
{
name = bottom;
pos = (572,0);
},
{
name = top;
pos = (572,756);
}
);
layerId = "B3961A9D-C6DC-4F74-9770-9C992C479D86";
shapes = (
{
closed = 1;
nodes = (
(430,0,l),
(570,658,l),
(575,658,l),
(715,0,l),
(941,0,l),
(1142,841,l),
(974,841,l),
(822,175,l),
(820,175,l),
(659,841,l),
(486,841,l),
(326,175,l),
(323,175,l),
(170,841,l),
(2,841,l),
(204,0,l)
);
}
);
width = 1145;
},
{
anchors = (
{
name = bottom;
pos = (451,0);
},
{
name = top;
pos = (451,840);
}
);
layerId = "0DC1F6FB-20EC-4E8F-AE98-F98B5FD714DE";
shapes = (
{
closed = 1;
nodes = (
(268,0,l),
(449,758,l),
(454,758,l),
(635,0,l),
(689,0,l),
(901,841,l),
(857,841,l),
(664,59,l),
(658,59,l),
(472,841,l),
(431,841,l),
(245,59,l),
(239,59,l),
(46,841,l),
(1,841,l),
(214,0,l)
);
}
);
width = 902;
}
);
unicode = 87;
},
{
color = 10;
glyphname = X;
layers = (
{
anchors = (
{
name = bottom;
pos = (368,0);
},
{
name = top;
pos = (368,756);
}
);
guides = (
{
pos = (-28,350);
},
{
angle = 90;
pos = (615,0);
},
{
pos = (-28,701);
},
{
angle = 90;
pos = (-473,0);
},
{
angle = 90;
pos = (-1040,0);
}
);
layerId = "B3961A9D-C6DC-4F74-9770-9C992C479D86";
shapes = (
{
closed = 1;
nodes = (
(179,0,l),
(365,342,l),
(370,342,l),
(554,0,l),
(738,0,l),
(493,426,l),
(719,841,l),
(541,841,l),
(370,503,l),
(365,503,l),
(194,841,l),
(16,841,l),
(241,426,l),
(-4,0,l)
);
}
);
width = 736;
},
{
anchors = (
{
name = bottom;
pos = (290,0);
},
{
name = top;
pos = (290,840);
}
);
layerId = "0DC1F6FB-20EC-4E8F-AE98-F98B5FD714DE";
shapes = (
{
closed = 1;
nodes = (
(47,0,l),
(287,407,l),
(292,407,l),
(532,0,l),
(581,0,l),
(324,426,l),
(572,841,l),
(528,841,l),
(292,445,l),
(287,445,l),
(50,841,l),
(6,841,l),
(254,426,l),
(-2,0,l)
);
}
);
width = 580;
}
);
unicode = 88;
},
{
color = 10;
glyphname = Y;
kernLeft = Y;
kernRight = Y;
layers = (
{
anchors = (
{
name = bottom;
pos = (344,0);
},
{
name = top;
pos = (344,756);
},
{
name = topleft;
pos = (-10,756);
}
);
layerId = "B3961A9D-C6DC-4F74-9770-9C992C479D86";
shapes = (
{
closed = 1;
nodes = (
(431,0,l),
(431,348,l),
(696,841,l),
(521,841,l),
(347,498,l),
(342,498,l),
(170,841,l),
(-7,841,l),
(259,350,l),
(259,0,l)
);
}
);
width = 689;
},
{
anchors = (
{
name = bottom;
pos = (264,0);
},
{
name = top;
pos = (264,840);
},
{
name = topleft;
pos = (1,840);
}
);
layerId = "0DC1F6FB-20EC-4E8F-AE98-F98B5FD714DE";
shapes = (
{
closed = 1;
nodes = (
(284,0,l),
(284,370,l),
(535,841,l),
(487,841,l),
(265,409,l),
(260,409,l),
(41,841,l),
(-7,841,l),
(241,370,l),
(241,0,l)
);
}
);
width = 528;
}
);
unicode = 89;
},
{
color = 10;
glyphname = Z;
kernLeft = Z;
kernRight = Z;
layers = (
{
anchors = (
{
name = bottom;
pos = (322,0);
},
{
name = center;
pos = (322,378);
},
{
name = top;
pos = (322,756);
}
);
guides = (
{
angle = 90;
pos = (1324,0);
}
);
layerId = "B3961A9D-C6DC-4F74-9770-9C992C479D86";
shapes = (
{
closed = 1;
nodes = (
(625,0,l),
(625,131,l),
(210,131,l),
(210,136,l),
(613,710,l),
(613,841,l),
(40,841,l),
(40,710,l),
(419,710,l),
(419,706,l),
(16,131,l),
(16,0,l)
);
}
);
width = 642;
},
{
anchors = (
{
name = bottom;
pos = (269,0);
},
{
name = center;
pos = (269,420);
},
{
name = top;
pos = (269,840);
}
);
guides = (
{
angle = 90;
pos = (435,0);
},
{
angle = 90;
pos = (2,0);
}
);
layerId = "0DC1F6FB-20EC-4E8F-AE98-F98B5FD714DE";
shapes = (
{
closed = 1;
nodes = (
(536,0,l),
(536,43,l),
(53,43,l),
(53,47,l),
(522,798,l),
(522,841,l),
(17,841,l),
(17,798,l),
(472,798,l),
(472,794,l),
(2,43,l),
(2,0,l)
);
}
);
width = 538;
}
);
unicode = 90;
},
{
color = 10;
glyphname = a;
kernLeft = a;
kernRight = a;
layers = (
{
anchors = (
{
name = bottom;
pos = (312,0);
},
{
name = ogonek;
pos = (586,12);
},
{
name = top;
pos = (312,564);
}
);
guides = (
{
pos = (-26,528);
},
{
pos = (-26,-9);
}
);
layerId = "B3961A9D-C6DC-4F74-9770-9C992C479D86";
shapes = (
{
closed = 1;
nodes = (
(566,0,l),
(566,346,ls),
(566,548,o),
(497,644,o),
(290,644,cs),
(217,644,o),
(142,631,o),
(66,599,c),
(66,466,l),
(137,494,o),
(202,511,o),
(275,511,cs),
(379,511,o),
(421,474,o),
(421,353,cs),
(421,337,o),
(420,322,o),
(420,307,cs),
(420,0,l)
);
},
{
closed = 1;
nodes = (
(316,-11,o),
(386,14,o),
(416,113,c),
(438,113,l),
(420,241,l),
(420,118,o),
(330,95,o),
(278,92,cs),
(227,90,o),
(181,94,o),
(176,167,cs),
(173,238,o),
(211,256,o),
(290,265,cs),
(440,283,l),
(440,391,l),
(252,371,ls),
(83,353,o),
(22,282,o),
(30,146,cs),
(37,26,o),
(114,-11,o),
(224,-11,cs)
);
}
);
width = 620;
},
{
anchors = (
{
name = bottom;
pos = (259,0);
},
{
name = ogonek;
pos = (487,12);
},
{
name = top;
pos = (259,600);
}
);
guides = (
{
angle = 90;
pos = (20,0);
},
{
pos = (-22,524);
}
);
layerId = "0DC1F6FB-20EC-4E8F-AE98-F98B5FD714DE";
shapes = (
{
closed = 1;
nodes = (
(457,0,l),
(457,404,ls),
(457,514,o),
(437,648,o),
(248,644,cs),
(175,643,o),
(127,635,o),
(60,611,c),
(60,568,l),
(119,592,o),
(181,602,o),
(248,602,cs),
(330,602,o),
(414,589,o),
(414,415,c),
(414,415,o),
(414,322,o),
(414,307,cs),
(414,0,l)
);
},
{
closed = 1;
nodes = (
(324,-8,o),
(380,14,o),
(410,113,c),
(432,113,l),
(414,260,l),
(414,89,o),
(346,32,o),
(235,30,cs),
(124,26,o),
(71,56,o),
(65,157,cs),
(59,254,o),
(106,316,o),
(246,329,cs),
(434,347,l),
(434,389,l),
(246,371,ls),
(70,354,o),
(17,282,o),
(24,146,cs),
(30,41,o),
(85,-14,o),
(233,-11,cs)
);
}
);
width = 516;
}
);
unicode = 97;
},
{
color = 10;
glyphname = ae;
layers = (
{
anchors = (
{
name = bottom;
pos = (686,0);
},
{
name = ogonek;
pos = (953,12);
},
{
name = top;
pos = (686,564);
}
);
layerId = "B3961A9D-C6DC-4F74-9770-9C992C479D86";
shapes = (
{
closed = 1;
nodes = (
(796,-10,o),
(858,-6,o),
(929,28,c),
(929,142,l),
(847,115,o),
(784,110,o),
(742,110,cs),
(610,110,o),
(569,158,o),
(564,277,c),
(941,277,l),
(943,332,ls),
(953,557,o),
(864,646,o),
(701,646,cs),
(547,642,o),
(434,557,o),
(434,332,cs),
(434,304,ls),
(434,64,o),
(576,-10,o),
(732,-10,cs)
);
},
{
closed = 1;
nodes = (
(316,-11,o),
(433,-6,o),
(475,113,c),
(508,113,l),
(420,241,l),
(420,118,o),
(330,95,o),
(278,92,cs),
(227,90,o),
(181,94,o),
(176,167,cs),
(173,238,o),
(211,256,o),
(290,265,cs),
(440,283,l),
(440,391,l),
(252,371,ls),
(83,353,o),
(22,282,o),
(30,146,cs),
(37,26,o),
(114,-11,o),
(224,-11,cs)
);
},
{
closed = 1;
nodes = (
(554,184,l),
(554,346,ls),
(554,548,o),
(443,644,o),
(269,644,cs),
(196,644,o),
(142,631,o),
(66,599,c),
(66,466,l),
(137,494,o),
(202,511,o),
(275,511,cs),
(379,511,o),
(421,474,o),
(421,353,cs),
(421,337,o),
(420,322,o),
(420,307,cs),
(420,184,l)
);
},
{
closed = 1;
nodes = (
(570,474,o),
(594,523,o),
(689,526,cs),
(785,523,o),
(805,476,o),
(808,376,c),
(564,376,l)
);
}
);
width = 985;
},
{
anchors = (
{
name = bottom;
pos = (640,0);
},
{
name = ogonek;
pos = (875,12);
},
{
name = top;
pos = (640,600);
}
);
layerId = "0DC1F6FB-20EC-4E8F-AE98-F98B5FD714DE";
shapes = (
{
closed = 1;
nodes = (
(749,-11,o),
(816,-1,o),
(859,26,c),
(859,72,l),
(824,49,o),
(760,32,o),
(679,32,cs),
(522,32,o),
(457,83,o),
(457,318,c),
(874,318,l),
(875,332,ls),
(894,568,o),
(809,644,o),
(648,646,cs),
(487,647,o),
(414,569,o),
(414,332,cs),
(414,302,ls),
(414,61,o),
(474,-11,o),
(679,-11,cs)
);
},
{
closed = 1;
nodes = (
(324,-8,o),
(404,14,o),
(434,113,c),
(456,113,l),
(414,260,l),
(414,89,o),
(346,32,o),
(235,30,cs),
(124,26,o),
(71,56,o),
(65,157,cs),
(59,254,o),
(106,316,o),
(246,329,cs),
(434,347,l),
(434,389,l),
(246,371,ls),
(70,354,o),
(17,282,o),
(24,146,cs),
(30,41,o),
(85,-14,o),
(233,-11,cs)
);
},
{
closed = 1;
nodes = (
(457,145,l),
(457,404,ls),
(457,514,o),
(437,648,o),
(248,644,cs),
(175,643,o),
(127,635,o),
(60,611,c),
(60,568,l),
(119,592,o),
(181,602,o),
(248,602,cs),
(330,602,o),
(414,589,o),
(414,415,c),
(414,415,o),
(414,322,o),
(414,307,cs),
(414,145,l)
);
},
{
closed = 1;
nodes = (
(461,523,o),
(498,605,o),
(648,602,cs),
(803,600,o),
(844,523,o),
(833,358,c),
(457,358,l)
);
}
);
width = 907;
}
);
metricLeft = a;
metricRight = e;
unicode = 230;
},
{
color = 10;
glyphname = b;
kernRight = b;
layers = (
{
anchors = (
{
name = bottom;
pos = (355,0);
},
{
name = center;
pos = (355,282);
},
{
name = top;
pos = (355,564);
}
);
layerId = "B3961A9D-C6DC-4F74-9770-9C992C479D86";
shapes = (
{
closed = 1;
nodes = (
(607,-11,o),
(688,73,o),
(688,302,cs),
(688,332,ls),
(688,574,o),
(607,646,o),
(415,646,cs),
(239,646,o),
(199,526,o),
(199,308,cs),
(199,290,ls),
(199,72,o),
(239,-11,o),
(415,-11,cs)
);
},
{
closed = 1;
nodes = (
(224,106,l),
(224,122,l),
(210,122,l),
(210,106,l)
);
},
{
closed = 1;
nodes = (
(215,0,l),
(215,930,l),
(68,930,l),
(68,0,l)
);
},
{
closed = 1;
nodes = (
(248,109,o),
(215,173,o),
(215,311,cs),
(215,324,ls),
(215,463,o),
(247,526,o),
(377,526,cs),
(506,526,o),
(540,463,o),
(540,324,cs),
(540,311,ls),
(540,173,o),
(505,109,o),
(377,109,cs)
);
},
{
closed = 1;
nodes = (
(224,487,l),
(224,504,l),
(210,504,l),
(210,487,l)
);
}
);
width = 712;
},
{
anchors = (
{
name = bottom;
pos = (311,0);
},
{
name = center;
pos = (311,300);
},
{
name = top;
pos = (311,600);
}
);
layerId = "0DC1F6FB-20EC-4E8F-AE98-F98B5FD714DE";
shapes = (
{
closed = 1;
nodes = (
(505,-11,o),
(600,61,o),
(600,302,cs),
(600,332,ls),
(600,574,o),
(505,646,o),
(334,646,cs),
(156,646,o),
(97,572,o),
(97,332,cs),
(97,302,ls),
(97,61,o),
(160,-11,o),
(334,-11,cs)
);
},
{
closed = 1;
nodes = (
(124,126,l),
(124,148,l),
(109,148,l),
(109,126,l)
);
},
{
closed = 1;
nodes = (
(112,0,l),
(112,930,l),
(68,930,l),
(68,0,l)
);
},
{
closed = 1;
nodes = (
(158,32,o),
(112,120,o),
(112,308,cs),
(112,326,ls),
(112,516,o),
(156,602,o),
(334,602,cs),
(510,602,o),
(557,516,o),
(557,326,cs),
(557,308,ls),
(557,120,o),
(508,32,o),
(334,32,cs)
);
},
{
closed = 1;
nodes = (
(124,491,l),
(124,511,l),
(109,511,l),
(109,491,l)
);
}
);
width = 623;
}
);
unicode = 98;
},
{
color = 10;
glyphname = c;
kernLeft = c;
kernRight = c;
layers = (
{
anchors = (
{
name = bottom;
pos = (271,0);
},
{
name = top;
pos = (271,564);
}
);
guides = (
{
angle = 90;
pos = (915,0);
},
{
angle = 90;
pos = (406,0);
}
);
layerId = "B3961A9D-C6DC-4F74-9770-9C992C479D86";
shapes = (
{
closed = 1;
nodes = (
(509,607,l),
(473,630,o),
(392,646,o),
(329,646,cs),
(146,646,o),
(37,572,o),
(37,332,cs),
(37,304,ls),
(37,64,o),
(146,-10,o),
(329,-10,cs),
(392,-10,o),
(473,6,o),
(509,29,c),
(509,143,l),
(469,122,o),
(407,110,o),
(347,110,cs),
(217,110,o),
(185,173,o),
(185,312,cs),
(185,324,ls),
(185,463,o),
(217,526,o),
(347,526,cs),
(407,526,o),
(469,514,o),
(509,493,c)
);
}
);
width = 541;
},
{
anchors = (
{
name = bottom;
pos = (245,0);
},
{
name = top;
pos = (245,600);
}
);
layerId = "0DC1F6FB-20EC-4E8F-AE98-F98B5FD714DE";
shapes = (
{
closed = 1;
nodes = (
(474,606,l),
(434,631,o),
(374,646,o),
(305,646,cs),
(127,646,o),
(40,572,o),
(40,332,cs),
(40,302,ls),
(40,61,o),
(131,-11,o),
(305,-11,cs),
(374,-11,o),
(431,6,o),
(474,34,c),
(474,79,l),
(439,60,o),
(385,32,o),
(305,32,cs),
(130,32,o),
(83,120,o),
(83,308,cs),
(83,326,ls),
(83,516,o),
(127,602,o),
(305,602,cs),
(386,602,o),
(439,581,o),
(474,559,c)
);
}
);
width = 490;
}
);
unicode = 99;
},
{
color = 10;
glyphname = d;
kernLeft = d;
layers = (
{
anchors = (
{
name = bottom;
pos = (358,0);
},
{
name = center;
pos = (358,282);
},
{
name = top;
pos = (358,1356);
},
{
name = topright;
pos = (722,1356);
}
);
layerId = "B3961A9D-C6DC-4F74-9770-9C992C479D86";
shapes = (
{
closed = 1;
nodes = (
(473,-11,o),
(512,72,o),
(512,290,cs),
(512,308,ls),
(512,526,o),
(473,646,o),
(296,646,cs),
(104,646,o),
(24,574,o),
(24,332,cs),
(24,302,ls),
(24,73,o),
(104,-11,o),
(296,-11,cs)
);
},
{
closed = 1;
nodes = (
(502,106,l),
(502,122,l),
(487,122,l),
(487,106,l)
);
},
{
closed = 1;
nodes = (
(206,109,o),
(172,173,o),
(172,311,cs),
(172,324,ls),
(172,463,o),
(205,526,o),
(335,526,cs),
(464,526,o),
(497,463,o),
(497,324,cs),
(497,311,ls),
(497,173,o),
(463,109,o),
(335,109,cs)
);
},
{
closed = 1;
nodes = (
(502,487,l),
(502,504,l),
(487,504,l),
(487,487,l)
);
},
{
closed = 1;
nodes = (
(643,0,l),
(643,930,l),
(497,930,l),
(497,0,l)
);
}
);
width = 712;
},
{
anchors = (
{
name = bottom;
pos = (313,0);
},
{
name = center;
pos = (313,300);
},
{
name = top;
pos = (313,960);
},
{
name = topright;
pos = (626,960);
}
);
layerId = "0DC1F6FB-20EC-4E8F-AE98-F98B5FD714DE";
shapes = (
{
closed = 1;
nodes = (
(463,-11,o),
(526,61,o),
(526,302,cs),
(526,332,ls),
(526,572,o),
(467,646,o),
(289,646,cs),
(118,646,o),
(23,574,o),
(23,332,cs),
(23,302,ls),
(23,61,o),
(118,-11,o),
(289,-11,cs)
);
},
{
closed = 1;
nodes = (
(514,126,l),
(514,148,l),
(499,148,l),
(499,126,l)
);
},
{
closed = 1;
nodes = (
(115,32,o),
(66,120,o),
(66,308,cs),
(66,326,ls),
(66,516,o),
(113,602,o),
(289,602,cs),
(467,602,o),
(511,516,o),
(511,326,cs),
(511,308,ls),
(511,120,o),
(464,32,o),
(289,32,cs)
);
},
{
closed = 1;
nodes = (
(514,491,l),
(514,511,l),
(499,511,l),
(499,491,l)
);
},
{
closed = 1;
nodes = (
(554,0,l),
(554,930,l),
(511,930,l),
(511,0,l)
);
}
);
width = 623;
}
);
unicode = 100;
},
{
color = 10;
glyphname = e;
kernLeft = e;
kernRight = e;
layers = (
{
anchors = (
{
name = bottom;
pos = (300,0);
},
{
name = ogonek;
pos = (566,12);
},
{
name = top;
pos = (300,564);
}
);
guides = (
{
pos = (-28,356);
}
);
layerId = "B3961A9D-C6DC-4F74-9770-9C992C479D86";
shapes = (
{
closed = 1;
nodes = (
(397,-10,o),
(472,-6,o),
(542,28,c),
(542,142,l),
(461,115,o),
(397,110,o),
(355,110,cs),
(223,110,o),
(182,158,o),
(178,277,c),
(554,277,l),
(557,332,ls),
(566,557,o),
(466,646,o),
(302,646,cs),
(149,642,o),
(36,557,o),
(36,332,cs),
(36,304,ls),
(36,64,o),
(151,-10,o),
(334,-10,cs)
);
},
{
closed = 1;
nodes = (
(184,474,o),
(208,523,o),
(302,526,cs),
(398,523,o),
(419,476,o),
(421,376,c),
(178,376,l)
);
}
);
width = 599;
},
{
anchors = (
{
name = bottom;
pos = (266,0);
},
{
name = ogonek;
pos = (502,12);
},
{
name = top;
pos = (266,600);
}
);
layerId = "0DC1F6FB-20EC-4E8F-AE98-F98B5FD714DE";
shapes = (
{
closed = 1;
nodes = (
(376,-11,o),
(443,-1,o),
(486,26,c),
(486,72,l),
(451,49,o),
(386,32,o),
(306,32,cs),
(149,32,o),
(84,83,o),
(84,318,c),
(500,318,l),
(502,332,ls),
(521,568,o),
(436,644,o),
(275,646,cs),
(114,647,o),
(41,569,o),
(41,332,cs),
(41,302,ls),
(41,61,o),
(125,-11,o),
(306,-11,cs)
);
},
{
closed = 1;
nodes = (
(88,523,o),
(125,605,o),
(275,602,cs),
(430,600,o),
(470,523,o),
(460,358,c),
(84,358,l)
);
}
);
width = 534;
}
);
unicode = 101;
},
{
color = 10;
glyphname = f;
layers = (
{
anchors = (
{
name = bottom;
pos = (232,0);
},
{
name = top;
pos = (232,1356);
}
);
layerId = "B3961A9D-C6DC-4F74-9770-9C992C479D86";
shapes = (
{
closed = 1;
nodes = (
(265,494,l),
(265,646,ls),
(265,755,o),
(271,763,o),
(380,763,cs),
(407,763,l),
(407,901,l),
(342,902,ls),
(178,906,o),
(119,856,o),
(119,654,cs),
(119,494,l)
);
},
{
closed = 1;
nodes = (
(265,0,l),
(265,634,l),
(119,634,l),
(119,0,l)
);
},
{
closed = 1;
nodes = (
(407,498,l),
(407,620,l),
(4,620,l),
(4,498,l)
);
}
);
width = 426;
},
{
anchors = (
{
name = bottom;
pos = (173,0);
},
{
name = top;
pos = (173,960);
}
);
layerId = "0DC1F6FB-20EC-4E8F-AE98-F98B5FD714DE";
shapes = (
{
closed = 1;
nodes = (
(154,494,l),
(154,694,ls),
(154,784,o),
(145,864,o),
(287,859,cs),
(331,859,l),
(331,901,l),
(298,901,ls),
(149,901,o),
(110,859,o),
(110,702,cs),
(110,494,l)
);
},
{
closed = 1;
nodes = (
(154,0,l),
(154,634,l),
(110,634,l),
(110,0,l)
);
},
{
closed = 1;
nodes = (
(331,598,l),
(331,636,l),
(-5,636,l),
(-5,598,l)
);
}
);
width = 335;
}
);
unicode = 102;
},
{
color = 10;
glyphname = g;
kernLeft = g;
kernRight = g;
layers = (
{
anchors = (
{
name = bottom;
pos = (371,-638);
},
{
name = top;
pos = (371,564);
}
);
guides = (
{
pos = (-28,538);
},
{
angle = 90;
pos = (1631,0);
},
{
angle = 90;
pos = (1003,0);
},
{
angle = 90;
pos = (557,0);
},
{
angle = 90;
pos = (33,0);
},
{
angle = 90;
pos = (1704,0);
},
{
angle = 90;
pos = (612,0);
}
);
layerId = "B3961A9D-C6DC-4F74-9770-9C992C479D86";
shapes = (
{
closed = 1;
nodes = (
(551,-364,o),
(704,-335,o),
(704,-146,cs),
(704,6,o),
(589,29,o),
(474,34,cs),
(397,40,o),
(242,38,o),
(246,100,cs),
(246,116,o),
(256,127,o),
(270,134,c),
(295,132,o),
(324,131,o),
(354,131,cs),
(539,131,o),
(668,169,o),
(662,379,cs),
(662,380,ls),
(662,464,o),
(628,517,o),
(571,538,c),
(571,542,l),
(719,542,l),
(719,659,l),
(354,647,l),
(169,647,o),
(48,596,o),
(47,389,cs),
(47,386,ls),
(48,233,o),
(108,169,o),
(208,144,c),
(208,143,l),
(150,138,o),
(101,116,o),
(101,53,cs),
(101,4,o),
(128,-16,o),
(180,-25,c),
(180,-30,l),
(110,-36,o),
(17,-43,o),
(17,-182,cs),
(23,-343,o),
(208,-366,o),
(343,-366,cs)
);
},
{
closed = 1;
nodes = (
(283,-235,o),
(163,-235,o),
(163,-149,cs),
(163,-86,o),
(228,-67,o),
(246,-58,c),
(446,-77,ls),
(497,-83,o),
(556,-89,o),
(556,-149,cs),
(556,-239,o),
(415,-235,o),
(326,-235,cs)
);
},
{
closed = 1;
nodes = (
(223,235,o),
(198,310,o),
(197,389,cs),
(198,468,o),
(223,542,o),
(354,542,cs),
(496,542,o),
(511,468,o),
(512,389,cs),
(511,310,o),
(496,235,o),
(354,235,cs)
);
}
);
width = 737;
},
{
anchors = (
{
name = bottom;
pos = (308,-240);
},
{
name = top;
pos = (308,600);
}
);
guides = (
{
angle = 90;
pos = (472,0);
},
{
angle = 90;
pos = (39,0);
},
{
angle = 90;
pos = (516,0);
}
);
layerId = "0DC1F6FB-20EC-4E8F-AE98-F98B5FD714DE";
shapes = (
{
closed = 1;
nodes = (
(514,-296,o),
(613,-263,o),
(613,-139,cs),
(613,-10,o),
(558,11,o),
(324,17,cs),
(241,20,o),
(132,24,o),
(132,80,cs),
(132,108,o),
(158,120,o),
(186,125,c),
(223,114,o),
(264,109,o),
(305,109,cs),
(439,109,o),
(574,149,o),
(568,366,cs),
(568,367,ls),
(568,461,o),
(551,566,o),
(469,600,c),
(469,605,l),
(623,605,l),
(623,650,l),
(305,644,ls),
(158,644,o),
(47,593,o),
(46,377,cs),
(46,376,ls),
(46,241,o),
(90,172,o),
(154,139,c),
(154,136,l),
(96,128,o),
(89,96,o),
(89,76,cs),
(89,37,o),
(118,12,o),
(151,8,c),
(151,4,l),
(77,-1,o),
(23,-48,o),
(23,-138,cs),
(20,-272,o),
(158,-299,o),
(300,-299,cs)
);
},
{
closed = 1;
nodes = (
(239,-256,o),
(67,-263,o),
(67,-137,cs),
(67,-40,o),
(162,-26,o),
(187,-16,c),
(461,-32,l),
(530,-41,o),
(569,-54,o),
(569,-137,cs),
(569,-251,o),
(418,-256,o),
(298,-256,cs)
);
},
{
closed = 1;
nodes = (
(113,151,o),
(91,260,o),
(90,374,cs),
(91,490,o),
(113,599,o),
(305,599,cs),
(500,599,o),
(522,490,o),
(523,374,cs),
(522,260,o),
(500,151,o),
(305,151,cs)
);
}
);
width = 638;
}
);
unicode = 103;
},
{
color = 10;
glyphname = h;
kernLeft = h;
kernRight = h;
layers = (
{
anchors = (
{
name = bottom;
pos = (328,0);
},
{
name = center;
pos = (328,678);
},
{
name = top;
pos = (328,1356);
}
);
layerId = "B3961A9D-C6DC-4F74-9770-9C992C479D86";
shapes = (
{
closed = 1;
nodes = (
(70,0,l),
(216,0,l),
(216,442,l),
(216,930,l),
(70,930,l)
);
},
{
closed = 1;
nodes = (
(473,0,l),
(619,0,l),
(619,389,l),
(473,422,l)
);
},
{
closed = 1;
nodes = (
(216,334,l),
(216,478,o),
(257,512,o),
(349,512,cs),
(442,512,o),
(473,464,o),
(473,334,c),
(619,389,l),
(619,564,o),
(545,631,o),
(407,631,cs),
(292,631,o),
(216,588,o),
(216,442,cs)
);
},
{
closed = 1;
nodes = (
(184,461,l),
(218,436,l),
(229,500,l),
(184,500,l)
);
}
);
width = 654;
},
{
anchors = (
{
name = bottom;
pos = (282,0);
},
{
name = center;
pos = (282,480);
},
{
name = top;
pos = (282,960);
}
);
guides = (
{
angle = 90;
pos = (250,0);
}
);
layerId = "0DC1F6FB-20EC-4E8F-AE98-F98B5FD714DE";
shapes = (
{
closed = 1;
nodes = (
(70,0,l),
(113,0,l),
(113,442,l),
(113,930,l),
(70,930,l)
);
},
{
closed = 1;
nodes = (
(485,0,l),
(528,0,l),
(528,406,l),
(485,347,l)
);
},
{
closed = 1;
nodes = (
(113,334,l),
(113,478,o),
(139,602,o),
(305,602,cs),
(474,602,o),
(482,493,o),
(485,347,c),
(528,400,l),
(523,589,o),
(443,646,o),
(305,646,cs),
(190,646,o),
(113,588,o),
(113,442,cs)
);
},
{
closed = 1;
nodes = (
(80,461,l),
(115,436,l),
(126,500,l),
(80,500,l)
);
}
);
width = 563;
}
);
unicode = 104;
},
{
color = 10;
glyphname = i;
kernLeft = i;
kernRight = i;
layers = (
{
anchors = (
{
name = bottom;
pos = (134,0);
}
);
layerId = "B3961A9D-C6DC-4F74-9770-9C992C479D86";
shapes = (
{
closed = 1;
nodes = (
(208,0,l),
(208,634,l),
(61,634,l),
(61,0,l)
);
},
{
closed = 1;
nodes = (
(176,756,o),
(209,764,o),
(209,830,cs),
(209,896,o),
(176,905,o),
(134,905,cs),
(92,905,o),
(60,896,o),
(60,830,cs),
(60,764,o),
(92,756,o),
(134,756,cs)
);
}
);
width = 269;
},
{
anchors = (
{
name = bottom;
pos = (84,0);
}
);
layerId = "0DC1F6FB-20EC-4E8F-AE98-F98B5FD714DE";
shapes = (
{
closed = 1;
nodes = (
(106,0,l),
(106,634,l),
(62,634,l),
(62,0,l)
);
},
{
closed = 1;
nodes = (
(100,787,o),
(112,791,o),
(112,815,cs),
(112,839,o),
(100,842,o),
(84,842,cs),
(68,842,o),
(56,839,o),
(56,815,cs),
(56,791,o),
(68,787,o),
(84,787,cs)
);
}
);
width = 168;
}
);
unicode = 105;
},
{
color = 10;
glyphname = idotless;
layers = (
{
anchors = (
{
name = bottom;
pos = (143,0);
},
{
name = ogonek;
pos = (284,12);
},
{
name = top;
pos = (143,564);
}
);
layerId = "B3961A9D-C6DC-4F74-9770-9C992C479D86";
shapes = (
{
closed = 1;
nodes = (
(216,0,l),
(216,634,l),
(70,634,l),
(70,0,l)
);
}
);
width = 286;
},
{
anchors = (
{
name = bottom;
pos = (91,0);
},
{
name = ogonek;
pos = (185,12);
},
{
name = top;
pos = (91,600);
}
);
layerId = "0DC1F6FB-20EC-4E8F-AE98-F98B5FD714DE";
shapes = (
{
closed = 1;
nodes = (
(113,0,l),
(113,634,l),
(70,634,l),
(70,0,l)
);
}
);
width = 182;
}
);
unicode = 305;
},
{
color = 10;
glyphname = j;
kernLeft = j;
layers = (
{
layerId = "B3961A9D-C6DC-4F74-9770-9C992C479D86";
shapes = (
{
closed = 1;
nodes = (
(64,-245,ls),
(228,-245,o),
(287,-198,o),
(287,4,cs),
(287,204,l),
(140,204,l),
(140,12,ls),
(140,-97,o),
(134,-106,o),
(25,-106,cs),
(-1,-106,l),
(-1,-245,l)
);
},
{
closed = 1;
nodes = (
(287,185,l),
(287,634,l),
(140,634,l),
(140,185,l)
);
},
{
closed = 1;
nodes = (
(256,756,o),
(288,764,o),
(288,830,cs),
(288,896,o),
(256,905,o),
(214,905,cs),
(172,905,o),
(139,896,o),
(139,830,cs),
(139,764,o),
(172,756,o),
(214,756,cs)
);
}
);
width = 344;
},
{
layerId = "0DC1F6FB-20EC-4E8F-AE98-F98B5FD714DE";
shapes = (
{
closed = 1;
nodes = (
(25,-101,ls),
(76,-101,o),
(128,-91,o),
(128,-17,cs),
(128,204,l),
(85,204,l),
(85,19,ls),
(85,-44,o),
(79,-55,o),
(25,-58,cs),
(-7,-58,l),
(-7,-101,l)
);
},
{
closed = 1;
nodes = (
(128,198,l),
(128,634,l),
(85,634,l),
(85,198,l)
);
},
{
closed = 1;
nodes = (
(122,787,o),
(134,791,o),
(134,815,cs),
(134,839,o),
(122,842,o),
(107,842,cs),
(91,842,o),
(79,839,o),
(79,815,cs),
(79,791,o),
(91,787,o),
(107,787,cs)
);
}
);
width = 190;
}
);
unicode = 106;
},
{
color = 10;
glyphname = jdotless;
layers = (
{
layerId = "B3961A9D-C6DC-4F74-9770-9C992C479D86";
shapes = (
{
closed = 1;
nodes = (
(64,-245,ls),
(228,-245,o),
(287,-198,o),
(287,4,cs),
(287,204,l),
(140,204,l),
(140,12,ls),
(140,-97,o),
(134,-106,o),
(25,-106,cs),
(-1,-106,l),
(-1,-245,l)
);
},
{
closed = 1;
nodes = (
(287,185,l),
(287,634,l),
(140,634,l),
(140,185,l)
);
}
);
width = 343;
},
{
layerId = "0DC1F6FB-20EC-4E8F-AE98-F98B5FD714DE";
shapes = (
{
closed = 1;
nodes = (
(25,-101,ls),
(76,-101,o),
(128,-91,o),
(128,-17,cs),
(128,204,l),
(85,204,l),
(85,19,ls),
(85,-44,o),
(79,-55,o),
(25,-58,cs),
(-7,-58,l),
(-7,-101,l)
);
},
{
closed = 1;
nodes = (
(128,198,l),
(128,634,l),
(85,634,l),
(85,198,l)
);
}
);
width = 184;
}
);
metricLeft = j;
metricRight = j;
unicode = 567;
},
{
color = 10;
glyphname = jacute;
layers = (
{
layerId = "B3961A9D-C6DC-4F74-9770-9C992C479D86";
shapes = (
{
closed = 1;
nodes = (
(64,-245,ls),
(228,-245,o),
(287,-198,o),
(287,4,cs),
(287,634,l),
(140,634,l),
(140,12,ls),
(140,-97,o),
(134,-106,o),
(25,-106,cs),
(-1,-106,l),
(-1,-245,l)
);
},
{
alignment = -1;
pos = (56,74);
ref = acutecomb;
scale = (0.833,0.696);
}
);
width = 343;
},
{
layerId = "0DC1F6FB-20EC-4E8F-AE98-F98B5FD714DE";
shapes = (
{
closed = 1;
nodes = (
(25,-101,ls),
(76,-101,o),
(128,-91,o),
(128,-17,cs),
(128,634,l),
(85,634,l),
(85,19,ls),
(85,-44,o),
(79,-55,o),
(25,-58,cs),
(-7,-58,l),
(-7,-101,l)
);
},
{
alignment = -1;
pos = (34,19);
ref = acutecomb;
scale = (0.911,0.911);
}
);
width = 184;
}
);
metricLeft = j;
metricRight = j;
},
{
color = 10;
glyphname = k;
kernRight = k;
layers = (
{
anchors = (
{
name = bottom;
pos = (305,0);
},
{
name = top;
pos = (305,1356);
}
);
guides = (
{
pos = (-28,528);
},
{
angle = 90;
pos = (506,0);
}
);
layerId = "B3961A9D-C6DC-4F74-9770-9C992C479D86";
shapes = (
{
closed = 1;
nodes = (
(216,0,l),
(216,280,l),
(272,280,l),
(446,0,l),
(611,0,l),
(390,340,l),
(600,634,l),
(432,634,l),
(272,400,l),
(216,400,l),
(216,930,l),
(70,930,l),
(70,0,l)
);
}
);
width = 610;
},
{
anchors = (
{
name = bottom;
pos = (233,0);
},
{
name = top;
pos = (233,960);
}
);
layerId = "0DC1F6FB-20EC-4E8F-AE98-F98B5FD714DE";
shapes = (
{
closed = 1;
nodes = (
(113,0,l),
(113,335,l),
(193,335,l),
(418,0,l),
(472,0,l),
(229,355,l),
(463,634,l),
(406,634,l),
(193,378,l),
(113,378,l),
(113,930,l),
(70,930,l),
(70,0,l)
);
}
);
width = 469;
}
);
unicode = 107;
},
{
color = 10;
glyphname = l;
kernLeft = l;
layers = (
{
anchors = (
{
name = bottom;
pos = (143,0);
},
{
name = center;
pos = (143,678);
},
{
name = top;
pos = (143,1356);
},
{
name = topright;
pos = (295,1356);
}
);
layerId = "B3961A9D-C6DC-4F74-9770-9C992C479D86";
shapes = (
{
closed = 1;
nodes = (
(216,0,l),
(216,930,l),
(70,930,l),
(70,0,l)
);
}
);
width = 286;
},
{
anchors = (
{
name = bottom;
pos = (91,0);
},
{
name = center;
pos = (91,480);
},
{
name = top;
pos = (91,960);
},
{
name = topright;
pos = (185,960);
}
);
layerId = "0DC1F6FB-20EC-4E8F-AE98-F98B5FD714DE";
shapes = (
{
closed = 1;
nodes = (
(113,0,l),
(113,930,l),
(70,930,l),
(70,0,l)
);
}
);
width = 182;
}
);
unicode = 108;
},
{
color = 10;
glyphname = m;
kernLeft = m;
kernRight = m;
layers = (
{
anchors = (
{
name = bottom;
pos = (516,0);
},
{
name = top;
pos = (516,564);
}
);
layerId = "B3961A9D-C6DC-4F74-9770-9C992C479D86";
shapes = (
{
closed = 1;
nodes = (
(215,0,l),
(215,334,ls),
(215,478,o),
(241,512,o),
(334,512,cs),
(426,512,o),
(448,464,o),
(448,334,cs),
(448,0,l),
(594,0,l),
(594,334,ls),
(594,478,o),
(620,512,o),
(713,512,cs),
(805,512,o),
(827,464,o),
(827,334,cs),
(827,0,l),
(973,0,l),
(973,389,ls),
(973,552,o),
(917,631,o),
(779,631,cs),
(680,631,o),
(606,600,o),
(586,500,c),
(582,500,l),
(558,588,o),
(502,631,o),
(400,631,cs),
(301,631,o),
(236,600,o),
(220,500,c),
(215,500,l),
(215,618,l),
(68,618,l),
(68,0,l)
);
}
);
width = 1032;
},
{
anchors = (
{
name = bottom;
pos = (464,0);
},
{
name = top;
pos = (464,600);
}
);
guides = (
{
pos = (-23,538);
},
{
pos = (-23,528);
}
);
layerId = "0DC1F6FB-20EC-4E8F-AE98-F98B5FD714DE";
shapes = (
{
closed = 1;
nodes = (
(112,0,l),
(112,320,ls),
(112,523,o),
(150,602,o),
(283,602,cs),
(445,602,o),
(448,490,o),
(448,320,cs),
(448,0,l),
(491,0,l),
(491,308,ls),
(491,540,o),
(529,602,o),
(662,602,cs),
(824,602,o),
(827,502,o),
(827,320,cs),
(827,0,l),
(870,0,l),
(870,403,ls),
(870,565,o),
(814,646,o),
(676,646,cs),
(577,646,o),
(494,614,o),
(478,515,c),
(473,515,l),
(454,602,o),
(398,646,o),
(296,646,cs),
(198,646,o),
(133,624,o),
(116,515,c),
(112,515,l),
(112,634,l),
(68,634,l),
(68,0,l)
);
}
);
width = 929;
}
);
unicode = 109;
},
{
color = 10;
glyphname = n;
kernLeft = m;
kernRight = m;
layers = (
{
anchors = (
{
name = bottom;
pos = (338,0);
},
{
name = top;
pos = (338,564);
}
);
guides = (
{
pos = (-28,515);
}
);
layerId = "B3961A9D-C6DC-4F74-9770-9C992C479D86";
shapes = (
{
closed = 1;
nodes = (
(215,478,o),
(256,512,o),
(348,512,cs),
(440,512,o),
(472,464,o),
(472,334,c),
(618,389,l),
(618,564,o),
(544,631,o),
(406,631,cs),
(290,631,o),
(215,588,o),
(215,442,cs),
(215,334,l)
);
},
{
closed = 1;
nodes = (
(215,0,l),
(215,442,l),
(215,618,l),
(68,618,l),
(68,0,l)
);
},
{
closed = 1;
nodes = (
(228,500,l),
(182,500,l),
(182,461,l),
(217,436,l)
);
},
{
closed = 1;
nodes = (
(618,0,l),
(618,389,l),
(472,422,l),
(472,0,l)
);
}
);
width = 676;
},
{
anchors = (
{
name = bottom;
pos = (293,0);
},
{
name = top;
pos = (293,600);
}
);
guides = (
{
pos = (-23,538);
},
{
pos = (-23,528);
}
);
layerId = "0DC1F6FB-20EC-4E8F-AE98-F98B5FD714DE";
shapes = (
{
closed = 1;
nodes = (
(112,478,o),
(138,602,o),
(304,602,cs),
(473,602,o),
(481,493,o),
(484,347,c),
(527,400,l),
(522,589,o),
(445,646,o),
(307,646,cs),
(179,646,o),
(112,588,o),
(112,442,cs),
(112,334,l)
);
},
{
closed = 1;
nodes = (
(112,0,l),
(112,442,l),
(112,634,l),
(68,634,l),
(68,0,l)
);
},
{
closed = 1;
nodes = (
(125,500,l),
(79,500,l),
(79,461,l),
(114,436,l)
);
},
{
closed = 1;
nodes = (
(527,0,l),
(527,406,l),
(484,347,l),
(484,0,l)
);
}
);
width = 584;
}
);
unicode = 110;
},
{
color = 10;
glyphname = o;
kernLeft = o;
kernRight = o;
layers = (
{
anchors = (
{
name = bottom;
pos = (347,0);
},
{
name = center;
pos = (347,282);
},
{
name = ogonek;
pos = (650,12);
},
{
name = top;
pos = (347,564);
},
{
name = topright;
pos = (702,564);
}
);
guides = (
{
pos = (-28,538);
}
);
layerId = "B3961A9D-C6DC-4F74-9770-9C992C479D86";
shapes = (
{
closed = 1;
nodes = (
(538,-11,o),
(656,61,o),
(656,302,cs),
(656,332,ls),
(656,574,o),
(538,646,o),
(346,646,cs),
(154,646,o),
(36,572,o),
(36,332,cs),
(36,302,ls),
(36,61,o),
(154,-11,o),
(346,-11,cs)
);
},
{
closed = 1;
nodes = (
(217,109,o),
(184,173,o),
(184,311,cs),
(184,324,ls),
(184,463,o),
(216,526,o),
(346,526,cs),
(475,526,o),
(509,463,o),
(509,324,cs),
(509,311,ls),
(509,173,o),
(474,109,o),
(346,109,cs)
);
}
);
width = 692;
},
{
anchors = (
{
name = bottom;
pos = (306,0);
},
{
name = center;
pos = (306,300);
},
{
name = ogonek;
pos = (571,12);
},
{
name = top;
pos = (306,600);
},
{
name = topright;
pos = (613,600);
}
);
guides = (
{
pos = (-22,538);
}
);
layerId = "0DC1F6FB-20EC-4E8F-AE98-F98B5FD714DE";
shapes = (
{
closed = 1;
nodes = (
(476,-11,o),
(571,61,o),
(571,302,cs),
(571,332,ls),
(571,574,o),
(476,646,o),
(305,646,cs),
(127,646,o),
(40,572,o),
(40,332,cs),
(40,302,ls),
(40,61,o),
(131,-11,o),
(305,-11,cs)
);
},
{
closed = 1;
nodes = (
(130,32,o),
(83,120,o),
(83,308,cs),
(83,326,ls),
(83,516,o),
(127,602,o),
(305,602,cs),
(481,602,o),
(528,516,o),
(528,326,cs),
(528,308,ls),
(528,120,o),
(479,32,o),
(305,32,cs)
);
}
);
width = 610;
}
);
unicode = 111;
},
{
color = 10;
glyphname = oslash;
layers = (
{
anchors = (
{
name = bottom;
pos = (350,0);
},
{
name = center;
pos = (350,282);
},
{
name = ogonek;
pos = (654,12);
},
{
name = top;
pos = (350,564);
},
{
name = topright;
pos = (706,564);
}
);
layerId = "B3961A9D-C6DC-4F74-9770-9C992C479D86";
shapes = (
{
closed = 1;
nodes = (
(203,-203,l),
(616,847,l),
(484,847,l),
(71,-203,l)
);
},
{
closed = 1;
nodes = (
(538,-11,o),
(656,61,o),
(656,302,cs),
(656,332,ls),
(656,574,o),
(538,646,o),
(346,646,cs),
(154,646,o),
(36,572,o),
(36,332,cs),
(36,302,ls),
(36,61,o),
(154,-11,o),
(346,-11,cs)
);
},
{
closed = 1;
nodes = (
(217,109,o),
(184,173,o),
(184,311,cs),
(184,324,ls),
(184,463,o),
(216,526,o),
(346,526,cs),
(475,526,o),
(509,463,o),
(509,324,cs),
(509,311,ls),
(509,173,o),
(474,109,o),
(346,109,cs)
);
}
);
width = 692;
},
{
anchors = (
{
name = bottom;
pos = (306,0);
},
{
name = center;
pos = (306,300);
},
{
name = ogonek;
pos = (571,12);
},
{
name = top;
pos = (306,600);
},
{
name = topright;
pos = (613,600);
}
);
layerId = "0DC1F6FB-20EC-4E8F-AE98-F98B5FD714DE";
shapes = (
{
closed = 1;
nodes = (
(114,-191,l),
(553,821,l),
(506,821,l),
(67,-191,l)
);
},
{
closed = 1;
nodes = (
(476,-11,o),
(571,61,o),
(571,302,cs),
(571,332,ls),
(571,574,o),
(476,646,o),
(305,646,cs),
(127,646,o),
(40,572,o),
(40,332,cs),
(40,302,ls),
(40,61,o),
(131,-11,o),
(305,-11,cs)
);
},
{
closed = 1;
nodes = (
(130,32,o),
(83,120,o),
(83,308,cs),
(83,326,ls),
(83,516,o),
(127,602,o),
(305,602,cs),
(481,602,o),
(528,516,o),
(528,326,cs),
(528,308,ls),
(528,120,o),
(479,32,o),
(305,32,cs)
);
}
);
width = 610;
}
);
metricLeft = o;
metricRight = o;
unicode = 248;
},
{
color = 10;
glyphname = oe;
layers = (
{
layerId = "B3961A9D-C6DC-4F74-9770-9C992C479D86";
shapes = (
{
closed = 1;
nodes = (
(538,-11,o),
(620,61,o),
(620,302,cs),
(620,332,ls),
(620,574,o),
(538,646,o),
(346,646,cs),
(154,646,o),
(36,572,o),
(36,332,cs),
(36,302,ls),
(36,61,o),
(154,-11,o),
(346,-11,cs)
);
},
{
closed = 1;
nodes = (
(217,109,o),
(184,173,o),
(184,311,cs),
(184,324,ls),
(184,463,o),
(216,526,o),
(346,526,cs),
(475,526,o),
(509,463,o),
(509,324,cs),
(509,311,ls),
(509,173,o),
(474,109,o),
(346,109,cs)
);
},
{
closed = 1;
nodes = (
(877,-10,o),
(944,-6,o),
(1015,28,c),
(1015,142,l),
(934,115,o),
(870,110,o),
(828,110,cs),
(696,110,o),
(655,158,o),
(650,277,c),
(1027,277,l),
(1030,332,ls),
(1039,557,o),
(946,646,o),
(782,646,cs),
(629,642,o),
(516,557,o),
(516,332,cs),
(516,304,ls),
(516,64,o),
(631,-10,o),
(814,-10,cs)
);
},
{
closed = 1;
nodes = (
(656,474,o),
(680,523,o),
(775,526,cs),
(871,523,o),
(892,476,o),
(894,376,c),
(650,376,l)
);
}
);
width = 1072;
},
{
layerId = "0DC1F6FB-20EC-4E8F-AE98-F98B5FD714DE";
shapes = (
{
closed = 1;
nodes = (
(476,-11,o),
(570,61,o),
(570,302,cs),
(570,332,ls),
(570,574,o),
(476,646,o),
(305,646,cs),
(127,646,o),
(40,572,o),
(40,332,cs),
(40,302,ls),
(40,61,o),
(131,-11,o),
(305,-11,cs)
);
},
{
closed = 1;
nodes = (
(130,32,o),
(83,120,o),
(83,308,cs),
(83,326,ls),
(83,516,o),
(127,602,o),
(305,602,cs),
(481,602,o),
(528,516,o),
(528,326,cs),
(528,308,ls),
(528,120,o),
(479,32,o),
(305,32,cs)
);
},
{
closed = 1;
nodes = (
(863,-11,o),
(930,-1,o),
(973,26,c),
(973,72,l),
(938,49,o),
(874,32,o),
(793,32,cs),
(636,32,o),
(571,83,o),
(571,318,c),
(988,318,l),
(989,332,ls),
(1008,568,o),
(923,644,o),
(762,646,cs),
(601,647,o),
(528,569,o),
(528,332,cs),
(528,302,ls),
(528,61,o),
(612,-11,o),
(793,-11,cs)
);
},
{
closed = 1;
nodes = (
(575,523,o),
(612,605,o),
(762,602,cs),
(917,600,o),
(958,523,o),
(947,358,c),
(571,358,l)
);
}
);
width = 1021;
}
);
metricLeft = o;
metricRight = e;
unicode = 339;
},
{
color = 10;
glyphname = p;
layers = (
{
anchors = (
{
name = bottom;
pos = (355,0);
},
{
name = top;
pos = (355,564);
}
);
layerId = "B3961A9D-C6DC-4F74-9770-9C992C479D86";
shapes = (
{
closed = 1;
nodes = (
(215,-296,l),
(215,128,l),
(220,128,l),
(246,37,o),
(302,-12,o),
(415,-12,cs),
(607,-12,o),
(688,60,o),
(688,301,cs),
(688,331,ls),
(688,560,o),
(607,644,o),
(415,644,cs),
(302,644,o),
(246,611,o),
(220,529,c),
(215,529,l),
(215,634,l),
(68,634,l),
(68,-296,l)
);
},
{
closed = 1;
nodes = (
(247,108,o),
(215,170,o),
(215,310,cs),
(215,323,ls),
(215,461,o),
(248,524,o),
(377,524,cs),
(505,524,o),
(540,461,o),
(540,323,cs),
(540,310,ls),
(540,170,o),
(506,108,o),
(377,108,cs)
);
}
);
width = 710;
},
{
anchors = (
{
name = bottom;
pos = (311,0);
},
{
name = top;
pos = (311,600);
}
);
guides = (
{
pos = (-23,538);
},
{
pos = (-23,528);
},
{
pos = (-23,538);
},
{
pos = (-23,528);
}
);
layerId = "0DC1F6FB-20EC-4E8F-AE98-F98B5FD714DE";
shapes = (
{
closed = 1;
nodes = (
(112,-295,l),
(112,124,l),
(116,124,l),
(145,24,o),
(211,-11,o),
(334,-11,cs),
(505,-11,o),
(600,61,o),
(600,302,cs),
(600,332,ls),
(600,574,o),
(505,646,o),
(334,646,cs),
(212,646,o),
(145,611,o),
(116,509,c),
(112,509,l),
(112,634,l),
(68,634,l),
(68,-295,l)
);
},
{
closed = 1;
nodes = (
(156,32,o),
(112,119,o),
(112,308,cs),
(112,326,ls),
(112,515,o),
(158,602,o),
(334,602,cs),
(508,602,o),
(557,515,o),
(557,326,cs),
(557,308,ls),
(557,119,o),
(510,32,o),
(334,32,cs)
);
}
);
width = 623;
}
);
unicode = 112;
},
{
color = 10;
glyphname = thorn;
layers = (
{
layerId = "B3961A9D-C6DC-4F74-9770-9C992C479D86";
shapes = (
{
closed = 1;
nodes = (
(215,-296,l),
(215,128,l),
(220,128,l),
(246,37,o),
(302,-12,o),
(415,-12,cs),
(607,-12,o),
(688,60,o),
(688,301,cs),
(688,331,ls),
(688,560,o),
(607,644,o),
(415,644,cs),
(302,644,o),
(246,611,o),
(220,529,c),
(215,529,l),
(215,982,l),
(68,982,l),
(68,-296,l)
);
},
{
closed = 1;
nodes = (
(247,108,o),
(215,170,o),
(215,310,cs),
(215,323,ls),
(215,461,o),
(248,524,o),
(377,524,cs),
(505,524,o),
(540,461,o),
(540,323,cs),
(540,310,ls),
(540,170,o),
(506,108,o),
(377,108,cs)
);
}
);
width = 710;
},
{
layerId = "0DC1F6FB-20EC-4E8F-AE98-F98B5FD714DE";
shapes = (
{
closed = 1;
nodes = (
(112,-295,l),
(112,124,l),
(116,124,l),
(145,24,o),
(211,-11,o),
(334,-11,cs),
(505,-11,o),
(600,61,o),
(600,302,cs),
(600,332,ls),
(600,574,o),
(505,646,o),
(334,646,cs),
(212,646,o),
(145,611,o),
(116,509,c),
(112,509,l),
(112,874,l),
(68,874,l),
(68,-295,l)
);
},
{
closed = 1;
nodes = (
(156,32,o),
(112,119,o),
(112,308,cs),
(112,326,ls),
(112,515,o),
(158,602,o),
(334,602,cs),
(508,602,o),
(557,515,o),
(557,326,cs),
(557,308,ls),
(557,119,o),
(510,32,o),
(334,32,cs)
);
}
);
width = 623;
}
);
metricLeft = p;
metricRight = p;
unicode = 254;
},
{
color = 10;
glyphname = q;
layers = (
{
anchors = (
{
name = bottom;
pos = (356,0);
},
{
name = top;
pos = (356,564);
}
);
layerId = "B3961A9D-C6DC-4F74-9770-9C992C479D86";
shapes = (
{
closed = 1;
nodes = (
(642,-296,l),
(642,634,l),
(496,634,l),
(496,529,l),
(491,529,l),
(464,611,o),
(408,644,o),
(295,644,cs),
(103,644,o),
(23,560,o),
(23,331,cs),
(23,301,ls),
(23,60,o),
(103,-12,o),
(295,-12,cs),
(408,-12,o),
(464,37,o),
(491,128,c),
(496,128,l),
(496,-296,l)
);
},
{
closed = 1;
nodes = (
(204,108,o),
(170,170,o),
(170,310,cs),
(170,323,ls),
(170,461,o),
(205,524,o),
(334,524,cs),
(462,524,o),
(496,461,o),
(496,323,cs),
(496,310,ls),
(496,170,o),
(463,108,o),
(334,108,cs)
);
}
);
width = 712;
},
{
anchors = (
{
name = bottom;
pos = (313,0);
},
{
name = top;
pos = (313,600);
}
);
guides = (
{
pos = (-21,538);
},
{
pos = (-21,528);
}
);
layerId = "0DC1F6FB-20EC-4E8F-AE98-F98B5FD714DE";
shapes = (
{
closed = 1;
nodes = (
(554,-295,l),
(554,634,l),
(511,634,l),
(511,509,l),
(506,509,l),
(478,611,o),
(410,646,o),
(289,646,cs),
(118,646,o),
(23,574,o),
(23,332,cs),
(23,302,ls),
(23,61,o),
(118,-11,o),
(289,-11,cs),
(412,-11,o),
(478,24,o),
(506,124,c),
(511,124,l),
(511,-295,l)
);
},
{
closed = 1;
nodes = (
(113,32,o),
(66,119,o),
(66,308,cs),
(66,326,ls),
(66,515,o),
(115,602,o),
(289,602,cs),
(464,602,o),
(511,515,o),
(511,326,cs),
(511,308,ls),
(511,119,o),
(467,32,o),
(289,32,cs)
);
}
);
width = 623;
}
);
unicode = 113;
},
{
color = 10;
glyphname = r;
kernLeft = r;
kernRight = r;
layers = (
{
anchors = (
{
name = bottom;
pos = (234,0);
},
{
name = top;
pos = (234,564);
}
);
layerId = "B3961A9D-C6DC-4F74-9770-9C992C479D86";
shapes = (
{
closed = 1;
nodes = (
(215,0,l),
(215,324,ls),
(215,463,o),
(247,523,o),
(377,523,cs),
(462,523,l),
(462,646,l),
(403,646,ls),
(307,646,o),
(250,605,o),
(218,528,c),
(215,528,l),
(215,634,l),
(68,634,l),
(68,0,l)
);
}
);
width = 468;
},
{
anchors = (
{
name = bottom;
pos = (175,0);
},
{
name = top;
pos = (175,600);
}
);
guides = (
{
pos = (-23,538);
},
{
pos = (-23,528);
},
{
pos = (-23,528);
},
{
pos = (-23,538);
},
{
pos = (-23,502);
},
{
pos = (-23,424);
}
);
layerId = "0DC1F6FB-20EC-4E8F-AE98-F98B5FD714DE";
shapes = (
{
closed = 1;
nodes = (
(112,0,l),
(112,336,ls),
(112,515,o),
(164,602,o),
(306,602,cs),
(359,602,l),
(359,646,l),
(314,646,ls),
(218,646,o),
(154,625,o),
(115,509,c),
(112,509,l),
(112,634,l),
(68,634,l),
(68,0,l)
);
}
);
width = 354;
}
);
unicode = 114;
},
{
color = 10;
glyphname = s;
kernLeft = s;
kernRight = s;
layers = (
{
anchors = (
{
name = bottom;
pos = (266,0);
},
{
name = top;
pos = (266,564);
}
);
guides = (
{
pos = (-28,528);
},
{
angle = 90;
pos = (29,0);
},
{
angle = 90;
pos = (417,0);
},
{
angle = 90;
pos = (629,0);
},
{
angle = 90;
pos = (1029,0);
}
);
layerId = "B3961A9D-C6DC-4F74-9770-9C992C479D86";
shapes = (
{
closed = 1;
nodes = (
(401,-10,o),
(500,29,o),
(500,162,cs),
(500,298,o),
(426,325,o),
(316,355,cs),
(204,385,o),
(174,401,o),
(175,460,cs),
(176,511,o),
(215,527,o),
(283,527,cs),
(341,527,o),
(427,510,o),
(484,491,c),
(484,602,l),
(414,630,o),
(350,640,o),
(280,642,cs),
(137,647,o),
(31,595,o),
(31,469,cs),
(31,364,o),
(54,294,o),
(274,244,cs),
(320,233,o),
(356,214,o),
(355,163,cs),
(354,118,o),
(331,95,o),
(253,98,cs),
(186,101,o),
(121,114,o),
(53,134,c),
(53,22,l),
(119,4,o),
(194,-10,o),
(262,-10,cs)
);
}
);
width = 533;
},
{
anchors = (
{
name = bottom;
pos = (234,0);
},
{
name = top;
pos = (234,600);
}
);
guides = (
{
pos = (-21,538);
},
{
angle = 90;
pos = (19,0);
},
{
angle = 90;
pos = (363,0);
}
);
layerId = "0DC1F6FB-20EC-4E8F-AE98-F98B5FD714DE";
shapes = (
{
closed = 1;
nodes = (
(346,-10,o),
(442,30,o),
(448,154,cs),
(454,271,o),
(361,307,o),
(251,337,cs),
(139,367,o),
(66,391,o),
(67,486,cs),
(68,550,o),
(120,606,o),
(251,602,cs),
(312,601,o),
(365,593,o),
(424,570,c),
(424,614,l),
(382,630,o),
(325,644,o),
(252,646,cs),
(124,648,o),
(28,600,o),
(24,490,cs),
(22,415,o),
(40,342,o),
(241,295,cs),
(288,284,o),
(416,250,o),
(404,152,cs),
(398,107,o),
(374,26,o),
(198,34,cs),
(143,36,o),
(88,43,o),
(30,58,c),
(30,12,l),
(86,-1,o),
(142,-10,o),
(197,-10,cs)
);
}
);
width = 468;
}
);
unicode = 115;
},
{
color = 10;
glyphname = t;
kernLeft = t;
kernRight = t;
layers = (
{
anchors = (
{
name = bottom;
pos = (216,0);
},
{
name = center;
pos = (216,282);
},
{
name = top;
pos = (216,564);
},
{
name = topright;
pos = (440,1356);
}
);
layerId = "B3961A9D-C6DC-4F74-9770-9C992C479D86";
shapes = (
{
closed = 1;
nodes = (
(408,0,l),
(408,139,l),
(382,139,ls),
(272,139,o),
(266,148,o),
(266,257,cs),
(266,449,l),
(120,449,l),
(120,248,ls),
(120,47,o),
(179,0,o),
(343,0,cs)
);
},
{
closed = 1;
nodes = (
(408,498,l),
(408,620,l),
(5,620,l),
(5,498,l)
);
},
{
closed = 1;
nodes = (
(266,310,l),
(266,871,l),
(120,847,l),
(120,310,l)
);
}
);
width = 430;
},
{
anchors = (
{
name = bottom;
pos = (169,0);
},
{
name = center;
pos = (169,300);
},
{
name = top;
pos = (169,600);
},
{
name = topright;
pos = (336,960);
}
);
guides = (
{
angle = 90;
pos = (853,0);
},
{
angle = 90;
pos = (277,0);
}
);
layerId = "0DC1F6FB-20EC-4E8F-AE98-F98B5FD714DE";
shapes = (
{
closed = 1;
nodes = (
(332,0,l),
(332,42,l),
(283,42,ls),
(172,42,o),
(175,118,o),
(175,208,cs),
(175,407,l),
(132,407,l),
(132,186,ls),
(132,61,o),
(151,0,o),
(294,0,cs)
);
},
{
closed = 1;
nodes = (
(332,598,l),
(332,636,l),
(-4,636,l),
(-4,598,l)
);
},
{
closed = 1;
nodes = (
(175,268,l),
(175,889,l),
(132,877,l),
(132,268,l)
);
}
);
width = 337;
}
);
unicode = 116;
},
{
color = 10;
glyphname = u;
kernLeft = u;
kernRight = u;
layers = (
{
anchors = (
{
name = bottom;
pos = (320,0);
},
{
name = ogonek;
pos = (576,12);
},
{
name = top;
pos = (320,600);
},
{
name = topright;
pos = (616,600);
}
);
associatedMasterId = "0DC1F6FB-20EC-4E8F-AE98-F98B5FD714DE";
layerId = "A60E2505-20D3-4070-AD0C-80FD77649E51";
name = "#instance";
shapes = (
{
closed = 1;
nodes = (
(544,634,l),
(500,634,l),
(500,192,l),
(500,0,l),
(544,0,l)
);
},
{
closed = 1;
nodes = (
(128,634,l),
(85,634,l),
(85,228,l),
(128,287,l)
);
},
{
closed = 1;
nodes = (
(500,300,l),
(500,156,o),
(474,31,o),
(308,31,cs),
(139,31,o),
(131,140,o),
(128,287,c),
(85,234,l),
(90,44,o),
(167,-12,o),
(305,-12,cs),
(433,-12,o),
(500,46,o),
(500,192,cs)
);
},
{
closed = 1;
nodes = (
(533,173,l),
(498,198,l),
(487,133,l),
(533,133,l)
);
}
);
width = 640;
},
{
anchors = (
{
name = bottom;
pos = (338,0);
},
{
name = ogonek;
pos = (636,12);
},
{
name = top;
pos = (338,564);
},
{
name = topright;
pos = (686,564);
}
);
guides = (
{
pos = (-28,528);
}
);
layerId = "B3961A9D-C6DC-4F74-9770-9C992C479D86";
shapes = (
{
closed = 1;
nodes = (
(386,-13,o),
(462,30,o),
(462,176,cs),
(462,284,l),
(462,140,o),
(421,106,o),
(329,106,cs),
(236,106,o),
(205,154,o),
(205,284,cs),
(205,634,l),
(59,634,l),
(59,229,ls),
(59,54,o),
(133,-13,o),
(271,-13,cs)
);
},
{
closed = 1;
nodes = (
(494,118,l),
(494,157,l),
(460,182,l),
(449,118,l)
);
},
{
closed = 1;
nodes = (
(608,0,l),
(608,634,l),
(462,634,l),
(462,176,l),
(462,0,l)
);
}
);
width = 677;
},
{
anchors = (
{
name = bottom;
pos = (293,0);
},
{
name = ogonek;
pos = (548,12);
},
{
name = top;
pos = (293,600);
},
{
name = topright;
pos = (588,600);
}
);
layerId = "0DC1F6FB-20EC-4E8F-AE98-F98B5FD714DE";
shapes = (
{
closed = 1;
nodes = (
(406,-12,o),
(473,46,o),
(473,192,cs),
(473,300,l),
(473,156,o),
(446,31,o),
(281,31,cs),
(112,31,o),
(103,140,o),
(101,287,cs),
(101,634,l),
(58,634,l),
(58,228,l),
(64,42,o),
(140,-12,o),
(277,-12,cs)
);
},
{
closed = 1;
nodes = (
(505,133,l),
(505,173,l),
(470,198,l),
(460,133,l)
);
},
{
closed = 1;
nodes = (
(516,0,l),
(516,634,l),
(473,634,l),
(473,192,l),
(473,0,l)
);
}
);
width = 584;
}
);
unicode = 117;
},
{
color = 10;
glyphname = v;
layers = (
{
anchors = (
{
name = bottom;
pos = (311,0);
},
{
name = top;
pos = (311,564);
}
);
layerId = "B3961A9D-C6DC-4F74-9770-9C992C479D86";
shapes = (
{
closed = 1;
nodes = (
(419,0,l),
(617,634,l),
(463,634,l),
(312,127,l),
(310,127,l),
(157,634,l),
(4,634,l),
(203,0,l)
);
}
);
width = 620;
},
{
anchors = (
{
name = bottom;
pos = (260,0);
},
{
name = top;
pos = (260,600);
}
);
layerId = "0DC1F6FB-20EC-4E8F-AE98-F98B5FD714DE";
shapes = (
{
closed = 1;
nodes = (
(288,0,l),
(518,634,l),
(473,634,l),
(262,43,l),
(259,43,l),
(47,634,l),
(1,632,l),
(233,0,l)
);
}
);
width = 520;
}
);
unicode = 118;
},
{
color = 10;
glyphname = w;
kernLeft = w;
kernRight = w;
layers = (
{
anchors = (
{
name = bottom;
pos = (490,0);
},
{
name = top;
pos = (490,564);
}
);
layerId = "B3961A9D-C6DC-4F74-9770-9C992C479D86";
shapes = (
{
closed = 1;
nodes = (
(366,0,l),
(487,494,l),
(492,494,l),
(613,0,l),
(816,0,l),
(971,634,l),
(820,634,l),
(707,132,l),
(702,132,l),
(582,634,l),
(397,634,l),
(277,132,l),
(272,132,l),
(160,634,l),
(8,634,l),
(163,0,l),
(163,0,l)
);
}
);
width = 979;
},
{
anchors = (
{
name = bottom;
pos = (379,0);
},
{
name = top;
pos = (379,600);
}
);
layerId = "0DC1F6FB-20EC-4E8F-AE98-F98B5FD714DE";
shapes = (
{
closed = 1;
nodes = (
(244,0,l),
(377,606,l),
(382,606,l),
(515,0,l),
(575,0,l),
(754,634,l),
(708,634,l),
(547,43,l),
(542,43,l),
(413,634,l),
(346,634,l),
(216,43,l),
(211,43,l),
(50,634,l),
(5,634,l),
(184,0,l),
(184,0,l)
);
}
);
width = 758;
}
);
unicode = 119;
},
{
color = 10;
glyphname = x;
layers = (
{
anchors = (
{
name = bottom;
pos = (312,0);
},
{
name = top;
pos = (312,564);
}
);
guides = (
{
pos = (-28,528);
}
);
layerId = "B3961A9D-C6DC-4F74-9770-9C992C479D86";
shapes = (
{
closed = 1;
nodes = (
(313,258,l),
(452,0,l),
(622,0,l),
(433,323,l),
(599,634,l),
(442,634,l),
(313,379,l),
(308,379,l),
(180,634,l),
(23,634,l),
(188,323,l),
(0,0,l),
(169,0,l),
(308,258,l),
(308,258,l)
);
}
);
width = 623;
},
{
anchors = (
{
name = bottom;
pos = (253,0);
},
{
name = top;
pos = (253,600);
}
);
guides = (
{
angle = 90;
pos = (28,0);
},
{
angle = 90;
pos = (396,0);
}
);
layerId = "0DC1F6FB-20EC-4E8F-AE98-F98B5FD714DE";
shapes = (
{
closed = 1;
nodes = (
(254,310,l),
(455,0,l),
(506,0,l),
(289,331,l),
(482,634,l),
(433,634,l),
(254,353,l),
(250,353,l),
(71,634,l),
(22,634,l),
(215,331,l),
(-2,0,l),
(49,0,l),
(250,310,l),
(250,310,l)
);
}
);
width = 505;
}
);
unicode = 120;
},
{
color = 10;
glyphname = y;
kernLeft = y;
kernRight = y;
layers = (
{
anchors = (
{
name = bottom;
pos = (326,0);
},
{
name = top;
pos = (326,564);
}
);
guides = (
{
pos = (-27,528);
}
);
layerId = "B3961A9D-C6DC-4F74-9770-9C992C479D86";
shapes = (
{
closed = 1;
nodes = (
(325,-341,l),
(656,634,l),
(502,634,l),
(359,208,l),
(348,208,l),
(158,634,l),
(-4,634,l),
(287,0,l),
(170,-341,l),
(170,-341,l)
);
}
);
width = 653;
},
{
anchors = (
{
name = bottom;
pos = (253,0);
},
{
name = top;
pos = (253,600);
}
);
layerId = "0DC1F6FB-20EC-4E8F-AE98-F98B5FD714DE";
shapes = (
{
closed = 1;
nodes = (
(143,-341,l),
(510,634,l),
(464,634,l),
(260,95,l),
(257,95,l),
(41,634,l),
(-6,634,l),
(239,32,l),
(97,-341,l),
(97,-341,l)
);
}
);
width = 505;
}
);
unicode = 121;
},
{
color = 10;
glyphname = z;
kernLeft = z;
kernRight = z;
layers = (
{
anchors = (
{
name = bottom;
pos = (282,0);
},
{
name = center;
pos = (282,282);
},
{
name = top;
pos = (282,564);
}
);
guides = (
{
pos = (-28,528);
},
{
angle = 90;
pos = (445,0);
},
{
angle = 90;
pos = (25,0);
}
);
layerId = "B3961A9D-C6DC-4F74-9770-9C992C479D86";
shapes = (
{
closed = 1;
nodes = (
(37,634,l),
(37,499,l),
(332,499,l),
(332,494,l),
(30,137,l),
(30,0,l),
(534,0,l),
(534,134,l),
(206,134,l),
(206,138,l),
(527,497,l),
(527,634,l),
(527,634,l)
);
}
);
width = 564;
},
{
anchors = (
{
name = bottom;
pos = (221,0);
},
{
name = center;
pos = (221,300);
},
{
name = top;
pos = (221,600);
}
);
guides = (
{
angle = 90;
pos = (17,0);
},
{
angle = 90;
pos = (360,0);
}
);
layerId = "0DC1F6FB-20EC-4E8F-AE98-F98B5FD714DE";
shapes = (
{
closed = 1;
nodes = (
(16,634,l),
(16,590,l),
(376,590,l),
(376,586,l),
(8,43,l),
(8,0,l),
(432,0,l),
(432,43,l),
(59,43,l),
(59,48,l),
(425,588,l),
(425,634,l),
(425,634,l)
);
}
);
width = 440;
}
);
unicode = 122;
},
{
color = 10;
glyphname = f_f;
layers = (
{
layerId = "B3961A9D-C6DC-4F74-9770-9C992C479D86";
shapes = (
{
closed = 1;
nodes = (
(152,0,l),
(299,0,l),
(299,634,l),
(152,634,l),
(152,634,l)
);
},
{
closed = 1;
nodes = (
(376,902,ls),
(211,906,o),
(152,856,o),
(152,654,cs),
(152,494,l),
(299,494,l),
(299,646,ls),
(299,755,o),
(305,763,o),
(414,763,cs),
(440,763,l),
(440,901,l),
(440,901,l)
);
},
{
closed = 1;
nodes = (
(37,620,l),
(37,498,l),
(440,498,l),
(440,620,l),
(440,620,l)
);
},
{
closed = 1;
nodes = (
(560,0,l),
(707,0,l),
(707,634,l),
(560,634,l),
(560,634,l)
);
},
{
closed = 1;
nodes = (
(784,902,ls),
(619,906,o),
(560,856,o),
(560,654,cs),
(560,494,l),
(707,494,l),
(707,646,ls),
(707,755,o),
(713,763,o),
(822,763,cs),
(848,763,l),
(848,901,l),
(848,901,l)
);
},
{
closed = 1;
nodes = (
(409,620,l),
(409,498,l),
(848,498,l),
(848,620,l),
(848,620,l)
);
}
);
width = 901;
},
{
layerId = "0DC1F6FB-20EC-4E8F-AE98-F98B5FD714DE";
shapes = (
{
closed = 1;
nodes = (
(134,0,l),
(178,0,l),
(178,634,l),
(134,634,l),
(134,634,l)
);
},
{
closed = 1;
nodes = (
(322,901,ls),
(173,901,o),
(134,859,o),
(134,702,cs),
(134,494,l),
(178,494,l),
(178,694,ls),
(178,784,o),
(169,864,o),
(311,859,cs),
(355,859,l),
(355,901,l),
(355,901,l)
);
},
{
closed = 1;
nodes = (
(19,636,l),
(19,598,l),
(355,598,l),
(355,636,l),
(355,636,l)
);
},
{
closed = 1;
nodes = (
(463,0,l),
(506,0,l),
(506,634,l),
(463,634,l),
(463,634,l)
);
},
{
closed = 1;
nodes = (
(650,901,ls),
(502,901,o),
(463,859,o),
(463,702,cs),
(463,494,l),
(506,494,l),
(506,694,ls),
(506,784,o),
(498,864,o),
(640,859,cs),
(684,859,l),
(684,901,l),
(684,901,l)
);
},
{
closed = 1;
nodes = (
(348,636,l),
(348,598,l),
(684,598,l),
(684,636,l),
(684,636,l)
);
}
);
width = 712;
}
);
},
{
color = 10;
glyphname = f_f_i;
layers = (
{
layerId = "B3961A9D-C6DC-4F74-9770-9C992C479D86";
shapes = (
{
closed = 1;
nodes = (
(152,0,l),
(299,0,l),
(299,634,l),
(152,634,l),
(152,634,l)
);
},
{
closed = 1;
nodes = (
(376,902,ls),
(211,906,o),
(152,856,o),
(152,654,cs),
(152,494,l),
(299,494,l),
(299,646,ls),
(299,755,o),
(305,763,o),
(414,763,cs),
(440,763,l),
(440,901,l),
(440,901,l)
);
},
{
closed = 1;
nodes = (
(37,620,l),
(37,498,l),
(440,498,l),
(440,620,l),
(440,620,l)
);
},
{
closed = 1;
nodes = (
(560,0,l),
(707,0,l),
(707,634,l),
(560,634,l),
(560,634,l)
);
},
{
closed = 1;
nodes = (
(784,902,ls),
(619,906,o),
(560,856,o),
(560,654,cs),
(560,494,l),
(707,494,l),
(707,646,ls),
(707,755,o),
(713,763,o),
(822,763,cs),
(848,763,l),
(848,901,l),
(848,901,l)
);
},
{
closed = 1;
nodes = (
(409,620,l),
(409,498,l),
(1093,498,l),
(1093,620,l),
(1093,620,l)
);
},
{
closed = 1;
nodes = (
(1093,0,l),
(1093,598,l),
(947,598,l),
(947,0,l),
(947,0,l)
);
}
);
width = 1174;
},
{
layerId = "0DC1F6FB-20EC-4E8F-AE98-F98B5FD714DE";
shapes = (
{
closed = 1;
nodes = (
(134,0,l),
(178,0,l),
(178,634,l),
(134,634,l),
(134,634,l)
);
},
{
closed = 1;
nodes = (
(322,901,ls),
(173,901,o),
(134,859,o),
(134,702,cs),
(134,494,l),
(178,494,l),
(178,694,ls),
(178,784,o),
(169,864,o),
(311,859,cs),
(355,859,l),
(355,901,l),
(355,901,l)
);
},
{
closed = 1;
nodes = (
(19,636,l),
(19,598,l),
(355,598,l),
(355,636,l),
(355,636,l)
);
},
{
closed = 1;
nodes = (
(463,0,l),
(506,0,l),
(506,634,l),
(463,634,l),
(463,634,l)
);
},
{
closed = 1;
nodes = (
(650,901,ls),
(502,901,o),
(463,859,o),
(463,702,cs),
(463,494,l),
(506,494,l),
(506,694,ls),
(506,784,o),
(498,864,o),
(640,859,cs),
(684,859,l),
(684,901,l),
(684,901,l)
);
},
{
closed = 1;
nodes = (
(348,636,l),
(348,598,l),
(821,598,l),
(821,636,l),
(821,636,l)
);
},
{
closed = 1;
nodes = (
(821,0,l),
(821,634,l),
(778,634,l),
(778,0,l),
(778,0,l)
);
}
);
width = 895;
}
);
},
{
color = 10;
glyphname = f_f_j;
layers = (
{
layerId = "B3961A9D-C6DC-4F74-9770-9C992C479D86";
shapes = (
{
closed = 1;
nodes = (
(119,0,l),
(265,0,l),
(265,634,l),
(119,634,l),
(119,634,l)
);
},
{
closed = 1;
nodes = (
(342,902,ls),
(178,906,o),
(119,856,o),
(119,654,cs),
(119,494,l),
(265,494,l),
(265,646,ls),
(265,755,o),
(271,763,o),
(380,763,cs),
(407,763,l),
(407,901,l),
(407,901,l)
);
},
{
closed = 1;
nodes = (
(4,620,l),
(4,498,l),
(407,498,l),
(407,620,l),
(407,620,l)
);
},
{
closed = 1;
nodes = (
(493,0,l),
(640,0,l),
(640,634,l),
(493,634,l),
(493,634,l)
);
},
{
closed = 1;
nodes = (
(716,902,ls),
(552,906,o),
(493,856,o),
(493,654,cs),
(493,494,l),
(640,494,l),
(640,646,ls),
(640,755,o),
(646,763,o),
(755,763,cs),
(781,763,l),
(781,901,l),
(781,901,l)
);
},
{
closed = 1;
nodes = (
(342,620,l),
(342,498,l),
(1014,498,l),
(1014,620,l),
(1014,620,l)
);
},
{
closed = 1;
nodes = (
(791,-245,ls),
(955,-245,o),
(1014,-198,o),
(1014,4,cs),
(1014,204,l),
(868,204,l),
(868,12,ls),
(868,-97,o),
(862,-106,o),
(752,-106,cs),
(726,-106,l),
(726,-245,l),
(726,-245,l)
);
},
{
closed = 1;
nodes = (
(1014,185,l),
(1014,598,l),
(868,598,l),
(868,185,l),
(868,185,l)
);
}
);
width = 1070;
},
{
layerId = "0DC1F6FB-20EC-4E8F-AE98-F98B5FD714DE";
shapes = (
{
closed = 1;
nodes = (
(110,0,l),
(154,0,l),
(154,634,l),
(110,634,l),
(110,634,l)
);
},
{
closed = 1;
nodes = (
(298,901,ls),
(149,901,o),
(110,859,o),
(110,702,cs),
(110,494,l),
(154,494,l),
(154,694,ls),
(154,784,o),
(145,864,o),
(287,859,cs),
(331,859,l),
(331,901,l),
(331,901,l)
);
},
{
closed = 1;
nodes = (
(-5,636,l),
(-5,598,l),
(331,598,l),
(331,636,l),
(331,636,l)
);
},
{
closed = 1;
nodes = (
(403,0,l),
(446,0,l),
(446,634,l),
(403,634,l),
(403,634,l)
);
},
{
closed = 1;
nodes = (
(590,901,ls),
(442,901,o),
(403,859,o),
(403,702,cs),
(403,494,l),
(446,494,l),
(446,694,ls),
(446,784,o),
(438,864,o),
(580,859,cs),
(624,859,l),
(624,901,l),
(624,901,l)
);
},
{
closed = 1;
nodes = (
(288,636,l),
(288,598,l),
(739,598,l),
(739,636,l),
(739,636,l)
);
},
{
closed = 1;
nodes = (
(636,-101,ls),
(686,-101,o),
(739,-91,o),
(739,-17,cs),
(739,204,l),
(696,204,l),
(696,19,ls),
(696,-44,o),
(690,-55,o),
(636,-58,cs),
(604,-58,l),
(604,-101,l),
(604,-101,l)
);
},
{
closed = 1;
nodes = (
(739,198,l),
(739,634,l),
(696,634,l),
(696,198,l),
(696,198,l)
);
}
);
width = 794;
}
);
metricLeft = f;
metricRight = j;
},
{
color = 10;
glyphname = f_f_l;
layers = (
{
layerId = "B3961A9D-C6DC-4F74-9770-9C992C479D86";
shapes = (
{
closed = 1;
nodes = (
(152,0,l),
(299,0,l),
(299,634,l),
(152,634,l),
(152,634,l)
);
},
{
closed = 1;
nodes = (
(376,902,ls),
(211,906,o),
(152,856,o),
(152,654,cs),
(152,494,l),
(299,494,l),
(299,646,ls),
(299,755,o),
(305,763,o),
(414,763,cs),
(440,763,l),
(440,901,l),
(440,901,l)
);
},
{
closed = 1;
nodes = (
(37,620,l),
(37,498,l),
(440,498,l),
(440,620,l),
(440,620,l)
);
},
{
closed = 1;
nodes = (
(560,0,l),
(707,0,l),
(707,634,l),
(560,634,l),
(560,634,l)
);
},
{
closed = 1;
nodes = (
(619,906,o),
(560,856,o),
(560,654,cs),
(560,494,l),
(707,494,l),
(707,646,ls),
(707,755,o),
(713,763,o),
(822,763,cs),
(922,763,o),
(1009,749,o),
(1093,733,c),
(1093,870,l),
(1049,878,o),
(901,902,o),
(784,902,cs)
);
},
{
closed = 1;
nodes = (
(409,620,l),
(409,498,l),
(1093,498,l),
(1093,620,l),
(1093,620,l)
);
},
{
closed = 1;
nodes = (
(1093,0,l),
(1093,780,l),
(947,780,l),
(947,0,l),
(947,0,l)
);
}
);
width = 1195;
},
{
layerId = "0DC1F6FB-20EC-4E8F-AE98-F98B5FD714DE";
shapes = (
{
closed = 1;
nodes = (
(134,0,l),
(178,0,l),
(178,634,l),
(134,634,l),
(134,634,l)
);
},
{
closed = 1;
nodes = (
(322,901,ls),
(173,901,o),
(134,859,o),
(134,702,cs),
(134,494,l),
(178,494,l),
(178,694,ls),
(178,784,o),
(169,864,o),
(311,859,cs),
(355,859,l),
(355,901,l),
(355,901,l)
);
},
{
closed = 1;
nodes = (
(19,636,l),
(19,598,l),
(355,598,l),
(355,636,l),
(355,636,l)
);
},
{
closed = 1;
nodes = (
(463,0,l),
(506,0,l),
(506,634,l),
(463,634,l),
(463,634,l)
);
},
{
closed = 1;
nodes = (
(502,901,o),
(463,859,o),
(463,702,cs),
(463,494,l),
(506,494,l),
(506,694,ls),
(506,784,o),
(498,864,o),
(640,859,cs),
(721,859,o),
(786,844,o),
(821,833,c),
(821,877,l),
(764,890,o),
(721,899,o),
(650,901,cs)
);
},
{
closed = 1;
nodes = (
(348,636,l),
(348,598,l),
(821,598,l),
(821,636,l),
(821,636,l)
);
},
{
closed = 1;
nodes = (
(821,0,l),
(821,851,l),
(778,851,l),
(778,0,l),
(778,0,l)
);
}
);
width = 917;
}
);
},
{
color = 10;
glyphname = f_j;
layers = (
{
layerId = "B3961A9D-C6DC-4F74-9770-9C992C479D86";
shapes = (
{
closed = 1;
nodes = (
(119,0,l),
(265,0,l),
(265,634,l),
(119,634,l),
(119,634,l)
);
},
{
closed = 1;
nodes = (
(342,902,ls),
(178,906,o),
(119,856,o),
(119,654,cs),
(119,494,l),
(265,494,l),
(265,646,ls),
(265,755,o),
(271,763,o),
(380,763,cs),
(407,763,l),
(407,901,l),
(407,901,l)
);
},
{
closed = 1;
nodes = (
(4,620,l),
(4,498,l),
(640,498,l),
(640,620,l),
(640,620,l)
);
},
{
closed = 1;
nodes = (
(416,-245,ls),
(581,-245,o),
(640,-198,o),
(640,4,cs),
(640,204,l),
(493,204,l),
(493,12,ls),
(493,-97,o),
(487,-106,o),
(378,-106,cs),
(352,-106,l),
(352,-245,l),
(352,-245,l)
);
},
{
closed = 1;
nodes = (
(640,185,l),
(640,598,l),
(493,598,l),
(493,185,l),
(493,185,l)
);
}
);
width = 696;
},
{
layerId = "0DC1F6FB-20EC-4E8F-AE98-F98B5FD714DE";
shapes = (
{
closed = 1;
nodes = (
(110,0,l),
(154,0,l),
(154,634,l),
(110,634,l),
(110,634,l)
);
},
{
closed = 1;
nodes = (
(298,901,ls),
(149,901,o),
(110,859,o),
(110,702,cs),
(110,494,l),
(154,494,l),
(154,694,ls),
(154,784,o),
(145,864,o),
(287,859,cs),
(331,859,l),
(331,901,l),
(331,901,l)
);
},
{
closed = 1;
nodes = (
(-5,636,l),
(-5,598,l),
(446,598,l),
(446,636,l),
(446,636,l)
);
},
{
closed = 1;
nodes = (
(343,-101,ls),
(394,-101,o),
(446,-91,o),
(446,-17,cs),
(446,204,l),
(403,204,l),
(403,19,ls),
(403,-44,o),
(397,-55,o),
(343,-58,cs),
(311,-58,l),
(311,-101,l),
(311,-101,l)
);
},
{
closed = 1;
nodes = (
(446,198,l),
(446,634,l),
(403,634,l),
(403,198,l),
(403,198,l)
);
}
);
width = 502;
}
);
metricLeft = f;
metricRight = j;
},
{
color = 10;
glyphname = fi;
layers = (
{
layerId = "B3961A9D-C6DC-4F74-9770-9C992C479D86";
shapes = (
{
closed = 1;
nodes = (
(119,0,l),
(265,0,l),
(265,634,l),
(119,634,l),
(119,634,l)
);
},
{
closed = 1;
nodes = (
(342,902,ls),
(178,906,o),
(119,856,o),
(119,654,cs),
(119,494,l),
(265,494,l),
(265,646,ls),
(265,755,o),
(271,763,o),
(380,763,cs),
(407,763,l),
(407,901,l),
(407,901,l)
);
},
{
closed = 1;
nodes = (
(4,620,l),
(4,498,l),
(628,498,l),
(628,620,l),
(628,620,l)
);
},
{
closed = 1;
nodes = (
(628,0,l),
(628,598,l),
(481,598,l),
(481,0,l),
(481,0,l)
);
}
);
width = 688;
},
{
layerId = "0DC1F6FB-20EC-4E8F-AE98-F98B5FD714DE";
shapes = (
{
closed = 1;
nodes = (
(110,0,l),
(154,0,l),
(154,634,l),
(110,634,l),
(110,634,l)
);
},
{
closed = 1;
nodes = (
(298,901,ls),
(149,901,o),
(110,859,o),
(110,702,cs),
(110,494,l),
(154,494,l),
(154,694,ls),
(154,784,o),
(145,864,o),
(287,859,cs),
(331,859,l),
(331,901,l),
(331,901,l)
);
},
{
closed = 1;
nodes = (
(-5,636,l),
(-5,598,l),
(446,598,l),
(446,636,l),
(446,636,l)
);
},
{
closed = 1;
nodes = (
(446,0,l),
(446,634,l),
(403,634,l),
(403,0,l),
(403,0,l)
);
}
);
width = 503;
}
);
metricLeft = f;
metricRight = i;
unicode = 64257;
},
{
color = 10;
glyphname = fl;
layers = (
{
layerId = "B3961A9D-C6DC-4F74-9770-9C992C479D86";
shapes = (
{
closed = 1;
nodes = (
(155,0,l),
(301,0,l),
(301,634,l),
(155,634,l),
(155,634,l)
);
},
{
closed = 1;
nodes = (
(214,906,o),
(155,856,o),
(155,654,cs),
(155,494,l),
(301,494,l),
(301,646,ls),
(301,755,o),
(307,763,o),
(416,763,cs),
(516,763,o),
(587,749,o),
(671,733,c),
(671,870,l),
(626,878,o),
(496,902,o),
(378,902,cs)
);
},
{
closed = 1;
nodes = (
(4,620,l),
(4,498,l),
(671,498,l),
(671,620,l),
(671,620,l)
);
},
{
closed = 1;
nodes = (
(671,0,l),
(671,780,l),
(524,780,l),
(524,0,l),
(524,0,l)
);
}
);
width = 740;
},
{
layerId = "0DC1F6FB-20EC-4E8F-AE98-F98B5FD714DE";
shapes = (
{
closed = 1;
nodes = (
(110,0,l),
(154,0,l),
(154,634,l),
(110,634,l),
(110,634,l)
);
},
{
closed = 1;
nodes = (
(154,901,o),
(110,859,o),
(110,702,cs),
(110,494,l),
(154,494,l),
(154,694,ls),
(154,784,o),
(152,864,o),
(287,859,cs),
(368,857,o),
(412,844,o),
(446,833,c),
(446,877,l),
(390,890,o),
(368,899,o),
(298,901,cs)
);
},
{
closed = 1;
nodes = (
(-5,636,l),
(-5,598,l),
(432,598,l),
(432,636,l),
(432,636,l)
);
},
{
closed = 1;
nodes = (
(446,0,l),
(446,851,l),
(403,851,l),
(403,0,l),
(403,0,l)
);
}
);
width = 516;
}
);
metricLeft = f;
metricRight = l;
unicode = 64258;
},
{
color = 10;
glyphname = "p_la-deva-loclMAR";
kernLeft = vowelI.dv;
layers = (
{
anchors = (
{
name = bottom;
pos = (625,-299);
},
{
name = top;
pos = (547,841);
}
);
layerId = "B3961A9D-C6DC-4F74-9770-9C992C479D86";
shapes = (
{
closed = 1;
nodes = (
(583,107,l),
(583,710,l),
(827,710,l),
(827,841,l),
(-101,841,l),
(-101,710,l),
(67,710,l),
(67,467,ls),
(67,311,o),
(152,260,o),
(275,262,cs),
(337,262,o),
(396,280,o),
(418,325,c),
(418,325,o),
(419,325,o),
(420,325,c),
(420,107,l),
(420,107,l)
);
},
{
closed = 1;
nodes = (
(229,710,l),
(420,710,l),
(420,516,ls),
(420,425,o),
(386,392,o),
(322,391,cs),
(286,390,o),
(229,389,o),
(229,485,cs)
);
},
{
closed = 1;
nodes = (
(232,-304,l),
(190,-121,ls),
(155,31,o),
(194,41,o),
(242,44,c),
(298,44,o),
(310,10,o),
(310,-34,cs),
(310,-170,l),
(449,-170,l),
(449,-34,ls),
(449,10,o),
(461,44,o),
(516,44,c),
(564,41,o),
(604,31,o),
(569,-121,cs),
(527,-304,l),
(694,-304,l),
(738,-97,o),
(695,-304,o),
(738,-97,cs),
(781,107,o),
(674,172,o),
(554,176,cs),
(433,181,o),
(400,139,o),
(382,107,c),
(377,107,l),
(353,145,o),
(305,176,o),
(224,176,cs),
(61,176,o),
(-18,83,o),
(20,-97,cs),
(65,-304,l),
(65,-304,l)
);
}
);
width = 682;
},
{
anchors = (
{
name = bottom;
pos = (586,-319);
},
{
name = top;
pos = (499,840);
}
);
layerId = "0DC1F6FB-20EC-4E8F-AE98-F98B5FD714DE";
shapes = (
{
closed = 1;
nodes = (
(515,145,l),
(515,797,l),
(742,797,l),
(742,840,l),
(-44,840,l),
(-44,797,l),
(74,797,l),
(74,451,ls),
(74,312,o),
(168,263,o),
(292,263,cs),
(324,263,o),
(439,278,o),
(469,355,c),
(470,355,o),
(472,355,o),
(473,355,c),
(473,145,l),
(473,145,l)
);
},
{
closed = 1;
nodes = (
(116,797,l),
(473,797,l),
(473,496,ls),
(473,355,o),
(390,302,o),
(296,301,cs),
(227,299,o),
(116,316,o),
(116,462,cs)
);
},
{
closed = 1;
nodes = (
(164,-313,l),
(119,-128,ls),
(85,6,o),
(73,125,o),
(224,125,cs),
(347,125,o),
(344,16,o),
(344,-2,cs),
(344,-156,l),
(383,-156,l),
(383,-2,ls),
(383,16,o),
(380,125,o),
(503,125,cs),
(654,125,o),
(641,2,o),
(608,-128,cs),
(563,-313,l),
(606,-313,l),
(622,-252,o),
(636,-190,o),
(652,-128,cs),
(690,31,o),
(690,160,o),
(508,167,cs),
(421,167,o),
(382,136,o),
(365,95,c),
(362,95,l),
(344,140,o),
(295,168,o),
(224,167,cs),
(43,164,o),
(32,48,o),
(76,-128,cs),
(121,-313,l),
(121,-313,l)
);
}
);
width = 625;
}
);
},
{
color = 10;
glyphname = s_t;
layers = (
{
layerId = "B3961A9D-C6DC-4F74-9770-9C992C479D86";
shapes = (
{
closed = 1;
nodes = (
(996,0,l),
(996,139,l),
(970,139,ls),
(860,139,o),
(854,148,o),
(854,257,cs),
(854,449,l),
(708,449,l),
(708,248,ls),
(708,47,o),
(767,0,o),
(931,0,cs)
);
},
{
closed = 1;
nodes = (
(854,268,l),
(854,716,ls),
(854,844,o),
(841,964,o),
(593,964,cs),
(328,964,o),
(362,692,o),
(364,592,c),
(484,582,l),
(484,695,o),
(469,844,o),
(592,844,cs),
(700,844,o),
(708,786,o),
(708,708,cs),
(708,268,l),
(708,268,l)
);
},
{
closed = 1;
nodes = (
(996,498,l),
(996,620,l),
(593,620,l),
(593,498,l),
(593,498,l)
);
},
{
closed = 1;
nodes = (
(401,-10,o),
(500,29,o),
(500,162,cs),
(500,298,o),
(426,325,o),
(316,355,cs),
(204,385,o),
(174,401,o),
(175,460,cs),
(176,511,o),
(215,527,o),
(283,527,cs),
(341,527,o),
(427,510,o),
(484,491,c),
(484,602,l),
(414,630,o),
(350,640,o),
(280,642,cs),
(137,647,o),
(31,595,o),
(31,469,cs),
(31,364,o),
(54,294,o),
(274,244,cs),
(320,233,o),
(356,214,o),
(355,163,cs),
(354,118,o),
(331,95,o),
(253,98,cs),
(186,101,o),
(121,114,o),
(53,134,c),
(53,22,l),
(119,4,o),
(194,-10,o),
(262,-10,cs)
);
}
);
width = 1018;
},
{
layerId = "0DC1F6FB-20EC-4E8F-AE98-F98B5FD714DE";
shapes = (
{
closed = 1;
nodes = (
(866,0,l),
(866,42,l),
(817,42,ls),
(706,42,o),
(709,118,o),
(709,208,cs),
(709,407,l),
(666,407,l),
(666,186,ls),
(666,61,o),
(685,0,o),
(828,0,cs)
);
},
{
closed = 1;
nodes = (
(709,268,l),
(709,716,ls),
(709,844,o),
(655,892,o),
(541,893,cs),
(367,893,o),
(382,716,o),
(383,616,c),
(424,606,l),
(424,719,o),
(419,851,o),
(541,851,cs),
(649,851,o),
(666,786,o),
(666,708,cs),
(666,268,l),
(666,268,l)
);
},
{
closed = 1;
nodes = (
(866,598,l),
(866,636,l),
(530,636,l),
(530,598,l),
(530,598,l)
);
},
{
closed = 1;
nodes = (
(346,-10,o),
(442,30,o),
(448,154,cs),
(454,271,o),
(361,307,o),
(251,337,cs),
(139,367,o),
(66,391,o),
(67,486,cs),
(68,550,o),
(120,606,o),
(251,602,cs),
(312,601,o),
(365,593,o),
(424,570,c),
(424,614,l),
(382,630,o),
(325,644,o),
(252,646,cs),
(124,648,o),
(28,600,o),
(24,490,cs),
(22,415,o),
(40,342,o),
(241,295,cs),
(288,284,o),
(416,250,o),
(404,152,cs),
(398,107,o),
(374,26,o),
(198,34,cs),
(143,36,o),
(88,43,o),
(30,58,c),
(30,12,l),
(86,-1,o),
(142,-10,o),
(197,-10,cs)
);
}
);
width = 871;
}
);
metricLeft = s;
metricRight = t;
},
{
color = 6;
glyphname = pi;
layers = (
{
guides = (
{
pos = (-28,528);
}
);
layerId = "B3961A9D-C6DC-4F74-9770-9C992C479D86";
shapes = (
{
closed = 1;
nodes = (
(118,0,l),
(264,0,l),
(264,622,l),
(118,622,l),
(118,622,l)
);
},
{
closed = 1;
nodes = (
(8,634,l),
(8,497,l),
(728,497,l),
(728,634,l),
(728,634,l)
);
},
{
closed = 1;
nodes = (
(473,131,ls),
(473,36,o),
(487,0,o),
(575,0,cs),
(676,0,l),
(676,127,l),
(619,127,l),
(619,622,l),
(473,622,l),
(473,622,l)
);
}
);
width = 744;
},
{
guides = (
{
pos = (-20,528);
}
);
layerId = "0DC1F6FB-20EC-4E8F-AE98-F98B5FD714DE";
shapes = (
{
closed = 1;
nodes = (
(104,0,l),
(148,0,l),
(148,622,l),
(104,622,l),
(104,622,l)
);
},
{
closed = 1;
nodes = (
(-5,634,l),
(-5,590,l),
(648,590,l),
(648,634,l),
(648,634,l)
);
},
{
closed = 1;
nodes = (
(496,43,ls),
(496,16,o),
(504,0,o),
(539,0,cs),
(595,0,l),
(595,43,l),
(539,43,l),
(539,622,l),
(496,622,l),
(496,622,l)
);
}
);
width = 647;
}
);
unicode = 960;
},
{
color = 9;
glyphname = "a-deva";
kernLeft = vowelShortA.dv;
kernRight = Chandrabindu.dv;
layers = (
{
anchors = (
{
name = bottom;
pos = (779,0);
},
{
name = candra;
pos = (404,954);
},
{
name = nukta;
pos = (272,0);
},
{
name = top;
pos = (821,841);
}
);
guides = (
{
angle = 90;
pos = (125,0);
},
{
pos = (0,14);
}
);
layerId = "B3961A9D-C6DC-4F74-9770-9C992C479D86";
shapes = (
{
closed = 1;
nodes = (
(113,694,l),
(160,708,o),
(210,713,o),
(239,713,cs),
(312,713,o),
(340,697,o),
(341,655,cs),
(342,589,ls),
(342,565,o),
(344,528,o),
(304,528,cs),
(157,528,l),
(157,406,l),
(304,406,ls),
(335,406,o),
(354,395,o),
(354,360,cs),
(354,287,ls),
(354,209,o),
(300,200,o),
(257,200,cs),
(230,200,o),
(174,203,o),
(95,246,c),
(35,132,l),
(103,89,o),
(180,68,o),
(258,65,cs),
(443,58,o),
(516,126,o),
(516,269,cs),
(516,295,ls),
(516,334,o),
(516,348,o),
(493,367,c),
(494,372,l),
(539,372,o),
(607,372,o),
(684,372,c),
(684,0,l),
(847,0,l),
(847,710,l),
(976,710,l),
(976,841,l),
(684,841,l),
(684,486,l),
(458,486,l),
(458,491,l),
(499,505,o),
(503,540,o),
(503,578,cs),
(503,680,ls),
(503,829,o),
(380,856,o),
(259,856,cs),
(202,856,o),
(158,852,o),
(78,824,c)
);
}
);
width = 940;
},
{
anchors = (
{
name = bottom;
pos = (624,0);
},
{
name = candra;
pos = (482,840);
},
{
name = nukta;
pos = (198,0);
},
{
name = top;
pos = (631,839);
}
);
guides = (
{
angle = 90;
pos = (47,0);
},
{
pos = (0,6);
},
{
pos = (0,11);
}
);
layerId = "0DC1F6FB-20EC-4E8F-AE98-F98B5FD714DE";
shapes = (
{
closed = 1;
nodes = (
(66,772,l),
(115,793,o),
(192,802,o),
(233,802,cs),
(311,802,o),
(361,780,o),
(362,707,cs),
(364,602,ls),
(364,571,o),
(364,486,o),
(236,486,cs),
(103,486,l),
(103,444,l),
(236,444,ls),
(292,444,o),
(378,437,o),
(378,328,cs),
(378,257,ls),
(378,176,o),
(332,106,o),
(198,106,cs),
(142,106,o),
(96,118,o),
(41,142,c),
(24,101,l),
(74,79,o),
(114,66,o),
(198,62,cs),
(304,62,o),
(420,104,o),
(420,257,cs),
(420,340,ls),
(420,370,o),
(416,401,o),
(390,421,c),
(391,425,l),
(454,425,o),
(569,425,o),
(601,425,c),
(601,0,l),
(644,0,l),
(644,797,l),
(775,797,l),
(775,840,l),
(601,840,l),
(601,468,l),
(338,468,l),
(338,472,l),
(372,481,o),
(407,510,o),
(407,583,cs),
(407,707,ls),
(407,794,o),
(362,846,o),
(233,846,cs),
(170,846,o),
(122,839,o),
(61,817,c)
);
}
);
width = 739;
}
);
unicode = 2309;
},
{
color = 9;
glyphname = "aCandra-deva";
kernLeft = vowelShortA.dv;
kernRight = Chandrabindu.dv;
layers = (
{
anchors = (
{
name = bottom;
pos = (779,0);
},
{
name = candra;
pos = (404,954);
},
{
name = nukta;
pos = (272,0);
},
{
name = top;
pos = (821,841);
}
);
guides = (
{
pos = (0,14);
},
{
pos = (0,775);
}
);
layerId = "B3961A9D-C6DC-4F74-9770-9C992C479D86";
shapes = (
{
closed = 1;
nodes = (
(932,1176,l),
(931,1115,o),
(896,1069,o),
(832,1069,cs),
(773,1069,ls),
(708,1069,o),
(674,1116,o),
(672,1176,c),
(533,1169,l),
(539,1049,o),
(596,930,o),
(761,930,cs),
(844,930,ls),
(1002,930,o),
(1067,1042,o),
(1072,1169,c)
);
},
{
closed = 1;
nodes = (
(113,694,l),
(160,708,o),
(210,713,o),
(239,713,cs),
(312,713,o),
(340,697,o),
(341,655,cs),
(342,589,ls),
(342,565,o),
(344,528,o),
(304,528,cs),
(157,528,l),
(157,406,l),
(304,406,ls),
(335,406,o),
(354,395,o),
(354,360,cs),
(354,287,ls),
(354,209,o),
(300,200,o),
(257,200,cs),
(230,200,o),
(174,203,o),
(95,246,c),
(35,132,l),
(103,89,o),
(180,68,o),
(258,65,cs),
(443,58,o),
(516,126,o),
(516,269,cs),
(516,295,ls),
(516,334,o),
(516,348,o),
(493,367,c),
(494,372,l),
(539,372,o),
(607,372,o),
(684,372,c),
(684,0,l),
(847,0,l),
(847,710,l),
(976,710,l),
(976,841,l),
(684,841,l),
(684,486,l),
(458,486,l),
(458,491,l),
(499,505,o),
(503,540,o),
(503,578,cs),
(503,680,ls),
(503,829,o),
(380,856,o),
(259,856,cs),
(202,856,o),
(158,852,o),
(78,824,c)
);
}
);
width = 940;
},
{
anchors = (
{
name = bottom;
pos = (624,0);
},
{
name = candra;
pos = (482,840);
},
{
name = nukta;
pos = (198,0);
},
{
name = top;
pos = (631,839);
}
);
layerId = "0DC1F6FB-20EC-4E8F-AE98-F98B5FD714DE";
shapes = (
{
closed = 1;
nodes = (
(779,1098,l),
(779,998,o),
(737,960,o),
(646,960,cs),
(631,960,ls),
(540,960,o),
(500,998,o),
(498,1098,c),
(455,1091,l),
(461,1026,o),
(468,917,o),
(631,917,cs),
(646,917,ls),
(805,917,o),
(816,1019,o),
(822,1091,c)
);
},
{
closed = 1;
nodes = (
(66,772,l),
(115,793,o),
(192,802,o),
(233,802,cs),
(311,802,o),
(361,780,o),
(362,707,cs),
(364,602,ls),
(364,571,o),
(364,486,o),
(236,486,cs),
(103,486,l),
(103,444,l),
(236,444,ls),
(292,444,o),
(378,437,o),
(378,328,cs),
(378,257,ls),
(378,176,o),
(332,106,o),
(198,106,cs),
(142,106,o),
(96,118,o),
(41,142,c),
(24,101,l),
(74,79,o),
(114,66,o),
(198,62,cs),
(304,62,o),
(420,104,o),
(420,257,cs),
(420,340,ls),
(420,370,o),
(416,401,o),
(390,421,c),
(391,425,l),
(454,425,o),
(569,425,o),
(601,425,c),
(601,0,l),
(644,0,l),
(644,797,l),
(775,797,l),
(775,840,l),
(601,840,l),
(601,468,l),
(338,468,l),
(338,472,l),
(372,481,o),
(407,510,o),
(407,583,cs),
(407,707,ls),
(407,794,o),
(362,846,o),
(233,846,cs),
(170,846,o),
(122,839,o),
(61,817,c)
);
}
);
width = 739;
}
);
unicode = 2418;
},
{
color = 9;
glyphname = "aShort-deva";
kernLeft = vowelShortA.dv;
kernRight = Chandrabindu.dv;
layers = (
{
anchors = (
{
name = bottom;
pos = (779,0);
},
{
name = candra;
pos = (404,954);
},
{
name = nukta;
pos = (272,0);
},
{
name = top;
pos = (821,841);
}
);
guides = (
{
pos = (0,14);
}
);
layerId = "B3961A9D-C6DC-4F74-9770-9C992C479D86";
shapes = (
{
closed = 1;
nodes = (
(845,833,l),
(845,848,ls),
(836,1021,o),
(746,1070,o),
(601,1096,cs),
(475,1117,o),
(450,1164,o),
(449,1225,c),
(287,1225,l),
(295,1044,o),
(386,985,o),
(532,962,cs),
(662,942,o),
(683,894,o),
(684,833,c)
);
},
{
closed = 1;
nodes = (
(113,694,l),
(160,708,o),
(210,713,o),
(239,713,cs),
(312,713,o),
(340,697,o),
(341,655,cs),
(342,589,ls),
(342,565,o),
(344,528,o),
(304,528,cs),
(157,528,l),
(157,406,l),
(304,406,ls),
(335,406,o),
(354,395,o),
(354,360,cs),
(354,287,ls),
(354,209,o),
(300,200,o),
(257,200,cs),
(230,200,o),
(174,203,o),
(95,246,c),
(35,132,l),
(103,89,o),
(180,68,o),
(258,65,cs),
(443,58,o),
(516,126,o),
(516,269,cs),
(516,295,ls),
(516,334,o),
(516,348,o),
(493,367,c),
(494,372,l),
(539,372,o),
(607,372,o),
(684,372,c),
(684,0,l),
(847,0,l),
(847,710,l),
(976,710,l),
(976,841,l),
(684,841,l),
(684,486,l),
(458,486,l),
(458,491,l),
(499,505,o),
(503,540,o),
(503,578,cs),
(503,680,ls),
(503,829,o),
(380,856,o),
(259,856,cs),
(202,856,o),
(158,852,o),
(78,824,c)
);
}
);
width = 940;
},
{
anchors = (
{
name = bottom;
pos = (624,0);
},
{
name = candra;
pos = (482,840);
},
{
name = nukta;
pos = (198,0);
},
{
name = top;
pos = (631,839);
}
);
layerId = "0DC1F6FB-20EC-4E8F-AE98-F98B5FD714DE";
shapes = (
{
closed = 1;
nodes = (
(644,838,l),
(644,850,ls),
(644,952,o),
(563,979,o),
(442,1004,cs),
(316,1031,o),
(320,1049,o),
(313,1110,c),
(271,1110,l),
(280,997,o),
(323,983,o),
(444,960,cs),
(575,936,o),
(600,899,o),
(601,838,c)
);
},
{
closed = 1;
nodes = (
(66,772,l),
(115,793,o),
(192,802,o),
(233,802,cs),
(311,802,o),
(361,780,o),
(362,707,cs),
(364,602,ls),
(364,571,o),
(364,486,o),
(236,486,cs),
(103,486,l),
(103,444,l),
(236,444,ls),
(292,444,o),
(378,437,o),
(378,328,cs),
(378,257,ls),
(378,176,o),
(332,106,o),
(198,106,cs),
(142,106,o),
(96,118,o),
(41,142,c),
(24,101,l),
(74,79,o),
(114,66,o),
(198,62,cs),
(304,62,o),
(420,104,o),
(420,257,cs),
(420,340,ls),
(420,370,o),
(416,401,o),
(390,421,c),
(391,425,l),
(454,425,o),
(569,425,o),
(601,425,c),
(601,0,l),
(644,0,l),
(644,797,l),
(775,797,l),
(775,840,l),
(601,840,l),
(601,468,l),
(338,468,l),
(338,472,l),
(372,481,o),
(407,510,o),
(407,583,cs),
(407,707,ls),
(407,794,o),
(362,846,o),
(233,846,cs),
(170,846,o),
(122,839,o),
(61,817,c)
);
}
);
width = 739;
}
);
unicode = 2308;
},
{
color = 9;
glyphname = "aa-deva";
kernLeft = vowelShortA.dv;
kernRight = Chandrabindu.dv;
layers = (
{
anchors = (
{
name = bottom;
pos = (779,0);
},
{
name = candra;
pos = (404,954);
},
{
name = nukta;
pos = (272,0);
},
{
name = top;
pos = (821,841);
}
);
guides = (
{
pos = (0,14);
}
);
layerId = "B3961A9D-C6DC-4F74-9770-9C992C479D86";
shapes = (
{
closed = 1;
nodes = (
(847,0,l),
(847,710,l),
(1063,710,l),
(1063,0,l),
(1226,0,l),
(1226,710,l),
(1355,710,l),
(1355,841,l),
(684,841,l),
(684,486,l),
(458,486,l),
(458,491,l),
(499,505,o),
(503,540,o),
(503,578,cs),
(503,680,ls),
(503,829,o),
(380,856,o),
(259,856,cs),
(202,856,o),
(158,852,o),
(78,824,c),
(113,694,l),
(160,708,o),
(210,713,o),
(239,713,cs),
(312,713,o),
(340,697,o),
(341,655,cs),
(342,589,ls),
(342,565,o),
(344,528,o),
(304,528,cs),
(205,528,l),
(205,406,l),
(304,406,ls),
(335,406,o),
(354,395,o),
(354,360,cs),
(354,287,ls),
(354,209,o),
(300,200,o),
(257,200,cs),
(230,200,o),
(174,203,o),
(95,246,c),
(35,132,l),
(103,89,o),
(180,68,o),
(258,65,cs),
(443,58,o),
(516,126,o),
(516,269,cs),
(516,295,ls),
(516,334,o),
(516,348,o),
(493,367,c),
(494,372,l),
(684,372,l),
(684,0,l)
);
}
);
width = 1319;
},
{
anchors = (
{
name = bottom;
pos = (866,0);
},
{
name = candra;
pos = (816,840);
},
{
name = nukta;
pos = (198,0);
},
{
name = top;
pos = (871,839);
}
);
guides = (
{
pos = (0,6);
}
);
layerId = "0DC1F6FB-20EC-4E8F-AE98-F98B5FD714DE";
shapes = (
{
closed = 1;
nodes = (
(644,0,l),
(644,797,l),
(844,797,l),
(844,0,l),
(887,0,l),
(887,797,l),
(1018,797,l),
(1018,840,l),
(601,840,l),
(601,468,l),
(338,468,l),
(338,472,l),
(372,481,o),
(407,510,o),
(407,583,cs),
(407,707,ls),
(407,794,o),
(362,846,o),
(233,846,cs),
(170,846,o),
(122,839,o),
(61,817,c),
(66,772,l),
(115,793,o),
(192,802,o),
(233,802,cs),
(311,802,o),
(361,780,o),
(362,707,cs),
(364,602,ls),
(364,571,o),
(364,486,o),
(236,486,cs),
(103,486,l),
(103,444,l),
(236,444,ls),
(292,444,o),
(378,437,o),
(378,328,cs),
(378,257,ls),
(378,176,o),
(332,106,o),
(198,106,cs),
(142,106,o),
(96,118,o),
(41,142,c),
(24,101,l),
(74,79,o),
(114,66,o),
(198,62,cs),
(304,62,o),
(420,104,o),
(420,257,cs),
(420,340,ls),
(420,370,o),
(416,401,o),
(390,421,c),
(391,425,l),
(601,425,l),
(601,0,l)
);
}
);
width = 982;
}
);
unicode = 2310;
},
{
color = 9;
glyphname = "i-deva";
kernLeft = vowelI.dv;
kernRight = Chandrabindu.dv;
layers = (
{
anchors = (
{
name = bottom;
pos = (278,-103);
},
{
name = candra;
pos = (301,1356);
},
{
name = nukta;
pos = (8,-54);
},
{
name = top;
pos = (476,841);
}
);
guides = (
{
angle = 90;
pos = (531,592);
},
{
angle = 90;
pos = (-30,592);
}
);
layerId = "B3961A9D-C6DC-4F74-9770-9C992C479D86";
shapes = (
{
closed = 1;
nodes = (
(179,-220,o),
(234,-211,o),
(289,-203,c),
(276,-134,o),
(263,-66,o),
(250,2,c),
(270,-4,o),
(308,-10,o),
(330,-10,cs),
(412,-10,o),
(558,2,o),
(558,172,cs),
(558,190,ls),
(558,234,o),
(553,323,o),
(364,346,cs),
(208,365,o),
(210,382,o),
(210,425,cs),
(210,436,ls),
(214,468,o),
(236,470,o),
(268,469,cs),
(504,469,l),
(504,710,l),
(637,710,l),
(637,841,l),
(-36,841,l),
(-36,710,l),
(341,710,l),
(341,602,l),
(238,602,ls),
(133,602,o),
(56,564,o),
(56,464,cs),
(56,414,ls),
(53,280,o),
(182,257,o),
(294,235,cs),
(340,227,o),
(394,226,o),
(396,184,cs),
(396,170,ls),
(396,132,o),
(352,128,o),
(306,128,cs),
(292,128,o),
(248,131,o),
(223,144,c),
(212,202,l),
(128,210,o),
(47,186,o),
(53,94,cs),
(55,65,o),
(58,2,o),
(150,-8,c),
(150,-12,l),
(116,-66,o),
(110,-139,o),
(124,-228,c)
);
}
);
width = 601;
},
{
anchors = (
{
name = bottom;
pos = (190,-104);
},
{
name = candra;
pos = (162,840);
},
{
name = nukta;
pos = (30,-36);
},
{
name = top;
pos = (472,840);
}
);
layerId = "0DC1F6FB-20EC-4E8F-AE98-F98B5FD714DE";
shapes = (
{
closed = 1;
nodes = (
(194,-118,o),
(151,-127,o),
(194,-118,c),
(182,-71,o),
(169,-23,o),
(157,24,c),
(216,11,o),
(270,4,o),
(316,4,cs),
(454,1,o),
(529,55,o),
(529,180,cs),
(529,192,ls),
(529,331,o),
(412,352,o),
(298,358,cs),
(193,364,o),
(92,368,o),
(92,461,cs),
(92,472,ls),
(92,572,o),
(158,570,o),
(190,570,cs),
(485,570,l),
(485,797,l),
(607,797,l),
(607,840,l),
(-36,840,l),
(-36,797,l),
(443,797,l),
(443,612,l),
(200,612,ls),
(97,612,o),
(50,580,o),
(50,480,cs),
(50,455,ls),
(50,330,o),
(185,317,o),
(305,314,cs),
(398,312,o),
(487,286,o),
(487,191,cs),
(487,186,ls),
(487,128,o),
(475,36,o),
(314,46,cs),
(200,53,o),
(170,61,o),
(145,70,c),
(116,184,l),
(89,180,o),
(29,160,o),
(42,98,cs),
(47,78,o),
(55,18,o),
(130,30,c),
(131,25,l),
(127,12,o),
(122,-26,o),
(151,-127,c)
);
}
);
width = 571;
}
);
unicode = 2311;
},
{
color = 9;
glyphname = "ii-deva";
kernLeft = vowelI.dv;
kernRight = Chandrabindu.dv;
layers = (
{
anchors = (
{
name = bottom;
pos = (266,-103);
},
{
name = candra;
pos = (334,1356);
},
{
name = nukta;
pos = (-2,-54);
},
{
name = top;
pos = (464,841);
}
);
layerId = "B3961A9D-C6DC-4F74-9770-9C992C479D86";
shapes = (
{
closed = 1;
nodes = (
(281,-203,l),
(241,2,l),
(262,-4,o),
(300,-10,o),
(322,-10,cs),
(403,-10,o),
(550,2,o),
(550,172,cs),
(550,190,ls),
(550,234,o),
(545,323,o),
(355,346,cs),
(199,365,o),
(202,382,o),
(202,425,cs),
(202,436,ls),
(205,468,o),
(228,470,o),
(259,469,cs),
(496,469,l),
(496,710,l),
(629,710,l),
(629,841,l),
(-44,841,l),
(-44,710,l),
(332,710,l),
(332,602,l),
(229,602,ls),
(125,602,o),
(48,564,o),
(48,464,cs),
(48,414,ls),
(44,280,o),
(174,257,o),
(286,235,cs),
(331,227,o),
(385,226,o),
(388,184,cs),
(388,170,ls),
(388,132,o),
(343,128,o),
(298,128,cs),
(283,128,o),
(240,131,o),
(215,144,c),
(204,202,l),
(120,210,o),
(38,186,o),
(44,94,cs),
(47,65,o),
(49,2,o),
(142,-8,c),
(142,-12,l),
(108,-66,o),
(102,-139,o),
(115,-228,c)
);
},
{
closed = 1;
nodes = (
(514,826,l),
(463,827,o),
(432,886,o),
(432,934,cs),
(432,980,o),
(462,1018,o),
(517,1018,cs),
(547,1018,o),
(578,1007,o),
(608,992,c),
(647,1097,l),
(602,1126,o),
(536,1150,o),
(474,1154,cs),
(338,1164,o),
(275,1090,o),
(274,972,cs),
(274,929,o),
(290,877,o),
(335,841,c),
(335,826,l),
(335,826,l)
);
}
);
width = 611;
},
{
anchors = (
{
name = bottom;
pos = (190,-104);
},
{
name = candra;
pos = (200,840);
},
{
name = nukta;
pos = (30,-36);
},
{
name = top;
pos = (472,840);
}
);
guides = (
{
pos = (0,-82);
}
);
layerId = "0DC1F6FB-20EC-4E8F-AE98-F98B5FD714DE";
shapes = (
{
closed = 1;
nodes = (
(194,-118,l),
(157,24,l),
(217,11,o),
(271,4,o),
(317,4,cs),
(455,1,o),
(529,56,o),
(529,180,cs),
(529,192,ls),
(529,331,o),
(412,352,o),
(298,358,cs),
(193,364,o),
(92,368,o),
(92,461,cs),
(92,472,ls),
(92,572,o),
(158,570,o),
(190,570,cs),
(485,570,l),
(485,797,l),
(607,797,l),
(607,840,l),
(-36,840,l),
(-36,797,l),
(443,797,l),
(443,612,l),
(200,612,ls),
(97,612,o),
(50,580,o),
(50,480,cs),
(50,455,ls),
(50,330,o),
(185,317,o),
(305,314,cs),
(398,312,o),
(487,286,o),
(487,191,cs),
(487,186,ls),
(487,128,o),
(475,36,o),
(314,46,cs),
(200,53,o),
(170,61,o),
(145,70,c),
(116,184,l),
(89,180,o),
(29,160,o),
(42,98,cs),
(47,78,o),
(55,18,o),
(130,30,c),
(131,25,l),
(127,12,o),
(122,-26,o),
(151,-127,c)
);
},
{
closed = 1;
nodes = (
(492,836,l),
(440,858,o),
(410,902,o),
(410,953,cs),
(410,1027,o),
(420,1079,o),
(518,1075,cs),
(548,1074,o),
(592,1063,o),
(631,1032,c),
(655,1066,l),
(620,1098,o),
(564,1115,o),
(520,1117,cs),
(403,1122,o),
(365,1061,o),
(367,953,cs),
(370,866,o),
(421,847,o),
(440,842,c),
(440,836,l),
(440,836,l)
);
}
);
width = 571;
}
);
unicode = 2312;
},
{
color = 9;
glyphname = "ii_candraBindu-deva";
kernLeft = vowelI.dv;
kernRight = Chandrabindu.dv;
layers = (
{
anchors = (
{
name = bottom;
pos = (223,-190);
},
{
name = nukta;
pos = (14,64);
},
{
name = top;
pos = (433,841);
}
);
layerId = "B3961A9D-C6DC-4F74-9770-9C992C479D86";
shapes = (
{
closed = 1;
nodes = (
(289,-203,l),
(250,2,l),
(270,-4,o),
(308,-10,o),
(330,-10,cs),
(412,-10,o),
(558,2,o),
(558,172,cs),
(558,190,ls),
(558,234,o),
(553,323,o),
(364,346,cs),
(208,365,o),
(210,382,o),
(210,425,cs),
(210,436,ls),
(214,468,o),
(236,470,o),
(268,469,cs),
(504,469,l),
(504,710,l),
(637,710,l),
(637,841,l),
(-36,841,l),
(-36,710,l),
(341,710,l),
(341,602,l),
(238,602,ls),
(133,602,o),
(56,564,o),
(56,464,cs),
(56,414,ls),
(53,280,o),
(182,257,o),
(294,235,cs),
(340,227,o),
(394,226,o),
(396,184,cs),
(396,170,ls),
(396,132,o),
(352,128,o),
(306,128,cs),
(292,128,o),
(248,131,o),
(223,144,c),
(212,202,l),
(128,210,o),
(47,186,o),
(53,94,cs),
(55,65,o),
(58,2,o),
(150,-8,c),
(150,-12,l),
(116,-66,o),
(110,-139,o),
(124,-228,c)
);
},
{
closed = 1;
nodes = (
(522,826,l),
(472,827,o),
(440,886,o),
(440,934,cs),
(440,980,o),
(470,1018,o),
(526,1018,cs),
(556,1018,o),
(578,1014,o),
(617,1001,c),
(655,1109,l),
(611,1138,o),
(551,1154,o),
(482,1154,cs),
(347,1154,o),
(283,1090,o),
(282,972,cs),
(282,929,o),
(299,877,o),
(343,841,c),
(343,826,l),
(343,826,l)
);
},
{
closed = 1;
nodes = (
(581,863,ls),
(640,863,o),
(662,904,o),
(665,950,c),
(613,953,l),
(613,930,o),
(601,913,o),
(576,913,cs),
(556,913,ls),
(533,913,o),
(520,931,o),
(517,953,c),
(468,950,l),
(470,906,o),
(492,863,o),
(551,863,cs)
);
},
{
closed = 1;
nodes = (
(582,940,o),
(594,942,o),
(594,968,cs),
(594,991,o),
(582,995,o),
(565,995,cs),
(551,995,o),
(538,991,o),
(538,968,cs),
(538,942,o),
(551,940,o),
(565,940,cs)
);
}
);
width = 629;
},
{
anchors = (
{
name = bottom;
pos = (278,-118);
},
{
name = nukta;
pos = (67,-24);
},
{
name = top;
pos = (469,840);
}
);
layerId = "0DC1F6FB-20EC-4E8F-AE98-F98B5FD714DE";
shapes = (
{
closed = 1;
nodes = (
(194,-118,l),
(157,24,l),
(216,11,o),
(269,4,o),
(314,4,cs),
(454,1,o),
(529,55,o),
(529,180,cs),
(529,192,ls),
(529,331,o),
(412,352,o),
(298,358,cs),
(193,364,o),
(92,368,o),
(92,461,cs),
(92,472,ls),
(92,572,o),
(158,570,o),
(190,570,cs),
(485,570,l),
(485,797,l),
(607,797,l),
(607,840,l),
(-36,840,l),
(-36,797,l),
(443,797,l),
(443,612,l),
(200,612,ls),
(97,612,o),
(50,580,o),
(50,480,cs),
(50,455,ls),
(50,330,o),
(185,317,o),
(305,314,cs),
(398,312,o),
(487,286,o),
(487,191,cs),
(487,186,ls),
(487,128,o),
(475,36,o),
(314,46,cs),
(200,53,o),
(170,61,o),
(145,70,c),
(116,184,l),
(89,180,o),
(29,160,o),
(42,98,cs),
(47,78,o),
(55,18,o),
(130,30,c),
(131,25,l),
(127,12,o),
(122,-26,o),
(151,-127,c)
);
},
{
closed = 1;
nodes = (
(492,836,l),
(440,858,o),
(410,902,o),
(410,953,cs),
(410,1027,o),
(420,1079,o),
(518,1075,cs),
(548,1074,o),
(592,1063,o),
(631,1032,c),
(655,1066,l),
(620,1098,o),
(564,1115,o),
(520,1117,cs),
(403,1122,o),
(365,1061,o),
(367,953,cs),
(370,866,o),
(421,847,o),
(440,842,c),
(440,836,l),
(440,836,l)
);
},
{
closed = 1;
nodes = (
(566,892,ls),
(635,892,o),
(648,932,o),
(652,979,c),
(623,983,l),
(616,916,o),
(587,920,o),
(562,920,cs),
(541,920,ls),
(517,920,o),
(492,916,o),
(480,983,c),
(452,979,l),
(455,935,o),
(472,892,o),
(536,892,cs)
);
},
{
closed = 1;
nodes = (
(565,964,o),
(576,967,o),
(576,989,cs),
(576,1010,o),
(565,1013,o),
(551,1013,cs),
(538,1013,o),
(527,1010,o),
(527,989,cs),
(527,967,o),
(538,964,o),
(551,964,cs)
);
}
);
width = 571;
}
);
},
{
color = 9;
glyphname = "ii_anusvara-deva";
kernLeft = vowelI.dv;
kernRight = Chandrabindu.dv;
layers = (
{
anchors = (
{
name = bottom;
pos = (223,-190);
},
{
name = nukta;
pos = (10,74);
},
{
name = top;
pos = (425,841);
}
);
layerId = "B3961A9D-C6DC-4F74-9770-9C992C479D86";
shapes = (
{
closed = 1;
nodes = (
(289,-203,l),
(250,2,l),
(270,-4,o),
(308,-10,o),
(330,-10,cs),
(412,-10,o),
(558,2,o),
(558,172,cs),
(558,190,ls),
(558,234,o),
(553,323,o),
(364,346,cs),
(208,365,o),
(210,382,o),
(210,425,cs),
(210,436,ls),
(214,468,o),
(236,470,o),
(268,469,cs),
(504,469,l),
(504,710,l),
(637,710,l),
(637,841,l),
(-36,841,l),
(-36,710,l),
(341,710,l),
(341,602,l),
(238,602,ls),
(133,602,o),
(56,564,o),
(56,464,cs),
(56,414,ls),
(53,280,o),
(182,257,o),
(294,235,cs),
(340,227,o),
(394,226,o),
(396,184,cs),
(396,170,ls),
(396,132,o),
(352,128,o),
(306,128,cs),
(292,128,o),
(248,131,o),
(223,144,c),
(212,202,l),
(128,210,o),
(47,186,o),
(53,94,cs),
(55,65,o),
(58,2,o),
(150,-8,c),
(150,-12,l),
(116,-66,o),
(110,-139,o),
(124,-228,c)
);
},
{
closed = 1;
nodes = (
(522,826,l),
(472,827,o),
(440,886,o),
(440,934,cs),
(440,980,o),
(470,1018,o),
(526,1018,cs),
(556,1018,o),
(578,1014,o),
(617,1001,c),
(655,1109,l),
(611,1138,o),
(551,1154,o),
(482,1154,cs),
(347,1154,o),
(283,1090,o),
(282,972,cs),
(282,929,o),
(299,877,o),
(343,841,c),
(343,826,l),
(343,826,l)
);
},
{
closed = 1;
nodes = (
(593,872,o),
(618,878,o),
(618,930,cs),
(618,979,o),
(593,986,o),
(560,986,cs),
(529,986,o),
(504,979,o),
(504,930,cs),
(504,878,o),
(529,872,o),
(560,872,cs)
);
}
);
width = 619;
},
{
anchors = (
{
name = bottom;
pos = (284,-120);
},
{
name = nukta;
pos = (65,-24);
},
{
name = top;
pos = (469,840);
}
);
layerId = "0DC1F6FB-20EC-4E8F-AE98-F98B5FD714DE";
shapes = (
{
closed = 1;
nodes = (
(194,-118,l),
(157,24,l),
(216,11,o),
(268,5,o),
(313,4,cs),
(454,0,o),
(529,55,o),
(529,180,cs),
(529,192,ls),
(529,331,o),
(412,352,o),
(298,358,cs),
(193,364,o),
(92,368,o),
(92,461,cs),
(92,472,ls),
(92,572,o),
(158,570,o),
(190,570,cs),
(485,570,l),
(485,797,l),
(607,797,l),
(607,840,l),
(-36,840,l),
(-36,797,l),
(443,797,l),
(443,612,l),
(200,612,ls),
(97,612,o),
(50,580,o),
(50,480,cs),
(50,455,ls),
(50,330,o),
(185,317,o),
(305,314,cs),
(398,312,o),
(487,286,o),
(487,191,cs),
(487,186,ls),
(487,128,o),
(475,36,o),
(314,46,cs),
(200,53,o),
(170,61,o),
(145,70,c),
(116,184,l),
(89,180,o),
(29,160,o),
(42,98,cs),
(47,78,o),
(55,18,o),
(130,30,c),
(131,25,l),
(127,12,o),
(122,-26,o),
(151,-127,c)
);
},
{
closed = 1;
nodes = (
(492,836,l),
(440,858,o),
(410,902,o),
(410,953,cs),
(410,1027,o),
(420,1079,o),
(518,1075,cs),
(548,1074,o),
(592,1063,o),
(631,1032,c),
(655,1066,l),
(620,1098,o),
(564,1115,o),
(520,1117,cs),
(403,1122,o),
(365,1061,o),
(367,953,cs),
(370,866,o),
(421,847,o),
(440,842,c),
(440,836,l),
(440,836,l)
);
},
{
closed = 1;
nodes = (
(545,922,o),
(557,925,o),
(557,949,cs),
(557,973,o),
(545,977,o),
(529,977,cs),
(514,977,o),
(502,973,o),
(502,949,cs),
(502,925,o),
(514,922,o),
(529,922,cs)
);
}
);
width = 571;
}
);
},
{
color = 9;
glyphname = "u-deva";
kernLeft = vowelI.dv;
kernRight = Chandrabindu.dv;
layers = (
{
anchors = (
{
name = bottom;
pos = (304,13);
},
{
name = candra;
pos = (295,1356);
},
{
name = nukta;
pos = (302,-58);
},
{
name = top;
pos = (368,841);
}
);
guides = (
{
pos = (0,389);
},
{
pos = (0,14);
}
);
layerId = "B3961A9D-C6DC-4F74-9770-9C992C479D86";
shapes = (
{
closed = 1;
nodes = (
(31,72,l),
(97,31,o),
(178,7,o),
(251,5,cs),
(436,-2,o),
(515,66,o),
(515,209,cs),
(515,307,ls),
(515,376,o),
(492,398,o),
(457,404,c),
(457,409,l),
(492,415,o),
(502,444,o),
(502,496,cs),
(502,605,ls),
(502,656,o),
(491,689,o),
(457,706,c),
(457,710,l),
(625,710,l),
(625,841,l),
(-36,841,l),
(-36,710,l),
(226,710,ls),
(340,710,o),
(338,652,o),
(340,610,cs),
(341,529,ls),
(341,505,o),
(343,468,o),
(302,468,cs),
(154,468,l),
(154,346,l),
(302,346,ls),
(334,346,o),
(353,335,o),
(353,300,cs),
(353,227,ls),
(353,149,o),
(299,140,o),
(256,140,cs),
(230,140,o),
(166,148,o),
(91,186,c)
);
}
);
width = 589;
},
{
anchors = (
{
name = bottom;
pos = (211,30);
},
{
name = candra;
pos = (47,840);
},
{
name = nukta;
pos = (199,-36);
},
{
name = top;
pos = (314,840);
}
);
layerId = "0DC1F6FB-20EC-4E8F-AE98-F98B5FD714DE";
shapes = (
{
closed = 1;
nodes = (
(17,46,l),
(68,16,o),
(142,2,o),
(198,2,cs),
(337,2,o),
(418,59,o),
(418,203,cs),
(418,305,ls),
(418,379,o),
(372,414,o),
(337,420,c),
(337,425,l),
(382,443,o),
(404,491,o),
(404,546,cs),
(404,672,ls),
(404,724,o),
(394,776,o),
(360,793,c),
(360,797,l),
(527,797,l),
(527,840,l),
(-36,840,l),
(-36,797,l),
(256,797,ls),
(347,797,o),
(362,733,o),
(362,684,cs),
(362,557,ls),
(362,526,o),
(360,442,o),
(236,442,cs),
(113,442,l),
(113,400,l),
(236,400,ls),
(371,400,o),
(376,326,o),
(376,284,cs),
(376,203,ls),
(376,125,o),
(347,43,o),
(198,46,cs),
(173,46,o),
(102,52,o),
(35,85,c)
);
}
);
width = 491;
}
);
unicode = 2313;
},
{
color = 9;
glyphname = "uu-deva";
kernLeft = vowelI.dv;
kernRight = Chandrabindu.dv;
layers = (
{
anchors = (
{
name = candra;
pos = (458,1356);
},
{
name = nukta;
pos = (302,-58);
},
{
name = top;
pos = (383,841);
}
);
guides = (
{
pos = (0,65);
}
);
layerId = "B3961A9D-C6DC-4F74-9770-9C992C479D86";
shapes = (
{
closed = 1;
nodes = (
(31,72,l),
(97,31,o),
(178,7,o),
(251,5,cs),
(436,-2,o),
(515,66,o),
(515,209,cs),
(515,307,ls),
(515,376,o),
(492,398,o),
(457,404,c),
(457,409,l),
(492,415,o),
(502,444,o),
(502,496,cs),
(502,605,ls),
(502,656,o),
(491,689,o),
(457,706,c),
(457,710,l),
(952,710,l),
(952,841,l),
(-36,841,l),
(-36,710,l),
(226,710,ls),
(340,710,o),
(338,652,o),
(340,610,cs),
(341,529,ls),
(341,505,o),
(343,468,o),
(302,468,cs),
(144,468,l),
(144,346,l),
(302,346,ls),
(334,346,o),
(353,335,o),
(353,300,cs),
(353,227,ls),
(353,149,o),
(299,140,o),
(256,140,cs),
(230,140,o),
(166,148,o),
(91,186,c)
);
},
{
closed = 1;
nodes = (
(515,211,l),
(515,264,o),
(520,311,o),
(612,313,cs),
(662,314,o),
(703,308,o),
(703,242,cs),
(703,220,ls),
(703,170,o),
(689,161,o),
(653,161,cs),
(624,161,l),
(624,38,l),
(642,38,l),
(721,38,ls),
(809,38,o),
(865,78,o),
(865,205,cs),
(865,288,ls),
(865,415,o),
(780,448,o),
(678,448,cs),
(625,448,o),
(551,445,o),
(505,374,c),
(502,374,l),
(502,374,l)
);
}
);
width = 916;
},
{
anchors = (
{
name = candra;
pos = (36,840);
},
{
name = nukta;
pos = (199,-60);
},
{
name = top;
pos = (329,840);
}
);
layerId = "0DC1F6FB-20EC-4E8F-AE98-F98B5FD714DE";
shapes = (
{
closed = 1;
nodes = (
(17,46,l),
(68,16,o),
(142,2,o),
(198,2,cs),
(337,2,o),
(418,59,o),
(418,203,cs),
(418,305,ls),
(418,379,o),
(372,414,o),
(337,420,c),
(337,425,l),
(382,443,o),
(404,491,o),
(404,546,cs),
(404,672,ls),
(404,724,o),
(394,776,o),
(360,793,c),
(360,797,l),
(865,797,l),
(865,840,l),
(-36,840,l),
(-36,797,l),
(256,797,ls),
(347,797,o),
(362,733,o),
(362,684,cs),
(362,557,ls),
(362,526,o),
(360,442,o),
(236,442,cs),
(113,442,l),
(113,400,l),
(236,400,ls),
(371,400,o),
(376,326,o),
(376,284,cs),
(376,203,ls),
(376,125,o),
(347,43,o),
(198,46,cs),
(173,46,o),
(102,52,o),
(35,85,c)
);
},
{
closed = 1;
nodes = (
(418,286,l),
(418,372,o),
(478,407,o),
(593,410,cs),
(677,413,o),
(744,371,o),
(744,281,cs),
(744,184,ls),
(744,54,o),
(611,59,o),
(575,59,cs),
(526,59,l),
(526,17,l),
(564,17,l),
(595,17,ls),
(697,17,o),
(787,52,o),
(787,179,cs),
(787,271,ls),
(787,397,o),
(719,452,o),
(593,452,cs),
(526,452,o),
(444,438,o),
(404,372,c),
(401,372,l),
(401,372,l)
);
}
);
width = 829;
}
);
unicode = 2314;
},
{
color = 9;
glyphname = "rVocalic-deva";
kernLeft = vowelI.dv;
kernRight = Chandrabindu.dv;
layers = (
{
anchors = (
{
name = bottom;
pos = (614,0);
},
{
name = candra;
pos = (598,1356);
},
{
name = nukta;
pos = (382,52);
},
{
name = top;
pos = (655,841);
}
);
layerId = "B3961A9D-C6DC-4F74-9770-9C992C479D86";
shapes = (
{
closed = 1;
nodes = (
(683,0,l),
(683,328,l),
(812,390,l),
(829,376,o),
(854,360,o),
(884,360,c),
(884,356,l),
(846,342,o),
(808,312,o),
(808,238,cs),
(808,216,ls),
(808,101,o),
(892,59,o),
(1050,59,cs),
(1093,59,l),
(1093,179,l),
(1055,179,ls),
(1021,179,o),
(962,179,o),
(962,238,cs),
(962,250,ls),
(962,292,o),
(976,310,o),
(1049,313,cs),
(1093,316,l),
(1081,437,l),
(1030,434,ls),
(960,431,o),
(942,456,o),
(942,494,cs),
(942,625,l),
(788,628,l),
(790,528,l),
(683,475,l),
(683,710,l),
(1228,710,l),
(1228,841,l),
(-36,841,l),
(-36,710,l),
(520,710,l),
(520,421,l),
(516,421,l),
(437,576,o),
(302,610,o),
(168,557,cs),
(98,529,o),
(30,487,o),
(30,487,c),
(106,358,l),
(187,403,o),
(180,398,o),
(208,410,cs),
(271,438,o),
(331,442,o),
(401,355,c),
(401,353,l),
(101,187,l),
(180,44,l),
(516,251,l),
(520,251,l),
(520,0,l),
(520,0,l)
);
}
);
width = 1192;
},
{
anchors = (
{
name = bottom;
pos = (517,0);
},
{
name = candra;
pos = (234,840);
},
{
name = nukta;
pos = (347,30);
},
{
name = top;
pos = (522,840);
}
);
layerId = "0DC1F6FB-20EC-4E8F-AE98-F98B5FD714DE";
shapes = (
{
closed = 1;
nodes = (
(538,0,l),
(538,378,l),
(738,510,l),
(738,469,o),
(758,434,o),
(794,428,c),
(794,426,l),
(756,412,o),
(746,385,o),
(746,346,cs),
(746,216,ls),
(746,142,o),
(793,109,o),
(884,109,cs),
(972,109,l),
(972,148,l),
(890,148,ls),
(835,148,o),
(788,155,o),
(788,218,cs),
(788,342,ls),
(788,404,o),
(821,407,o),
(893,409,cs),
(970,412,l),
(965,449,l),
(889,448,ls),
(775,445,o),
(781,490,o),
(781,557,cs),
(781,661,l),
(738,661,l),
(738,559,l),
(538,427,l),
(538,797,l),
(1132,797,l),
(1132,840,l),
(-36,840,l),
(-36,797,l),
(496,797,l),
(496,431,l),
(494,431,l),
(415,586,o),
(304,653,o),
(155,594,cs),
(85,566,o),
(18,523,o),
(18,523,c),
(38,487,l),
(120,533,o),
(144,545,o),
(172,556,cs),
(324,616,o),
(415,500,o),
(479,394,c),
(479,392,l),
(142,174,l),
(164,138,l),
(494,354,l),
(496,354,l),
(496,0,l),
(496,0,l)
);
}
);
width = 1096;
}
);
unicode = 2315;
},
{
color = 9;
glyphname = "rrVocalic-deva";
kernLeft = vowelI.dv;
kernRight = Chandrabindu.dv;
layers = (
{
anchors = (
{
name = bottom;
pos = (614,0);
},
{
name = candra;
pos = (598,1356);
},
{
name = nukta;
pos = (382,52);
},
{
name = top;
pos = (655,841);
}
);
guides = (
{
pos = (659,-134);
}
);
layerId = "B3961A9D-C6DC-4F74-9770-9C992C479D86";
shapes = (
{
closed = 1;
nodes = (
(683,0,l),
(683,328,l),
(812,390,l),
(829,376,o),
(854,360,o),
(884,360,c),
(884,356,l),
(840,342,o),
(808,317,o),
(808,242,cs),
(808,232,ls),
(808,170,o),
(828,132,o),
(878,115,c),
(878,113,l),
(828,100,o),
(802,56,o),
(802,-7,cs),
(802,-26,ls),
(802,-161,o),
(893,-209,o),
(1002,-206,cs),
(1078,-205,o),
(1118,-178,o),
(1150,-163,c),
(1105,-50,l),
(1081,-61,o),
(1052,-73,o),
(1021,-73,cs),
(998,-73,o),
(956,-71,o),
(956,-13,cs),
(956,-8,ls),
(956,58,o),
(1004,56,o),
(1050,56,cs),
(1093,56,l),
(1093,179,l),
(1051,179,ls),
(1018,179,o),
(962,181,o),
(962,246,cs),
(962,250,ls),
(962,287,o),
(976,310,o),
(1049,313,cs),
(1093,316,l),
(1081,437,l),
(1030,434,ls),
(960,431,o),
(942,456,o),
(942,494,cs),
(942,625,l),
(788,628,l),
(790,528,l),
(683,475,l),
(683,710,l),
(1228,710,l),
(1228,841,l),
(-36,841,l),
(-36,710,l),
(520,710,l),
(520,421,l),
(516,421,l),
(437,576,o),
(302,610,o),
(168,557,cs),
(98,529,o),
(30,487,o),
(30,487,c),
(106,358,l),
(187,403,o),
(180,398,o),
(208,410,cs),
(271,438,o),
(331,442,o),
(401,355,c),
(401,353,l),
(101,187,l),
(180,44,l),
(516,251,l),
(520,251,l),
(520,0,l),
(520,0,l)
);
}
);
width = 1192;
},
{
anchors = (
{
name = bottom;
pos = (517,0);
},
{
name = candra;
pos = (667,840);
},
{
name = nukta;
pos = (344,30);
},
{
name = top;
pos = (522,840);
}
);
layerId = "0DC1F6FB-20EC-4E8F-AE98-F98B5FD714DE";
shapes = (
{
closed = 1;
nodes = (
(538,0,l),
(538,378,l),
(738,510,l),
(738,469,o),
(758,434,o),
(794,428,c),
(794,426,l),
(756,412,o),
(746,385,o),
(746,346,cs),
(746,305,ls),
(746,244,o),
(782,214,o),
(812,212,c),
(812,210,l),
(782,210,o),
(746,180,o),
(746,119,cs),
(746,85,ls),
(746,8,o),
(800,-12,o),
(880,-12,cs),
(893,-12,o),
(950,-7,o),
(982,7,c),
(968,43,l),
(942,34,o),
(901,28,o),
(880,28,cs),
(832,28,o),
(788,31,o),
(788,89,cs),
(788,122,ls),
(788,188,o),
(841,192,o),
(890,192,cs),
(948,192,l),
(948,230,l),
(890,230,ls),
(851,230,o),
(788,238,o),
(788,301,cs),
(788,342,ls),
(788,397,o),
(821,406,o),
(893,409,cs),
(946,412,l),
(941,449,l),
(889,448,ls),
(775,448,o),
(781,490,o),
(781,557,cs),
(781,661,l),
(738,661,l),
(738,559,l),
(538,427,l),
(538,797,l),
(1120,797,l),
(1120,840,l),
(-36,840,l),
(-36,797,l),
(496,797,l),
(496,431,l),
(494,431,l),
(415,586,o),
(304,653,o),
(155,594,cs),
(85,566,o),
(18,523,o),
(18,523,c),
(38,487,l),
(120,533,o),
(144,545,o),
(172,556,cs),
(324,616,o),
(415,500,o),
(479,394,c),
(479,392,l),
(142,174,l),
(164,138,l),
(494,354,l),
(496,354,l),
(496,0,l),
(496,0,l)
);
}
);
width = 1084;
}
);
unicode = 2400;
},
{
color = 9;
glyphname = "lVocalic-deva";
kernLeft = vowelI.dv;
layers = (
{
anchors = (
{
name = bottom;
pos = (714,-76);
},
{
name = candra;
pos = (472,1356);
},
{
name = nukta;
pos = (61,14);
},
{
name = top;
pos = (643,841);
}
);
guides = (
{
pos = (0,460);
}
);
layerId = "B3961A9D-C6DC-4F74-9770-9C992C479D86";
shapes = (
{
closed = 1;
nodes = (
(775,-96,o),
(828,-84,o),
(862,-70,c),
(838,42,l),
(814,35,o),
(786,28,o),
(750,28,cs),
(674,28,o),
(692,128,o),
(714,180,cs),
(734,230,o),
(767,312,o),
(767,392,cs),
(767,462,o),
(737,510,o),
(671,535,c),
(671,710,l),
(978,710,l),
(978,841,l),
(-36,841,l),
(-36,710,l),
(508,710,l),
(508,547,l),
(467,540,o),
(434,518,o),
(414,482,c),
(410,482,l),
(378,534,o),
(316,552,o),
(250,552,cs),
(130,552,o),
(52,493,o),
(52,360,cs),
(52,272,o),
(77,188,o),
(115,0,c),
(276,0,l),
(226,203,o),
(210,264,o),
(210,342,cs),
(210,394,o),
(226,420,o),
(274,420,cs),
(328,420,o),
(342,389,o),
(342,341,cs),
(342,192,l),
(476,192,l),
(481,341,ls),
(481,389,o),
(497,420,o),
(548,420,cs),
(584,420,o),
(617,404,o),
(611,353,cs),
(605,287,o),
(559,208,o),
(544,125,cs),
(512,-35,o),
(613,-96,o),
(726,-96,cs)
);
}
);
width = 942;
},
{
anchors = (
{
name = bottom;
pos = (569,-18);
},
{
name = candra;
pos = (570,840);
},
{
name = nukta;
pos = (52,-37);
},
{
name = top;
pos = (476,840);
}
);
guides = (
{
pos = (-20,191);
},
{
pos = (-20,460);
}
);
layerId = "0DC1F6FB-20EC-4E8F-AE98-F98B5FD714DE";
shapes = (
{
closed = 1;
nodes = (
(629,-26,o),
(642,-25,o),
(655,-24,c),
(655,18,l),
(643,17,o),
(631,16,o),
(613,16,cs),
(565,16,o),
(502,22,o),
(502,83,cs),
(502,162,o),
(612,262,o),
(612,412,cs),
(612,482,o),
(588,544,o),
(491,552,c),
(491,797,l),
(779,797,l),
(779,840,l),
(-36,840,l),
(-36,797,l),
(448,797,l),
(448,553,l),
(408,551,o),
(356,539,o),
(332,491,c),
(330,491,l),
(294,542,o),
(239,551,o),
(194,551,cs),
(103,551,o),
(43,509,o),
(43,389,cs),
(43,274,o),
(96,132,o),
(125,0,c),
(169,0,l),
(138,125,o),
(85,284,o),
(85,385,cs),
(85,478,o),
(122,509,o),
(194,509,cs),
(294,509,o),
(311,457,o),
(310,372,cs),
(310,270,l),
(352,270,l),
(352,374,ls),
(352,457,o),
(364,511,o),
(466,511,cs),
(542,511,o),
(571,475,o),
(571,416,cs),
(571,272,o),
(458,179,o),
(458,79,cs),
(458,-2,o),
(532,-26,o),
(611,-26,cs)
);
}
);
width = 743;
}
);
unicode = 2316;
},
{
color = 9;
glyphname = "llVocalic-deva";
kernLeft = vowelI.dv;
layers = (
{
anchors = (
{
name = candra;
pos = (506,1356);
},
{
name = nukta;
pos = (44,17);
},
{
name = top;
pos = (637,841);
}
);
layerId = "B3961A9D-C6DC-4F74-9770-9C992C479D86";
shapes = (
{
closed = 1;
nodes = (
(839,-282,o),
(899,-257,o),
(899,-257,c),
(875,-145,l),
(848,-154,o),
(815,-160,o),
(787,-160,cs),
(727,-160,o),
(703,-138,o),
(703,-96,cs),
(703,-92,ls),
(703,-56,o),
(721,-23,o),
(782,-23,cs),
(798,-23,o),
(814,-23,o),
(834,-23,c),
(834,86,l),
(773,86,ls),
(671,86,o),
(689,162,o),
(721,232,cs),
(744,280,o),
(767,312,o),
(767,392,cs),
(767,462,o),
(737,510,o),
(671,535,c),
(671,710,l),
(978,710,l),
(978,841,l),
(-36,841,l),
(-36,710,l),
(508,710,l),
(508,547,l),
(467,540,o),
(434,518,o),
(414,482,c),
(410,482,l),
(378,534,o),
(316,552,o),
(250,552,cs),
(130,552,o),
(52,493,o),
(52,360,cs),
(52,272,o),
(77,188,o),
(115,0,c),
(276,0,l),
(226,203,o),
(210,264,o),
(210,342,cs),
(210,394,o),
(226,420,o),
(274,420,cs),
(328,420,o),
(342,389,o),
(342,341,cs),
(342,192,l),
(476,192,l),
(481,341,ls),
(481,389,o),
(497,420,o),
(548,420,cs),
(584,420,o),
(617,404,o),
(611,353,cs),
(606,308,o),
(568,227,o),
(557,176,cs),
(538,86,o),
(575,52,o),
(623,19,c),
(623,17,l),
(575,-7,o),
(548,-47,o),
(548,-104,cs),
(548,-115,ls),
(548,-240,o),
(640,-282,o),
(763,-282,cs)
);
}
);
width = 942;
},
{
anchors = (
{
name = candra;
pos = (521,840);
},
{
name = nukta;
pos = (49,-34);
},
{
name = top;
pos = (469,840);
}
);
guides = (
{
pos = (0,460);
}
);
layerId = "0DC1F6FB-20EC-4E8F-AE98-F98B5FD714DE";
shapes = (
{
closed = 1;
nodes = (
(611,-208,o),
(658,-204,o),
(689,-190,c),
(676,-154,l),
(649,-163,o),
(619,-168,o),
(598,-168,cs),
(536,-168,o),
(497,-161,o),
(496,-103,cs),
(496,-100,ls),
(496,-34,o),
(552,-31,o),
(598,-31,cs),
(617,-31,o),
(636,-31,o),
(655,-31,c),
(655,16,l),
(593,16,ls),
(542,17,o),
(502,24,o),
(502,83,cs),
(502,162,o),
(612,262,o),
(612,412,cs),
(612,482,o),
(588,544,o),
(491,552,c),
(491,797,l),
(779,797,l),
(779,840,l),
(-36,840,l),
(-36,797,l),
(448,797,l),
(448,553,l),
(408,551,o),
(356,539,o),
(332,491,c),
(330,491,l),
(294,542,o),
(239,551,o),
(194,551,cs),
(103,551,o),
(43,509,o),
(43,389,cs),
(43,274,o),
(96,132,o),
(125,0,c),
(169,0,l),
(138,125,o),
(85,284,o),
(85,385,cs),
(85,478,o),
(122,509,o),
(194,509,cs),
(294,509,o),
(311,457,o),
(310,372,cs),
(310,270,l),
(352,270,l),
(352,374,ls),
(352,457,o),
(364,511,o),
(466,511,cs),
(542,511,o),
(571,475,o),
(571,416,cs),
(571,272,o),
(458,179,o),
(458,79,cs),
(458,19,o),
(497,-2,o),
(544,-8,c),
(544,-11,l),
(490,-10,o),
(454,-42,o),
(454,-103,cs),
(454,-107,ls),
(455,-185,o),
(505,-208,o),
(598,-208,cs)
);
}
);
width = 743;
}
);
unicode = 2401;
},
{
color = 9;
glyphname = "eCandra-deva";
kernLeft = vowelI.dv;
kernRight = Chandrabindu.dv;
layers = (
{
anchors = (
{
name = bottom;
pos = (451,79);
},
{
name = candra;
pos = (304,840);
},
{
name = nukta;
pos = (156,-17);
},
{
name = top;
pos = (587,841);
}
);
guides = (
{
angle = 90;
pos = (511,0);
},
{
angle = 90;
pos = (64,0);
}
);
layerId = "B3961A9D-C6DC-4F74-9770-9C992C479D86";
shapes = (
{
closed = 1;
nodes = (
(528,86,l),
(246,176,o),
(239,332,o),
(239,443,cs),
(239,775,l),
(77,775,l),
(77,464,ls),
(77,233,o),
(122,56,o),
(464,-42,c)
);
},
{
closed = 1;
nodes = (
(406,246,l),
(586,312,o),
(613,416,o),
(613,564,cs),
(613,775,l),
(451,775,l),
(451,553,ls),
(451,416,o),
(406,392,o),
(343,365,c)
);
},
{
closed = 1;
nodes = (
(709,710,l),
(709,841,l),
(-36,841,l),
(-36,710,l),
(-36,710,l)
);
},
{
closed = 1;
nodes = (
(464,1176,l),
(463,1115,o),
(428,1069,o),
(364,1069,cs),
(305,1069,ls),
(240,1069,o),
(206,1116,o),
(204,1176,c),
(65,1169,l),
(71,1049,o),
(128,930,o),
(293,930,cs),
(376,930,ls),
(534,930,o),
(599,1042,o),
(604,1169,c)
);
}
);
width = 673;
},
{
anchors = (
{
name = bottom;
pos = (377,30);
},
{
name = candra;
pos = (304,840);
},
{
name = nukta;
pos = (108,10);
},
{
name = top;
pos = (474,840);
}
);
layerId = "0DC1F6FB-20EC-4E8F-AE98-F98B5FD714DE";
shapes = (
{
closed = 1;
nodes = (
(428,31,l),
(148,124,o),
(113,233,o),
(113,508,cs),
(113,821,l),
(70,821,l),
(70,508,ls),
(70,217,o),
(109,94,o),
(414,-6,c)
);
},
{
closed = 1;
nodes = (
(294,300,l),
(432,361,o),
(488,426,o),
(488,563,cs),
(488,802,l),
(445,802,l),
(445,563,ls),
(445,438,o),
(394,391,o),
(277,337,c)
);
},
{
closed = 1;
nodes = (
(580,797,l),
(580,840,l),
(-36,840,l),
(-36,797,l),
(-36,797,l)
);
},
{
closed = 1;
nodes = (
(421,1096,l),
(421,996,o),
(379,958,o),
(288,958,cs),
(274,958,ls),
(182,958,o),
(143,996,o),
(140,1096,c),
(97,1088,l),
(103,1024,o),
(110,914,o),
(274,914,cs),
(288,914,ls),
(448,914,o),
(458,1016,o),
(464,1088,c)
);
}
);
width = 544;
}
);
unicode = 2317;
},
{
color = 9;
glyphname = "eShort-deva";
kernLeft = vowelI.dv;
kernRight = Chandrabindu.dv;
layers = (
{
anchors = (
{
name = bottom;
pos = (451,79);
},
{
name = candra;
pos = (337,1356);
},
{
name = nukta;
pos = (156,-17);
},
{
name = top;
pos = (588,841);
}
);
guides = (
{
angle = 90;
pos = (376,0);
}
);
layerId = "B3961A9D-C6DC-4F74-9770-9C992C479D86";
shapes = (
{
closed = 1;
nodes = (
(528,86,l),
(246,176,o),
(239,332,o),
(239,443,cs),
(239,775,l),
(77,775,l),
(77,464,ls),
(77,233,o),
(122,56,o),
(464,-42,c)
);
},
{
closed = 1;
nodes = (
(406,246,l),
(586,312,o),
(613,416,o),
(613,564,cs),
(613,775,l),
(451,775,l),
(451,553,ls),
(451,416,o),
(406,392,o),
(343,365,c)
);
},
{
closed = 1;
nodes = (
(709,710,l),
(709,841,l),
(-37,841,l),
(-36,710,l),
(-36,710,l)
);
},
{
closed = 1;
nodes = (
(612,833,l),
(612,848,ls),
(604,1021,o),
(514,1070,o),
(368,1096,cs),
(242,1117,o),
(217,1164,o),
(216,1225,c),
(54,1225,l),
(62,1044,o),
(154,985,o),
(299,962,cs),
(430,942,o),
(450,894,o),
(451,833,c)
);
}
);
width = 673;
},
{
anchors = (
{
name = bottom;
pos = (377,31);
},
{
name = candra;
pos = (281,840);
},
{
name = nukta;
pos = (108,10);
},
{
name = top;
pos = (475,840);
}
);
layerId = "0DC1F6FB-20EC-4E8F-AE98-F98B5FD714DE";
shapes = (
{
closed = 1;
nodes = (
(428,31,l),
(148,124,o),
(113,233,o),
(113,508,cs),
(113,821,l),
(70,821,l),
(70,508,ls),
(70,217,o),
(109,94,o),
(414,-6,c)
);
},
{
closed = 1;
nodes = (
(294,300,l),
(432,361,o),
(488,426,o),
(488,563,cs),
(488,802,l),
(445,802,l),
(445,563,ls),
(445,438,o),
(394,391,o),
(277,337,c)
);
},
{
closed = 1;
nodes = (
(580,797,l),
(580,840,l),
(-36,840,l),
(-36,797,l),
(-36,797,l)
);
},
{
closed = 1;
nodes = (
(488,838,l),
(488,850,ls),
(488,952,o),
(407,979,o),
(286,1004,cs),
(160,1031,o),
(164,1049,o),
(157,1110,c),
(115,1110,l),
(124,997,o),
(167,983,o),
(288,960,cs),
(419,936,o),
(444,899,o),
(445,838,c)
);
}
);
width = 544;
}
);
unicode = 2318;
},
{
color = 9;
glyphname = "e-deva";
kernLeft = vowelI.dv;
kernRight = Chandrabindu.dv;
layers = (
{
anchors = (
{
name = bottom;
pos = (451,79);
},
{
name = candra;
pos = (337,1356);
},
{
name = nukta;
pos = (156,-17);
},
{
name = top;
pos = (588,841);
}
);
layerId = "B3961A9D-C6DC-4F74-9770-9C992C479D86";
shapes = (
{
closed = 1;
nodes = (
(528,86,l),
(246,176,o),
(239,332,o),
(239,443,cs),
(239,775,l),
(77,775,l),
(77,464,ls),
(77,233,o),
(122,56,o),
(464,-42,c)
);
},
{
closed = 1;
nodes = (
(406,246,l),
(586,312,o),
(613,416,o),
(613,564,cs),
(613,775,l),
(451,775,l),
(451,553,ls),
(451,416,o),
(406,392,o),
(343,365,c)
);
},
{
closed = 1;
nodes = (
(709,710,l),
(709,841,l),
(-36,841,l),
(-36,710,l),
(-36,710,l)
);
}
);
width = 673;
},
{
anchors = (
{
name = bottom;
pos = (377,31);
},
{
name = candra;
pos = (294,840);
},
{
name = nukta;
pos = (108,10);
},
{
name = top;
pos = (475,840);
}
);
layerId = "0DC1F6FB-20EC-4E8F-AE98-F98B5FD714DE";
shapes = (
{
closed = 1;
nodes = (
(428,31,l),
(148,124,o),
(113,233,o),
(113,508,cs),
(113,821,l),
(70,821,l),
(70,508,ls),
(70,217,o),
(109,94,o),
(414,-6,c)
);
},
{
closed = 1;
nodes = (
(294,300,l),
(432,361,o),
(488,426,o),
(488,563,cs),
(488,802,l),
(445,802,l),
(445,563,ls),
(445,438,o),
(394,391,o),
(277,337,c)
);
},
{
closed = 1;
nodes = (
(580,797,l),
(580,840,l),
(-36,840,l),
(-36,797,l),
(-36,797,l)
);
}
);
width = 544;
}
);
unicode = 2319;
},
{
color = 9;
glyphname = "e_uMatra-deva";
layers = (
{
anchors = (
{
name = bottom;
pos = (509,-299);
},
{
name = nukta;
pos = (96,98);
},
{
name = top;
pos = (586,841);
}
);
guides = (
{
angle = 90;
pos = (581,0);
}
);
layerId = "B3961A9D-C6DC-4F74-9770-9C992C479D86";
shapes = (
{
closed = 1;
nodes = (
(450,-42,o),
(533,-43,o),
(535,-118,cs),
(536,-169,o),
(510,-203,o),
(395,-191,cs),
(299,-178,o),
(272,-164,o),
(179,-125,c),
(125,-247,l),
(236,-306,o),
(320,-323,o),
(410,-328,cs),
(566,-337,o),
(696,-319,o),
(697,-118,cs),
(697,24,o),
(617,92,o),
(467,88,c),
(227,166,o),
(239,332,o),
(239,443,cs),
(239,775,l),
(77,775,l),
(77,464,ls),
(77,233,o),
(91,56,o),
(408,-42,c)
);
},
{
closed = 1;
nodes = (
(406,246,l),
(586,312,o),
(613,416,o),
(613,564,cs),
(613,775,l),
(451,775,l),
(451,553,ls),
(451,416,o),
(406,392,o),
(343,365,c)
);
},
{
closed = 1;
nodes = (
(709,710,l),
(709,841,l),
(-36,841,l),
(-36,710,l),
(-36,710,l)
);
}
);
width = 673;
},
{
anchors = (
{
name = bottom;
pos = (426,-282);
},
{
name = nukta;
pos = (102,22);
},
{
name = top;
pos = (474,840);
}
);
layerId = "0DC1F6FB-20EC-4E8F-AE98-F98B5FD714DE";
shapes = (
{
closed = 1;
nodes = (
(487,-10,o),
(524,-29,o),
(526,-125,cs),
(522,-221,o),
(460,-252,o),
(338,-241,cs),
(242,-233,o),
(184,-204,o),
(106,-167,c),
(90,-204,l),
(181,-252,o),
(248,-276,o),
(338,-283,cs),
(502,-295,o),
(568,-232,o),
(568,-125,cs),
(568,-37,o),
(544,37,o),
(362,34,c),
(88,125,o),
(113,235,o),
(113,508,cs),
(113,821,l),
(70,821,l),
(70,508,ls),
(70,217,o),
(52,85,o),
(354,-6,c)
);
},
{
closed = 1;
nodes = (
(294,300,l),
(432,361,o),
(488,426,o),
(488,563,cs),
(488,802,l),
(445,802,l),
(445,563,ls),
(445,438,o),
(394,391,o),
(277,337,c)
);
},
{
closed = 1;
nodes = (
(580,797,l),
(580,840,l),
(-36,840,l),
(-36,797,l),
(-36,797,l)
);
}
);
width = 544;
}
);
},
{
color = 9;
glyphname = "ai-deva";
kernLeft = vowelI.dv;
kernRight = Chandrabindu.dv;
layers = (
{
anchors = (
{
name = bottom;
pos = (451,79);
},
{
name = candra;
pos = (337,1356);
},
{
name = nukta;
pos = (156,-17);
},
{
name = top;
pos = (588,841);
}
);
guides = (
{
angle = 90;
pos = (376,0);
},
{
angle = 90;
pos = (511,0);
}
);
layerId = "B3961A9D-C6DC-4F74-9770-9C992C479D86";
shapes = (
{
closed = 1;
nodes = (
(528,86,l),
(246,176,o),
(239,332,o),
(239,443,cs),
(239,775,l),
(77,775,l),
(77,464,ls),
(77,233,o),
(122,56,o),
(464,-42,c)
);
},
{
closed = 1;
nodes = (
(586,312,o),
(613,416,o),
(613,564,cs),
(613,775,l),
(451,775,l),
(451,553,ls),
(451,416,o),
(406,392,o),
(343,365,c),
(406,246,l),
(406,246,l)
);
},
{
closed = 1;
nodes = (
(709,710,l),
(709,841,l),
(-36,841,l),
(-36,710,l),
(-36,710,l)
);
},
{
closed = 1;
nodes = (
(608,839,l),
(539,1061,l),
(491,1195,o),
(426,1230,o),
(212,1158,c),
(254,1025,l),
(360,1058,o),
(383,1046,o),
(398,1001,cs),
(451,844,l),
(451,839,l),
(451,839,l)
);
}
);
width = 673;
},
{
anchors = (
{
name = bottom;
pos = (377,31);
},
{
name = candra;
pos = (278,840);
},
{
name = nukta;
pos = (108,10);
},
{
name = top;
pos = (473,840);
}
);
guides = (
{
angle = 90;
pos = (371,0);
},
{
angle = 90;
pos = (407,0);
}
);
layerId = "0DC1F6FB-20EC-4E8F-AE98-F98B5FD714DE";
shapes = (
{
closed = 1;
nodes = (
(428,31,l),
(148,124,o),
(113,233,o),
(113,508,cs),
(113,821,l),
(70,821,l),
(70,508,ls),
(70,217,o),
(109,94,o),
(414,-6,c)
);
},
{
closed = 1;
nodes = (
(432,361,o),
(488,426,o),
(488,563,cs),
(488,802,l),
(445,802,l),
(445,563,ls),
(445,438,o),
(394,391,o),
(277,337,c),
(294,300,l),
(294,300,l)
);
},
{
closed = 1;
nodes = (
(580,797,l),
(580,840,l),
(-36,840,l),
(-36,797,l),
(-36,797,l)
);
},
{
closed = 1;
nodes = (
(488,839,l),
(448,1014,ls),
(424,1116,o),
(356,1109,o),
(274,1088,c),
(286,1048,l),
(373,1069,o),
(392,1062,o),
(410,988,cs),
(445,842,l),
(445,839,l),
(445,839,l)
);
}
);
width = 544;
}
);
unicode = 2320;
},
{
color = 9;
glyphname = "oCandra-deva";
kernLeft = vowelShortA.dv;
kernRight = Chandrabindu.dv;
layers = (
{
anchors = (
{
name = bottom;
pos = (779,0);
},
{
name = candra;
pos = (404,954);
},
{
name = nukta;
pos = (272,0);
},
{
name = top;
pos = (821,841);
}
);
guides = (
{
angle = 90;
pos = (616,0);
},
{
angle = 90;
pos = (1081,0);
}
);
layerId = "B3961A9D-C6DC-4F74-9770-9C992C479D86";
shapes = (
{
closed = 1;
nodes = (
(847,0,l),
(847,710,l),
(1063,710,l),
(1063,0,l),
(1226,0,l),
(1226,710,l),
(1355,710,l),
(1355,841,l),
(684,841,l),
(684,486,l),
(458,486,l),
(458,491,l),
(499,505,o),
(503,540,o),
(503,578,cs),
(503,680,ls),
(503,829,o),
(380,856,o),
(259,856,cs),
(202,856,o),
(158,852,o),
(78,824,c),
(113,694,l),
(160,708,o),
(210,713,o),
(239,713,cs),
(312,713,o),
(340,697,o),
(341,655,cs),
(342,589,ls),
(342,565,o),
(344,528,o),
(304,528,cs),
(157,528,l),
(157,406,l),
(304,406,ls),
(335,406,o),
(354,395,o),
(354,360,cs),
(354,287,ls),
(354,209,o),
(300,200,o),
(257,200,cs),
(230,200,o),
(174,203,o),
(95,246,c),
(35,132,l),
(103,89,o),
(180,68,o),
(258,65,cs),
(443,58,o),
(516,126,o),
(516,269,cs),
(516,295,ls),
(516,334,o),
(516,348,o),
(493,367,c),
(494,372,l),
(684,372,l),
(684,0,l)
);
},
{
closed = 1;
nodes = (
(1148,1176,l),
(1147,1115,o),
(1112,1069,o),
(1048,1069,cs),
(989,1069,ls),
(924,1069,o),
(890,1116,o),
(888,1176,c),
(749,1169,l),
(755,1049,o),
(812,930,o),
(977,930,cs),
(1060,930,ls),
(1218,930,o),
(1283,1042,o),
(1288,1169,c)
);
}
);
width = 1319;
},
{
anchors = (
{
name = bottom;
pos = (624,0);
},
{
name = candra;
pos = (482,840);
},
{
name = nukta;
pos = (198,0);
},
{
name = top;
pos = (877,839);
}
);
guides = (
{
pos = (0,11);
},
{
angle = 90;
pos = (704,0);
}
);
layerId = "0DC1F6FB-20EC-4E8F-AE98-F98B5FD714DE";
shapes = (
{
closed = 1;
nodes = (
(648,0,l),
(648,797,l),
(847,797,l),
(847,0,l),
(890,0,l),
(890,797,l),
(1021,797,l),
(1021,840,l),
(605,840,l),
(605,468,l),
(342,468,l),
(342,472,l),
(376,481,o),
(410,510,o),
(410,583,cs),
(410,707,ls),
(410,794,o),
(366,846,o),
(236,846,cs),
(174,846,o),
(126,839,o),
(65,817,c),
(70,772,l),
(119,793,o),
(196,802,o),
(236,802,cs),
(314,802,o),
(365,780,o),
(366,707,cs),
(367,602,ls),
(367,571,o),
(367,486,o),
(240,486,cs),
(107,486,l),
(107,444,l),
(240,444,ls),
(295,444,o),
(382,437,o),
(382,328,cs),
(382,257,ls),
(382,176,o),
(336,106,o),
(202,106,cs),
(145,106,o),
(100,118,o),
(44,142,c),
(28,101,l),
(78,79,o),
(118,66,o),
(202,62,cs),
(307,62,o),
(424,104,o),
(424,257,cs),
(424,340,ls),
(424,370,o),
(420,401,o),
(394,421,c),
(395,425,l),
(605,425,l),
(605,0,l)
);
},
{
closed = 1;
nodes = (
(1020,1099,l),
(1020,1000,o),
(978,961,o),
(887,961,cs),
(872,961,ls),
(781,961,o),
(742,1000,o),
(739,1099,c),
(696,1092,l),
(702,1027,o),
(709,918,o),
(872,918,cs),
(887,918,ls),
(1046,918,o),
(1057,1020,o),
(1063,1092,c)
);
}
);
width = 982;
}
);
unicode = 2321;
},
{
color = 9;
glyphname = "o-deva";
kernLeft = vowelShortA.dv;
kernRight = Chandrabindu.dv;
layers = (
{
anchors = (
{
name = bottom;
pos = (779,0);
},
{
name = candra;
pos = (404,954);
},
{
name = nukta;
pos = (272,0);
},
{
name = top;
pos = (1354,841);
}
);
guides = (
{
angle = 90;
pos = (1021,0);
},
{
angle = 90;
pos = (1021,727);
},
{
angle = 90;
pos = (886,727);
}
);
layerId = "B3961A9D-C6DC-4F74-9770-9C992C479D86";
shapes = (
{
closed = 1;
nodes = (
(847,0,l),
(847,710,l),
(1063,710,l),
(1063,0,l),
(1226,0,l),
(1226,710,l),
(1355,710,l),
(1355,841,l),
(1222,841,l),
(1153,1061,ls),
(1110,1195,o),
(1040,1230,o),
(827,1158,c),
(869,1025,l),
(974,1058,o),
(998,1046,o),
(1013,1001,cs),
(1063,844,l),
(1063,841,l),
(684,841,l),
(684,486,l),
(458,486,l),
(458,491,l),
(499,505,o),
(503,540,o),
(503,578,cs),
(503,680,ls),
(503,829,o),
(380,856,o),
(259,856,cs),
(202,856,o),
(158,852,o),
(78,824,c),
(113,694,l),
(160,708,o),
(210,713,o),
(239,713,cs),
(312,713,o),
(340,697,o),
(341,655,cs),
(342,589,ls),
(342,565,o),
(344,528,o),
(304,528,cs),
(157,528,l),
(157,406,l),
(304,406,ls),
(335,406,o),
(354,395,o),
(354,360,cs),
(354,287,ls),
(354,209,o),
(300,200,o),
(257,200,cs),
(230,200,o),
(174,203,o),
(95,246,c),
(35,132,l),
(103,89,o),
(180,68,o),
(258,65,cs),
(443,58,o),
(516,126,o),
(516,269,cs),
(516,295,ls),
(516,334,o),
(516,348,o),
(493,367,c),
(494,372,l),
(684,372,l),
(684,0,l),
(684,0,l)
);
}
);
width = 1319;
},
{
anchors = (
{
name = bottom;
pos = (624,0);
},
{
name = candra;
pos = (871,840);
},
{
name = nukta;
pos = (198,0);
},
{
name = top;
pos = (943,841);
}
);
guides = (
{
angle = 90;
pos = (739,0);
},
{
angle = 90;
pos = (703,0);
}
);
layerId = "0DC1F6FB-20EC-4E8F-AE98-F98B5FD714DE";
shapes = (
{
closed = 1;
nodes = (
(644,0,l),
(644,797,l),
(844,797,l),
(844,0,l),
(887,0,l),
(887,797,l),
(1018,797,l),
(1018,840,l),
(887,840,l),
(845,1014,ls),
(821,1116,o),
(754,1109,o),
(671,1088,c),
(683,1048,l),
(770,1069,o),
(790,1062,o),
(808,988,cs),
(844,842,l),
(844,840,l),
(601,840,l),
(601,468,l),
(338,468,l),
(338,472,l),
(372,481,o),
(407,510,o),
(407,583,cs),
(407,707,ls),
(407,794,o),
(362,846,o),
(233,846,cs),
(170,846,o),
(122,839,o),
(61,817,c),
(66,772,l),
(115,793,o),
(192,802,o),
(233,802,cs),
(311,802,o),
(361,780,o),
(362,707,cs),
(364,602,ls),
(364,571,o),
(364,486,o),
(236,486,cs),
(103,486,l),
(103,444,l),
(236,444,ls),
(292,444,o),
(378,437,o),
(378,328,cs),
(378,257,ls),
(378,176,o),
(332,106,o),
(198,106,cs),
(142,106,o),
(96,118,o),
(41,142,c),
(24,101,l),
(74,79,o),
(114,66,o),
(198,62,cs),
(304,62,o),
(420,104,o),
(420,257,cs),
(420,340,ls),
(420,370,o),
(416,401,o),
(390,421,c),
(391,425,l),
(601,425,l),
(601,0,l),
(601,0,l)
);
}
);
width = 982;
}
);
unicode = 2323;
},
{
color = 9;
glyphname = "oShort-deva";
kernLeft = vowelShortA.dv;
kernRight = Chandrabindu.dv;
layers = (
{
anchors = (
{
name = bottom;
pos = (779,0);
},
{
name = candra;
pos = (404,954);
},
{
name = nukta;
pos = (272,0);
},
{
name = top;
pos = (821,841);
}
);
layerId = "B3961A9D-C6DC-4F74-9770-9C992C479D86";
shapes = (
{
closed = 1;
nodes = (
(847,0,l),
(847,710,l),
(1063,710,l),
(1063,0,l),
(1226,0,l),
(1226,710,l),
(1355,710,l),
(1355,841,l),
(1224,841,l),
(1224,848,ls),
(1216,1021,o),
(1126,1070,o),
(980,1096,cs),
(854,1117,o),
(829,1164,o),
(828,1225,c),
(666,1225,l),
(674,1044,o),
(766,985,o),
(911,962,cs),
(1034,943,o),
(1060,899,o),
(1063,841,c),
(684,841,l),
(684,486,l),
(458,486,l),
(458,491,l),
(499,505,o),
(503,540,o),
(503,578,cs),
(503,680,ls),
(503,829,o),
(380,856,o),
(259,856,cs),
(202,856,o),
(158,852,o),
(78,824,c),
(113,694,l),
(160,708,o),
(210,713,o),
(239,713,cs),
(312,713,o),
(340,697,o),
(341,655,cs),
(342,589,ls),
(342,565,o),
(344,528,o),
(304,528,cs),
(157,528,l),
(157,406,l),
(304,406,ls),
(335,406,o),
(354,395,o),
(354,360,cs),
(354,287,ls),
(354,209,o),
(300,200,o),
(257,200,cs),
(230,200,o),
(174,203,o),
(95,246,c),
(35,132,l),
(103,89,o),
(180,68,o),
(258,65,cs),
(443,58,o),
(516,126,o),
(516,269,cs),
(516,295,ls),
(516,334,o),
(516,348,o),
(493,367,c),
(494,372,l),
(684,372,l),
(684,0,l),
(684,0,l)
);
}
);
width = 1319;
},
{
anchors = (
{
name = bottom;
pos = (624,0);
},
{
name = candra;
pos = (482,840);
},
{
name = nukta;
pos = (198,0);
},
{
name = top;
pos = (631,839);
}
);
layerId = "0DC1F6FB-20EC-4E8F-AE98-F98B5FD714DE";
shapes = (
{
closed = 1;
nodes = (
(644,0,l),
(644,797,l),
(844,797,l),
(844,0,l),
(887,0,l),
(887,797,l),
(1018,797,l),
(1018,840,l),
(887,840,l),
(887,850,ls),
(887,952,o),
(805,979,o),
(684,1004,cs),
(558,1031,o),
(563,1049,o),
(556,1110,c),
(514,1110,l),
(522,997,o),
(565,983,o),
(686,960,cs),
(816,936,o),
(841,901,o),
(844,840,c),
(601,840,l),
(601,468,l),
(338,468,l),
(338,472,l),
(372,481,o),
(407,510,o),
(407,583,cs),
(407,707,ls),
(407,794,o),
(362,846,o),
(233,846,cs),
(170,846,o),
(122,839,o),
(61,817,c),
(66,772,l),
(115,793,o),
(192,802,o),
(233,802,cs),
(311,802,o),
(361,780,o),
(362,707,cs),
(364,602,ls),
(364,571,o),
(364,486,o),
(236,486,cs),
(103,486,l),
(103,444,l),
(236,444,ls),
(292,444,o),
(378,437,o),
(378,328,cs),
(378,257,ls),
(378,176,o),
(332,106,o),
(198,106,cs),
(142,106,o),
(96,118,o),
(41,142,c),
(24,101,l),
(74,79,o),
(114,66,o),
(198,62,cs),
(304,62,o),
(420,104,o),
(420,257,cs),
(420,340,ls),
(420,370,o),
(416,401,o),
(390,421,c),
(391,425,l),
(601,425,l),
(601,0,l),
(601,0,l)
);
}
);
width = 982;
}
);
unicode = 2322;
},
{
color = 9;
glyphname = "au-deva";
kernLeft = vowelShortA.dv;
kernRight = Chandrabindu.dv;
layers = (
{
anchors = (
{
name = bottom;
pos = (779,0);
},
{
name = candra;
pos = (404,954);
},
{
name = nukta;
pos = (272,0);
},
{
name = top;
pos = (821,841);
}
);
layerId = "B3961A9D-C6DC-4F74-9770-9C992C479D86";
shapes = (
{
closed = 1;
nodes = (
(847,0,l),
(847,710,l),
(1063,710,l),
(1063,0,l),
(1226,0,l),
(1226,710,l),
(1355,710,l),
(1355,841,l),
(1225,841,l),
(1138,1117,ls),
(1094,1252,o),
(1025,1286,o),
(811,1214,c),
(847,1099,l),
(964,1129,o),
(988,1108,o),
(1009,1044,cs),
(1020,1013,l),
(1018,1013,l),
(938,1070,o),
(857,1060,o),
(772,1025,c),
(809,906,l),
(878,925,o),
(894,928,o),
(959,899,c),
(1063,844,l),
(1063,841,l),
(684,841,l),
(684,486,l),
(458,486,l),
(458,491,l),
(499,505,o),
(503,540,o),
(503,578,cs),
(503,680,ls),
(503,829,o),
(380,856,o),
(259,856,cs),
(202,856,o),
(158,852,o),
(78,824,c),
(113,694,l),
(160,708,o),
(210,713,o),
(239,713,cs),
(312,713,o),
(340,697,o),
(341,655,cs),
(342,589,ls),
(342,565,o),
(344,528,o),
(304,528,cs),
(157,528,l),
(157,406,l),
(304,406,ls),
(335,406,o),
(354,395,o),
(354,360,cs),
(354,287,ls),
(354,209,o),
(300,200,o),
(257,200,cs),
(230,200,o),
(174,203,o),
(95,246,c),
(35,132,l),
(103,89,o),
(180,68,o),
(258,65,cs),
(443,58,o),
(516,126,o),
(516,269,cs),
(516,295,ls),
(516,334,o),
(516,348,o),
(493,367,c),
(494,372,l),
(684,372,l),
(684,0,l),
(684,0,l)
);
}
);
width = 1319;
},
{
anchors = (
{
name = bottom;
pos = (624,0);
},
{
name = candra;
pos = (482,840);
},
{
name = nukta;
pos = (198,0);
},
{
name = top;
pos = (631,839);
}
);
guides = (
{
angle = 90;
pos = (703,664);
}
);
layerId = "0DC1F6FB-20EC-4E8F-AE98-F98B5FD714DE";
shapes = (
{
closed = 1;
nodes = (
(644,0,l),
(644,797,l),
(844,797,l),
(844,0,l),
(887,0,l),
(887,797,l),
(1018,797,l),
(1018,840,l),
(887,840,l),
(838,1048,ls),
(814,1150,o),
(746,1142,o),
(664,1122,c),
(676,1081,l),
(763,1103,o),
(780,1096,o),
(800,1021,cs),
(817,959,l),
(815,959,l),
(768,1020,o),
(724,1015,o),
(659,996,c),
(671,956,l),
(721,971,o),
(756,974,o),
(787,926,cs),
(844,842,l),
(844,840,l),
(601,840,l),
(601,468,l),
(338,468,l),
(338,472,l),
(372,481,o),
(407,510,o),
(407,583,cs),
(407,707,ls),
(407,794,o),
(362,846,o),
(233,846,cs),
(170,846,o),
(122,839,o),
(61,817,c),
(66,772,l),
(115,793,o),
(192,802,o),
(233,802,cs),
(311,802,o),
(361,780,o),
(362,707,cs),
(364,602,ls),
(364,571,o),
(364,486,o),
(236,486,cs),
(103,486,l),
(103,444,l),
(236,444,ls),
(292,444,o),
(378,437,o),
(378,328,cs),
(378,257,ls),
(378,176,o),
(332,106,o),
(198,106,cs),
(142,106,o),
(96,118,o),
(41,142,c),
(24,101,l),
(74,79,o),
(114,66,o),
(198,62,cs),
(304,62,o),
(420,104,o),
(420,257,cs),
(420,340,ls),
(420,370,o),
(416,401,o),
(390,421,c),
(391,425,l),
(601,425,l),
(601,0,l),
(601,0,l)
);
}
);
width = 982;
}
);
unicode = 2324;
},
{
color = 9;
glyphname = "oe-deva";
kernLeft = vowelShortA.dv;
kernRight = Chandrabindu.dv;
layers = (
{
anchors = (
{
name = bottom;
pos = (779,0);
},
{
name = candra;
pos = (404,954);
},
{
name = nukta;
pos = (272,0);
},
{
name = top;
pos = (821,841);
}
);
layerId = "B3961A9D-C6DC-4F74-9770-9C992C479D86";
shapes = (
{
closed = 1;
nodes = (
(847,803,l),
(847,1082,l),
(684,1082,l),
(684,803,l),
(684,803,l)
);
},
{
closed = 1;
nodes = (
(113,694,l),
(160,708,o),
(210,713,o),
(239,713,cs),
(312,713,o),
(340,697,o),
(341,655,cs),
(342,589,ls),
(342,565,o),
(344,528,o),
(304,528,cs),
(157,528,l),
(157,406,l),
(304,406,ls),
(335,406,o),
(354,395,o),
(354,360,cs),
(354,287,ls),
(354,209,o),
(300,200,o),
(257,200,cs),
(230,200,o),
(174,203,o),
(95,246,c),
(35,132,l),
(103,89,o),
(180,68,o),
(258,65,cs),
(443,58,o),
(516,126,o),
(516,269,cs),
(516,295,ls),
(516,334,o),
(516,348,o),
(493,367,c),
(494,372,l),
(539,372,o),
(607,372,o),
(684,372,c),
(684,0,l),
(847,0,l),
(847,710,l),
(976,710,l),
(976,841,l),
(684,841,l),
(684,486,l),
(458,486,l),
(458,491,l),
(499,505,o),
(503,540,o),
(503,578,cs),
(503,680,ls),
(503,829,o),
(380,856,o),
(259,856,cs),
(202,856,o),
(158,852,o),
(78,824,c)
);
}
);
width = 940;
},
{
anchors = (
{
name = bottom;
pos = (624,0);
},
{
name = candra;
pos = (482,840);
},
{
name = nukta;
pos = (198,0);
},
{
name = top;
pos = (631,839);
}
);
layerId = "0DC1F6FB-20EC-4E8F-AE98-F98B5FD714DE";
shapes = (
{
closed = 1;
nodes = (
(644,817,l),
(644,1022,l),
(601,1022,l),
(601,817,l),
(601,817,l)
);
},
{
closed = 1;
nodes = (
(66,772,l),
(115,793,o),
(192,802,o),
(233,802,cs),
(311,802,o),
(361,780,o),
(362,707,cs),
(364,602,ls),
(364,571,o),
(364,486,o),
(236,486,cs),
(103,486,l),
(103,444,l),
(236,444,ls),
(292,444,o),
(378,437,o),
(378,328,cs),
(378,257,ls),
(378,176,o),
(332,106,o),
(198,106,cs),
(142,106,o),
(96,118,o),
(41,142,c),
(24,101,l),
(74,79,o),
(114,66,o),
(198,62,cs),
(304,62,o),
(420,104,o),
(420,257,cs),
(420,340,ls),
(420,370,o),
(416,401,o),
(390,421,c),
(391,425,l),
(454,425,o),
(569,425,o),
(601,425,c),
(601,0,l),
(644,0,l),
(644,797,l),
(775,797,l),
(775,840,l),
(601,840,l),
(601,468,l),
(338,468,l),
(338,472,l),
(372,481,o),
(407,510,o),
(407,583,cs),
(407,707,ls),
(407,794,o),
(362,846,o),
(233,846,cs),
(170,846,o),
(122,839,o),
(61,817,c)
);
}
);
width = 739;
}
);
unicode = 2419;
},
{
color = 9;
glyphname = "ooe-deva";
kernLeft = vowelShortA.dv;
kernRight = Chandrabindu.dv;
layers = (
{
anchors = (
{
name = bottom;
pos = (779,0);
},
{
name = candra;
pos = (404,954);
},
{
name = nukta;
pos = (272,0);
},
{
name = top;
pos = (821,841);
}
);
layerId = "B3961A9D-C6DC-4F74-9770-9C992C479D86";
shapes = (
{
closed = 1;
nodes = (
(847,0,l),
(847,710,l),
(1063,710,l),
(1063,0,l),
(1226,0,l),
(1226,710,l),
(1355,710,l),
(1355,841,l),
(1226,841,l),
(1226,1082,l),
(1063,1082,l),
(1063,841,l),
(684,841,l),
(684,486,l),
(458,486,l),
(458,491,l),
(499,505,o),
(503,540,o),
(503,578,cs),
(503,680,ls),
(503,829,o),
(380,856,o),
(259,856,cs),
(202,856,o),
(158,852,o),
(78,824,c),
(113,694,l),
(160,708,o),
(210,713,o),
(239,713,cs),
(312,713,o),
(340,697,o),
(341,655,cs),
(342,589,ls),
(342,565,o),
(344,528,o),
(304,528,cs),
(157,528,l),
(157,406,l),
(304,406,ls),
(335,406,o),
(354,395,o),
(354,360,cs),
(354,287,ls),
(354,209,o),
(300,200,o),
(257,200,cs),
(230,200,o),
(174,203,o),
(95,246,c),
(35,132,l),
(103,89,o),
(180,68,o),
(258,65,cs),
(443,58,o),
(516,126,o),
(516,269,cs),
(516,295,ls),
(516,334,o),
(516,348,o),
(493,367,c),
(494,372,l),
(684,372,l),
(684,0,l),
(684,0,l)
);
}
);
width = 1319;
},
{
anchors = (
{
name = bottom;
pos = (624,0);
},
{
name = candra;
pos = (482,840);
},
{
name = nukta;
pos = (198,0);
},
{
name = top;
pos = (631,839);
}
);
layerId = "0DC1F6FB-20EC-4E8F-AE98-F98B5FD714DE";
shapes = (
{
closed = 1;
nodes = (
(644,0,l),
(644,797,l),
(844,797,l),
(844,0,l),
(887,0,l),
(887,797,l),
(1018,797,l),
(1018,840,l),
(887,840,l),
(887,1022,l),
(844,1022,l),
(844,840,l),
(601,840,l),
(601,468,l),
(338,468,l),
(338,472,l),
(372,481,o),
(407,510,o),
(407,583,cs),
(407,707,ls),
(407,794,o),
(362,846,o),
(233,846,cs),
(170,846,o),
(122,839,o),
(61,817,c),
(66,772,l),
(115,793,o),
(192,802,o),
(233,802,cs),
(311,802,o),
(361,780,o),
(362,707,cs),
(364,602,ls),
(364,571,o),
(364,486,o),
(236,486,cs),
(103,486,l),
(103,444,l),
(236,444,ls),
(292,444,o),
(378,437,o),
(378,328,cs),
(378,257,ls),
(378,176,o),
(332,106,o),
(198,106,cs),
(142,106,o),
(96,118,o),
(41,142,c),
(24,101,l),
(74,79,o),
(114,66,o),
(198,62,cs),
(304,62,o),
(420,104,o),
(420,257,cs),
(420,340,ls),
(420,370,o),
(416,401,o),
(390,421,c),
(391,425,l),
(601,425,l),
(601,0,l),
(601,0,l)
);
}
);
width = 982;
}
);
unicode = 2420;
},
{
color = 9;
glyphname = "aw-deva";
kernLeft = vowelShortA.dv;
kernRight = Chandrabindu.dv;
layers = (
{
anchors = (
{
name = bottom;
pos = (779,0);
},
{
name = candra;
pos = (404,954);
},
{
name = nukta;
pos = (272,0);
},
{
name = top;
pos = (821,841);
}
);
guides = (
{
pos = (0,965);
},
{
pos = (0,1075);
},
{
angle = 90;
pos = (886,656);
},
{
angle = 90;
pos = (1022,656);
}
);
layerId = "B3961A9D-C6DC-4F74-9770-9C992C479D86";
shapes = (
{
closed = 1;
nodes = (
(847,0,l),
(847,710,l),
(1063,710,l),
(1063,0,l),
(1226,0,l),
(1226,710,l),
(1355,710,l),
(1355,841,l),
(1235,841,l),
(1258,959,o),
(1297,1104,o),
(1118,1184,cs),
(1010,1234,o),
(964,1237,o),
(964,1307,c),
(810,1308,l),
(810,1145,o),
(928,1124,o),
(1010,1092,cs),
(1121,1049,o),
(1124,1021,o),
(1124,960,c),
(1120,960,l),
(1084,1013,o),
(1022,1031,o),
(940,1044,cs),
(853,1057,o),
(811,1066,o),
(811,1129,c),
(659,1129,l),
(659,946,o),
(780,934,o),
(884,922,cs),
(1009,907,o),
(1058,896,o),
(1063,841,c),
(684,841,l),
(684,486,l),
(458,486,l),
(458,491,l),
(499,505,o),
(503,540,o),
(503,578,cs),
(503,680,ls),
(503,829,o),
(380,856,o),
(259,856,cs),
(202,856,o),
(158,852,o),
(78,824,c),
(113,694,l),
(160,708,o),
(210,713,o),
(239,713,cs),
(312,713,o),
(340,697,o),
(341,655,cs),
(342,589,ls),
(342,565,o),
(344,528,o),
(304,528,cs),
(157,528,l),
(157,406,l),
(304,406,ls),
(335,406,o),
(354,395,o),
(354,360,cs),
(354,287,ls),
(354,209,o),
(300,200,o),
(257,200,cs),
(230,200,o),
(174,203,o),
(95,246,c),
(35,132,l),
(103,89,o),
(180,68,o),
(258,65,cs),
(443,58,o),
(516,126,o),
(516,269,cs),
(516,295,ls),
(516,334,o),
(516,348,o),
(493,367,c),
(494,372,l),
(684,372,l),
(684,0,l),
(684,0,l)
);
}
);
width = 1319;
},
{
anchors = (
{
name = bottom;
pos = (624,0);
},
{
name = candra;
pos = (482,840);
},
{
name = nukta;
pos = (198,0);
},
{
name = top;
pos = (631,839);
}
);
guides = (
{
pos = (0,958);
}
);
layerId = "0DC1F6FB-20EC-4E8F-AE98-F98B5FD714DE";
shapes = (
{
closed = 1;
nodes = (
(644,0,l),
(644,797,l),
(844,797,l),
(844,0,l),
(887,0,l),
(887,797,l),
(1018,797,l),
(1018,840,l),
(895,840,l),
(912,905,o),
(911,979,o),
(804,1018,cs),
(744,1039,o),
(689,1063,o),
(689,1130,c),
(648,1130,l),
(644,1039,o),
(718,1002,o),
(790,979,cs),
(868,953,o),
(869,890,o),
(865,853,c),
(863,853,l),
(844,918,o),
(792,940,o),
(719,953,cs),
(643,966,o),
(611,976,o),
(611,1014,c),
(571,1014,l),
(571,938,o),
(638,925,o),
(712,913,cs),
(790,900,o),
(827,871,o),
(835,840,c),
(601,840,l),
(601,468,l),
(338,468,l),
(338,472,l),
(372,481,o),
(407,510,o),
(407,583,cs),
(407,707,ls),
(407,794,o),
(362,846,o),
(233,846,cs),
(170,846,o),
(122,839,o),
(61,817,c),
(66,772,l),
(115,793,o),
(192,802,o),
(233,802,cs),
(311,802,o),
(361,780,o),
(362,707,cs),
(364,602,ls),
(364,571,o),
(364,486,o),
(236,486,cs),
(103,486,l),
(103,444,l),
(236,444,ls),
(292,444,o),
(378,437,o),
(378,328,cs),
(378,257,ls),
(378,176,o),
(332,106,o),
(198,106,cs),
(142,106,o),
(96,118,o),
(41,142,c),
(24,101,l),
(74,79,o),
(114,66,o),
(198,62,cs),
(304,62,o),
(420,104,o),
(420,257,cs),
(420,340,ls),
(420,370,o),
(416,401,o),
(390,421,c),
(391,425,l),
(601,425,l),
(601,0,l),
(601,0,l)
);
}
);
width = 982;
}
);
unicode = 2421;
},
{
color = 9;
glyphname = "ue-deva";
kernLeft = vowelShortA.dv;
kernRight = Chandrabindu.dv;
layers = (
{
anchors = (
{
name = bottom;
pos = (779,0);
},
{
name = candra;
pos = (404,954);
},
{
name = nukta;
pos = (272,0);
},
{
name = top;
pos = (821,841);
}
);
guides = (
{
angle = 90;
pos = (706,-16);
}
);
layerId = "B3961A9D-C6DC-4F74-9770-9C992C479D86";
shapes = (
{
closed = 1;
nodes = (
(252,-200,l),
(423,-273,o),
(653,-279,o),
(847,-200,c),
(847,-74,l),
(675,-157,o),
(422,-159,o),
(252,-74,c)
);
},
{
closed = 1;
nodes = (
(113,694,l),
(160,708,o),
(210,713,o),
(239,713,cs),
(312,713,o),
(340,697,o),
(341,655,cs),
(342,589,ls),
(342,565,o),
(344,528,o),
(304,528,cs),
(157,528,l),
(157,406,l),
(304,406,ls),
(335,406,o),
(354,395,o),
(354,360,cs),
(354,287,ls),
(354,209,o),
(300,200,o),
(257,200,cs),
(230,200,o),
(174,203,o),
(95,246,c),
(35,132,l),
(103,89,o),
(180,68,o),
(258,65,cs),
(443,58,o),
(516,126,o),
(516,269,cs),
(516,295,ls),
(516,334,o),
(516,348,o),
(493,367,c),
(494,372,l),
(539,372,o),
(607,372,o),
(684,372,c),
(684,0,l),
(847,0,l),
(847,710,l),
(976,710,l),
(976,841,l),
(684,841,l),
(684,486,l),
(458,486,l),
(458,491,l),
(499,505,o),
(503,540,o),
(503,578,cs),
(503,680,ls),
(503,829,o),
(380,856,o),
(259,856,cs),
(202,856,o),
(158,852,o),
(78,824,c)
);
}
);
width = 940;
},
{
anchors = (
{
name = bottom;
pos = (624,0);
},
{
name = candra;
pos = (482,840);
},
{
name = nukta;
pos = (198,0);
},
{
name = top;
pos = (631,839);
}
);
layerId = "0DC1F6FB-20EC-4E8F-AE98-F98B5FD714DE";
shapes = (
{
closed = 1;
nodes = (
(94,-91,l),
(234,-150,o),
(425,-155,o),
(581,-91,c),
(581,-47,l),
(443,-115,o),
(230,-117,o),
(94,-47,c)
);
},
{
closed = 1;
nodes = (
(66,772,l),
(115,793,o),
(192,802,o),
(233,802,cs),
(311,802,o),
(361,780,o),
(362,707,cs),
(364,602,ls),
(364,571,o),
(364,486,o),
(236,486,cs),
(103,486,l),
(103,444,l),
(236,444,ls),
(292,444,o),
(378,437,o),
(378,328,cs),
(378,257,ls),
(378,176,o),
(332,106,o),
(198,106,cs),
(142,106,o),
(96,118,o),
(41,142,c),
(24,101,l),
(74,79,o),
(114,66,o),
(198,62,cs),
(304,62,o),
(420,104,o),
(420,257,cs),
(420,340,ls),
(420,370,o),
(416,401,o),
(390,421,c),
(391,425,l),
(454,425,o),
(569,425,o),
(601,425,c),
(601,0,l),
(644,0,l),
(644,797,l),
(775,797,l),
(775,840,l),
(601,840,l),
(601,468,l),
(338,468,l),
(338,472,l),
(372,481,o),
(407,510,o),
(407,583,cs),
(407,707,ls),
(407,794,o),
(362,846,o),
(233,846,cs),
(170,846,o),
(122,839,o),
(61,817,c)
);
}
);
width = 739;
}
);
unicode = 2422;
},
{
color = 9;
glyphname = "uue-deva";
kernLeft = vowelShortA.dv;
kernRight = Chandrabindu.dv;
layers = (
{
anchors = (
{
name = bottom;
pos = (779,0);
},
{
name = candra;
pos = (404,954);
},
{
name = nukta;
pos = (272,0);
},
{
name = top;
pos = (821,841);
}
);
guides = (
{
angle = 90;
pos = (706,-16);
}
);
layerId = "B3961A9D-C6DC-4F74-9770-9C992C479D86";
shapes = (
{
closed = 1;
nodes = (
(252,-200,l),
(423,-273,o),
(653,-279,o),
(847,-200,c),
(847,-74,l),
(675,-157,o),
(422,-159,o),
(252,-74,c)
);
},
{
closed = 1;
nodes = (
(252,-440,l),
(423,-513,o),
(653,-519,o),
(847,-440,c),
(847,-314,l),
(675,-397,o),
(422,-399,o),
(252,-314,c)
);
},
{
closed = 1;
nodes = (
(113,694,l),
(160,708,o),
(210,713,o),
(239,713,cs),
(312,713,o),
(340,697,o),
(341,655,cs),
(342,589,ls),
(342,565,o),
(344,528,o),
(304,528,cs),
(157,528,l),
(157,406,l),
(304,406,ls),
(335,406,o),
(354,395,o),
(354,360,cs),
(354,287,ls),
(354,209,o),
(300,200,o),
(257,200,cs),
(230,200,o),
(174,203,o),
(95,246,c),
(35,132,l),
(103,89,o),
(180,68,o),
(258,65,cs),
(443,58,o),
(516,126,o),
(516,269,cs),
(516,295,ls),
(516,334,o),
(516,348,o),
(493,367,c),
(494,372,l),
(539,372,o),
(607,372,o),
(684,372,c),
(684,0,l),
(847,0,l),
(847,710,l),
(976,710,l),
(976,841,l),
(684,841,l),
(684,486,l),
(458,486,l),
(458,491,l),
(499,505,o),
(503,540,o),
(503,578,cs),
(503,680,ls),
(503,829,o),
(380,856,o),
(259,856,cs),
(202,856,o),
(158,852,o),
(78,824,c)
);
}
);
width = 940;
},
{
anchors = (
{
name = bottom;
pos = (624,0);
},
{
name = candra;
pos = (482,840);
},
{
name = nukta;
pos = (198,0);
},
{
name = top;
pos = (631,839);
}
);
layerId = "0DC1F6FB-20EC-4E8F-AE98-F98B5FD714DE";
shapes = (
{
closed = 1;
nodes = (
(94,-91,l),
(234,-150,o),
(425,-155,o),
(581,-91,c),
(581,-47,l),
(443,-115,o),
(230,-117,o),
(94,-47,c)
);
},
{
closed = 1;
nodes = (
(94,-223,l),
(234,-282,o),
(425,-287,o),
(581,-223,c),
(581,-179,l),
(443,-247,o),
(230,-249,o),
(94,-179,c)
);
},
{
closed = 1;
nodes = (
(66,772,l),
(115,793,o),
(192,802,o),
(233,802,cs),
(311,802,o),
(361,780,o),
(362,707,cs),
(364,602,ls),
(364,571,o),
(364,486,o),
(236,486,cs),
(103,486,l),
(103,444,l),
(236,444,ls),
(292,444,o),
(378,437,o),
(378,328,cs),
(378,257,ls),
(378,176,o),
(332,106,o),
(198,106,cs),
(142,106,o),
(96,118,o),
(41,142,c),
(24,101,l),
(74,79,o),
(114,66,o),
(198,62,cs),
(304,62,o),
(420,104,o),
(420,257,cs),
(420,340,ls),
(420,370,o),
(416,401,o),
(390,421,c),
(391,425,l),
(454,425,o),
(569,425,o),
(601,425,c),
(601,0,l),
(644,0,l),
(644,797,l),
(775,797,l),
(775,840,l),
(601,840,l),
(601,468,l),
(338,468,l),
(338,472,l),
(372,481,o),
(407,510,o),
(407,583,cs),
(407,707,ls),
(407,794,o),
(362,846,o),
(233,846,cs),
(170,846,o),
(122,839,o),
(61,817,c)
);
}
);
width = 739;
}
);
unicode = 2423;
},
{
color = 9;
glyphname = "k_lVocalic-deva";
kernLeft = vowelI.dv;
layers = (
{
anchors = (
{
name = bottom;
pos = (1336,-110);
},
{
name = nukta;
pos = (140,100);
},
{
name = top;
pos = (506,841);
}
);
layerId = "B3961A9D-C6DC-4F74-9770-9C992C479D86";
shapes = (
{
closed = 1;
nodes = (
(532,0,l),
(532,344,ls),
(532,395,o),
(565,410,o),
(606,410,cs),
(648,410,o),
(690,410,o),
(732,410,cs),
(847,410,l),
(893,552,l),
(803,552,ls),
(758,552,o),
(714,552,o),
(670,552,cs),
(619,552,o),
(565,530,o),
(535,485,c),
(532,485,l),
(532,710,l),
(721,710,l),
(721,841,l),
(-36,841,l),
(-36,710,l),
(370,710,l),
(370,542,l),
(366,542,l),
(336,587,o),
(282,601,o),
(232,601,cs),
(115,601,o),
(59,552,o),
(59,434,cs),
(59,272,ls),
(59,156,o),
(115,106,o),
(232,106,cs),
(282,106,o),
(336,120,o),
(366,164,c),
(370,164,l),
(370,0,l),
(370,0,l)
);
},
{
closed = 1;
nodes = (
(241,227,o),
(221,250,o),
(221,300,cs),
(221,408,ls),
(221,458,o),
(241,480,o),
(293,480,cs),
(347,480,o),
(370,461,o),
(370,408,cs),
(370,300,ls),
(370,247,o),
(347,227,o),
(293,227,cs)
);
},
{
closed = 1;
nodes = (
(1418,-96,o),
(1471,-84,o),
(1505,-70,c),
(1481,42,l),
(1457,35,o),
(1429,28,o),
(1393,28,cs),
(1318,28,o),
(1336,128,o),
(1357,180,cs),
(1378,230,o),
(1410,312,o),
(1410,392,cs),
(1410,462,o),
(1380,510,o),
(1314,535,c),
(1314,710,l),
(1621,710,l),
(1621,841,l),
(607,841,l),
(607,710,l),
(1151,710,l),
(1151,547,l),
(1110,540,o),
(1078,518,o),
(1057,482,c),
(1054,482,l),
(1021,534,o),
(959,552,o),
(893,552,cs),
(773,552,o),
(695,493,o),
(695,360,cs),
(695,272,o),
(720,188,o),
(758,0,c),
(919,0,l),
(869,203,o),
(853,264,o),
(853,342,cs),
(853,394,o),
(869,420,o),
(917,420,cs),
(971,420,o),
(985,389,o),
(985,341,cs),
(985,192,l),
(1120,192,l),
(1124,341,ls),
(1124,389,o),
(1140,420,o),
(1192,420,cs),
(1228,420,o),
(1260,404,o),
(1254,353,cs),
(1248,287,o),
(1202,208,o),
(1187,125,cs),
(1156,-35,o),
(1256,-96,o),
(1369,-96,cs)
);
}
);
width = 1585;
},
{
anchors = (
{
name = bottom;
pos = (1135,-41);
},
{
name = nukta;
pos = (174,30);
},
{
name = top;
pos = (1028,840);
}
);
layerId = "0DC1F6FB-20EC-4E8F-AE98-F98B5FD714DE";
shapes = (
{
closed = 1;
nodes = (
(427,0,l),
(427,402,l),
(431,480,o),
(499,505,o),
(577,509,cs),
(654,509,o),
(599,509,o),
(654,509,cs),
(690,509,l),
(746,551,l),
(664,551,ls),
(551,551,o),
(636,550,o),
(577,551,cs),
(527,552,o),
(461,536,o),
(431,492,c),
(427,492,l),
(427,797,l),
(605,797,l),
(605,840,l),
(-36,840,l),
(-36,797,l),
(384,797,l),
(384,565,l),
(380,565,l),
(350,610,o),
(282,624,o),
(232,624,cs),
(115,624,o),
(49,575,o),
(49,457,cs),
(49,295,ls),
(49,179,o),
(115,128,o),
(232,128,cs),
(282,128,o),
(350,143,o),
(380,187,c),
(384,187,l),
(384,0,l),
(384,0,l)
);
},
{
closed = 1;
nodes = (
(139,170,o),
(92,211,o),
(92,301,cs),
(92,452,ls),
(92,544,o),
(139,582,o),
(232,582,cs),
(329,582,o),
(384,547,o),
(384,446,cs),
(384,301,ls),
(384,206,o),
(329,170,o),
(232,170,cs)
);
},
{
closed = 1;
nodes = (
(1181,-26,o),
(1194,-25,o),
(1207,-24,c),
(1207,18,l),
(1195,17,o),
(1183,16,o),
(1165,16,cs),
(1117,16,o),
(1054,22,o),
(1054,83,cs),
(1054,162,o),
(1164,262,o),
(1164,412,cs),
(1164,482,o),
(1140,544,o),
(1043,552,c),
(1043,797,l),
(1331,797,l),
(1331,840,l),
(516,840,l),
(516,797,l),
(1000,797,l),
(1000,553,l),
(960,551,o),
(908,539,o),
(884,491,c),
(882,491,l),
(846,542,o),
(791,551,o),
(746,551,cs),
(655,551,o),
(595,509,o),
(595,389,cs),
(595,274,o),
(648,132,o),
(677,0,c),
(721,0,l),
(690,125,o),
(637,284,o),
(637,385,cs),
(637,478,o),
(674,509,o),
(746,509,cs),
(846,509,o),
(863,457,o),
(862,372,cs),
(862,270,l),
(904,270,l),
(904,374,ls),
(904,457,o),
(916,511,o),
(1018,511,cs),
(1094,511,o),
(1123,475,o),
(1123,416,cs),
(1123,272,o),
(1010,179,o),
(1010,79,cs),
(1010,-2,o),
(1084,-26,o),
(1163,-26,cs)
);
}
);
width = 1295;
}
);
},
{
color = 9;
glyphname = "k_llVocalic-deva";
kernLeft = vowelI.dv;
layers = (
{
anchors = (
{
name = bottom;
pos = (1387,-275);
},
{
name = nukta;
pos = (188,88);
},
{
name = top;
pos = (1282,841);
}
);
layerId = "B3961A9D-C6DC-4F74-9770-9C992C479D86";
shapes = (
{
closed = 1;
nodes = (
(532,0,l),
(532,344,ls),
(532,395,o),
(565,410,o),
(606,410,cs),
(648,410,o),
(690,410,o),
(732,410,cs),
(802,410,l),
(892,552,l),
(803,552,ls),
(758,552,o),
(714,552,o),
(670,552,cs),
(619,552,o),
(565,530,o),
(535,485,c),
(532,485,l),
(532,710,l),
(721,710,l),
(721,841,l),
(-36,841,l),
(-36,710,l),
(370,710,l),
(370,542,l),
(366,542,l),
(336,587,o),
(282,601,o),
(232,601,cs),
(115,601,o),
(59,552,o),
(59,434,cs),
(59,272,ls),
(59,156,o),
(115,106,o),
(232,106,cs),
(282,106,o),
(336,120,o),
(366,164,c),
(370,164,l),
(370,0,l),
(370,0,l)
);
},
{
closed = 1;
nodes = (
(241,227,o),
(221,250,o),
(221,300,cs),
(221,408,ls),
(221,458,o),
(241,480,o),
(293,480,cs),
(347,480,o),
(370,461,o),
(370,408,cs),
(370,300,ls),
(370,247,o),
(347,227,o),
(293,227,cs)
);
},
{
closed = 1;
nodes = (
(1481,-282,o),
(1541,-257,o),
(1541,-257,c),
(1517,-145,l),
(1490,-154,o),
(1457,-160,o),
(1429,-160,cs),
(1369,-160,o),
(1345,-138,o),
(1345,-96,cs),
(1345,-92,ls),
(1345,-56,o),
(1363,-23,o),
(1424,-23,cs),
(1440,-23,o),
(1456,-23,o),
(1476,-23,c),
(1476,86,l),
(1415,86,ls),
(1313,86,o),
(1331,162,o),
(1363,232,cs),
(1386,280,o),
(1409,312,o),
(1409,392,cs),
(1409,462,o),
(1379,510,o),
(1313,535,c),
(1313,710,l),
(1620,710,l),
(1620,841,l),
(606,841,l),
(606,710,l),
(1150,710,l),
(1150,547,l),
(1109,540,o),
(1076,518,o),
(1056,482,c),
(1052,482,l),
(1020,534,o),
(958,552,o),
(892,552,cs),
(772,552,o),
(694,493,o),
(694,360,cs),
(694,272,o),
(719,188,o),
(757,0,c),
(918,0,l),
(868,203,o),
(852,264,o),
(852,342,cs),
(852,394,o),
(868,420,o),
(916,420,cs),
(970,420,o),
(984,389,o),
(984,341,cs),
(984,192,l),
(1118,192,l),
(1123,341,ls),
(1123,389,o),
(1139,420,o),
(1190,420,cs),
(1226,420,o),
(1259,404,o),
(1253,353,cs),
(1248,308,o),
(1210,227,o),
(1199,176,cs),
(1180,86,o),
(1217,52,o),
(1265,19,c),
(1265,17,l),
(1217,-7,o),
(1190,-47,o),
(1190,-104,cs),
(1190,-115,ls),
(1190,-240,o),
(1282,-282,o),
(1405,-282,cs)
);
}
);
width = 1584;
},
{
anchors = (
{
name = bottom;
pos = (1122,-212);
},
{
name = nukta;
pos = (174,30);
},
{
name = top;
pos = (1028,840);
}
);
layerId = "0DC1F6FB-20EC-4E8F-AE98-F98B5FD714DE";
shapes = (
{
closed = 1;
nodes = (
(427,0,l),
(427,402,l),
(431,480,o),
(499,505,o),
(577,509,cs),
(654,509,o),
(599,509,o),
(654,509,cs),
(696,509,l),
(748,551,l),
(664,551,ls),
(551,551,o),
(628,551,o),
(577,551,cs),
(527,551,o),
(461,536,o),
(431,492,c),
(427,492,l),
(427,797,l),
(605,797,l),
(605,840,l),
(-36,840,l),
(-36,797,l),
(384,797,l),
(384,565,l),
(380,565,l),
(350,610,o),
(282,624,o),
(232,624,cs),
(115,624,o),
(49,575,o),
(49,457,cs),
(49,295,ls),
(49,179,o),
(115,128,o),
(232,128,cs),
(282,128,o),
(350,143,o),
(380,187,c),
(384,187,l),
(384,0,l),
(384,0,l)
);
},
{
closed = 1;
nodes = (
(139,170,o),
(92,211,o),
(92,301,cs),
(92,452,ls),
(92,544,o),
(139,582,o),
(232,582,cs),
(329,582,o),
(384,547,o),
(384,446,cs),
(384,301,ls),
(384,206,o),
(329,170,o),
(232,170,cs)
);
},
{
closed = 1;
nodes = (
(1164,-208,o),
(1211,-204,o),
(1242,-190,c),
(1229,-154,l),
(1202,-163,o),
(1172,-168,o),
(1151,-168,cs),
(1090,-168,o),
(1050,-161,o),
(1049,-103,cs),
(1049,-100,ls),
(1049,-34,o),
(1105,-31,o),
(1151,-31,cs),
(1170,-31,o),
(1189,-31,o),
(1208,-31,c),
(1208,16,l),
(1146,16,ls),
(1096,17,o),
(1055,24,o),
(1055,83,cs),
(1055,162,o),
(1165,262,o),
(1165,412,cs),
(1165,482,o),
(1141,544,o),
(1044,552,c),
(1044,797,l),
(1332,797,l),
(1332,840,l),
(517,840,l),
(517,797,l),
(1001,797,l),
(1001,553,l),
(961,551,o),
(910,539,o),
(886,491,c),
(883,491,l),
(847,542,o),
(792,551,o),
(748,551,cs),
(656,551,o),
(596,509,o),
(596,389,cs),
(596,274,o),
(649,132,o),
(678,0,c),
(722,0,l),
(691,125,o),
(638,284,o),
(638,385,cs),
(638,478,o),
(676,509,o),
(748,509,cs),
(847,509,o),
(864,457,o),
(863,372,cs),
(863,270,l),
(905,270,l),
(905,374,ls),
(905,457,o),
(917,511,o),
(1019,511,cs),
(1096,511,o),
(1124,475,o),
(1124,416,cs),
(1124,272,o),
(1012,179,o),
(1012,79,cs),
(1012,19,o),
(1050,-2,o),
(1097,-8,c),
(1097,-11,l),
(1043,-10,o),
(1007,-42,o),
(1007,-103,cs),
(1007,-107,ls),
(1008,-185,o),
(1058,-208,o),
(1151,-208,cs)
);
}
);
width = 1271;
}
);
},
{
color = 9;
glyphname = "p_lVocalic-deva";
kernLeft = vowelI.dv;
layers = (
{
anchors = (
{
name = bottom;
pos = (1078,-76);
},
{
name = candra;
pos = (835,1356);
},
{
name = nukta;
pos = (169,114);
},
{
name = top;
pos = (1007,841);
}
);
layerId = "B3961A9D-C6DC-4F74-9770-9C992C479D86";
shapes = (
{
closed = 1;
nodes = (
(1139,-96,o),
(1192,-84,o),
(1225,-70,c),
(1201,42,l),
(1177,35,o),
(1150,28,o),
(1114,28,cs),
(1038,28,o),
(1056,128,o),
(1078,180,cs),
(1098,230,o),
(1130,312,o),
(1130,392,cs),
(1130,462,o),
(1100,510,o),
(1034,535,c),
(1034,710,l),
(1342,710,l),
(1342,841,l),
(328,841,l),
(328,710,l),
(871,710,l),
(871,547,l),
(830,540,o),
(798,518,o),
(778,482,c),
(774,482,l),
(742,534,o),
(679,552,o),
(613,552,cs),
(493,552,o),
(415,493,o),
(415,360,cs),
(415,272,o),
(440,188,o),
(479,0,c),
(640,0,l),
(589,203,o),
(574,264,o),
(574,342,cs),
(574,394,o),
(589,420,o),
(637,420,cs),
(691,420,o),
(706,389,o),
(706,341,cs),
(706,192,l),
(840,192,l),
(845,341,ls),
(845,389,o),
(860,420,o),
(912,420,cs),
(948,420,o),
(980,404,o),
(974,353,cs),
(968,287,o),
(923,208,o),
(907,125,cs),
(876,-35,o),
(977,-96,o),
(1090,-96,cs)
);
},
{
closed = 1;
nodes = (
(409,841,l),
(-36,841,l),
(-36,710,l),
(66,710,l),
(66,407,ls),
(66,251,o),
(151,200,o),
(274,202,cs),
(330,202,o),
(413,221,o),
(456,280,c),
(421,419,l),
(404,341,o),
(365,332,o),
(320,331,cs),
(284,330,o),
(228,329,o),
(228,425,cs),
(228,710,l),
(409,710,l),
(409,710,l)
);
}
);
width = 1306;
},
{
anchors = (
{
name = bottom;
pos = (961,-18);
},
{
name = candra;
pos = (962,840);
},
{
name = nukta;
pos = (136,54);
},
{
name = top;
pos = (846,840);
}
);
guides = (
{
pos = (322,-266);
}
);
hints = (
{
place = (620,36);
type = Stem;
}
);
layerId = "0DC1F6FB-20EC-4E8F-AE98-F98B5FD714DE";
shapes = (
{
closed = 1;
nodes = (
(1021,-26,o),
(1034,-25,o),
(1048,-24,c),
(1048,18,l),
(1036,17,o),
(1024,16,o),
(1006,16,cs),
(958,16,o),
(894,22,o),
(894,83,cs),
(894,162,o),
(1004,262,o),
(1004,412,cs),
(1004,482,o),
(980,544,o),
(883,552,c),
(883,797,l),
(1171,797,l),
(1171,840,l),
(356,840,l),
(356,797,l),
(840,797,l),
(840,553,l),
(800,551,o),
(749,539,o),
(725,491,c),
(722,491,l),
(686,542,o),
(631,551,o),
(587,551,cs),
(496,551,o),
(436,509,o),
(436,389,cs),
(436,274,o),
(488,132,o),
(517,0,c),
(562,0,l),
(530,125,o),
(478,284,o),
(478,385,cs),
(478,478,o),
(515,509,o),
(587,509,cs),
(686,509,o),
(703,457,o),
(702,372,cs),
(702,270,l),
(744,270,l),
(744,374,ls),
(744,457,o),
(756,511,o),
(858,511,cs),
(935,511,o),
(964,475,o),
(964,416,cs),
(964,272,o),
(851,179,o),
(851,79,cs),
(851,-2,o),
(924,-26,o),
(1003,-26,cs)
);
},
{
closed = 1;
nodes = (
(695,840,l),
(-36,840,l),
(-36,797,l),
(65,797,l),
(65,414,ls),
(65,275,o),
(152,226,o),
(276,226,cs),
(307,226,o),
(425,236,o),
(455,331,c),
(436,397,l),
(436,310,o),
(356,265,o),
(281,264,cs),
(211,262,o),
(107,278,o),
(107,425,cs),
(107,797,l),
(695,797,l),
(695,797,l)
);
}
);
width = 1135;
}
);
},
{
color = 9;
glyphname = "p_llVocalic-deva";
kernLeft = vowelI.dv;
layers = (
{
anchors = (
{
name = candra;
pos = (870,1356);
},
{
name = nukta;
pos = (169,114);
},
{
name = top;
pos = (1001,841);
}
);
layerId = "B3961A9D-C6DC-4F74-9770-9C992C479D86";
shapes = (
{
closed = 1;
nodes = (
(1202,-282,o),
(1262,-257,o),
(1262,-257,c),
(1238,-145,l),
(1212,-154,o),
(1178,-160,o),
(1151,-160,cs),
(1091,-160,o),
(1067,-138,o),
(1067,-96,cs),
(1067,-92,ls),
(1067,-56,o),
(1085,-23,o),
(1146,-23,cs),
(1162,-23,o),
(1177,-23,o),
(1198,-23,c),
(1198,86,l),
(1136,86,ls),
(1034,86,o),
(1052,162,o),
(1085,232,cs),
(1108,280,o),
(1130,312,o),
(1130,392,cs),
(1130,462,o),
(1100,510,o),
(1034,535,c),
(1034,710,l),
(1342,710,l),
(1342,841,l),
(328,841,l),
(328,710,l),
(871,710,l),
(871,547,l),
(830,540,o),
(798,518,o),
(778,482,c),
(774,482,l),
(742,534,o),
(679,552,o),
(613,552,cs),
(493,552,o),
(415,493,o),
(415,360,cs),
(415,272,o),
(440,188,o),
(479,0,c),
(640,0,l),
(589,203,o),
(574,264,o),
(574,342,cs),
(574,394,o),
(589,420,o),
(637,420,cs),
(691,420,o),
(706,389,o),
(706,341,cs),
(706,192,l),
(840,192,l),
(845,341,ls),
(845,389,o),
(860,420,o),
(912,420,cs),
(948,420,o),
(980,404,o),
(974,353,cs),
(970,308,o),
(931,227,o),
(920,176,cs),
(901,86,o),
(938,52,o),
(986,19,c),
(986,17,l),
(938,-7,o),
(912,-47,o),
(912,-104,cs),
(912,-115,ls),
(912,-240,o),
(1003,-282,o),
(1127,-282,cs)
);
},
{
closed = 1;
nodes = (
(409,841,l),
(-36,841,l),
(-36,710,l),
(66,710,l),
(66,407,ls),
(66,251,o),
(151,200,o),
(274,202,cs),
(330,202,o),
(413,221,o),
(456,280,c),
(421,419,l),
(404,341,o),
(365,332,o),
(320,331,cs),
(284,330,o),
(228,329,o),
(228,425,cs),
(228,710,l),
(409,710,l),
(409,710,l)
);
}
);
width = 1306;
},
{
anchors = (
{
name = candra;
pos = (695,840);
},
{
name = nukta;
pos = (136,54);
},
{
name = top;
pos = (862,840);
}
);
layerId = "0DC1F6FB-20EC-4E8F-AE98-F98B5FD714DE";
shapes = (
{
closed = 1;
nodes = (
(1003,-208,o),
(1050,-204,o),
(1081,-190,c),
(1068,-154,l),
(1042,-163,o),
(1012,-168,o),
(990,-168,cs),
(929,-168,o),
(889,-161,o),
(888,-103,cs),
(888,-100,ls),
(888,-34,o),
(944,-31,o),
(990,-31,cs),
(1009,-31,o),
(1028,-31,o),
(1048,-31,c),
(1048,16,l),
(985,16,ls),
(935,17,o),
(894,24,o),
(894,83,cs),
(894,162,o),
(1004,262,o),
(1004,412,cs),
(1004,482,o),
(980,544,o),
(883,552,c),
(883,797,l),
(1171,797,l),
(1171,840,l),
(356,840,l),
(356,797,l),
(840,797,l),
(840,553,l),
(800,551,o),
(749,539,o),
(725,491,c),
(722,491,l),
(686,542,o),
(631,551,o),
(587,551,cs),
(496,551,o),
(436,509,o),
(436,389,cs),
(436,274,o),
(488,132,o),
(517,0,c),
(562,0,l),
(530,125,o),
(478,284,o),
(478,385,cs),
(478,478,o),
(515,509,o),
(587,509,cs),
(686,509,o),
(703,457,o),
(702,372,cs),
(702,270,l),
(744,270,l),
(744,374,ls),
(744,457,o),
(756,511,o),
(858,511,cs),
(935,511,o),
(964,475,o),
(964,416,cs),
(964,272,o),
(851,179,o),
(851,79,cs),
(851,19,o),
(889,-2,o),
(936,-8,c),
(936,-11,l),
(882,-10,o),
(846,-42,o),
(846,-103,cs),
(846,-107,ls),
(847,-185,o),
(898,-208,o),
(990,-208,cs)
);
},
{
closed = 1;
nodes = (
(695,840,l),
(-36,840,l),
(-36,797,l),
(65,797,l),
(65,414,ls),
(65,275,o),
(152,226,o),
(276,226,cs),
(307,226,o),
(425,236,o),
(455,331,c),
(436,397,l),
(436,310,o),
(356,265,o),
(281,264,cs),
(211,262,o),
(107,278,o),
(107,425,cs),
(107,797,l),
(695,797,l),
(695,797,l)
);
}
);
width = 1135;
}
);
},
{
color = 3;
glyphname = "aaMatra-deva";
kernRight = Chandrabindu.dv;
layers = (
{
anchors = (
{
name = top;
pos = (234,841);
}
);
layerId = "B3961A9D-C6DC-4F74-9770-9C992C479D86";
shapes = (
{
closed = 1;
nodes = (
(101,710,l),
(101,0,l),
(264,0,l),
(264,710,l),
(401,710,l),
(401,841,l),
(-36,841,l),
(-36,710,l),
(-36,710,l)
);
}
);
width = 365;
},
{
anchors = (
{
name = top;
pos = (131,840);
}
);
layerId = "0DC1F6FB-20EC-4E8F-AE98-F98B5FD714DE";
shapes = (
{
closed = 1;
nodes = (
(101,797,l),
(101,0,l),
(144,0,l),
(144,797,l),
(281,797,l),
(281,840,l),
(-36,840,l),
(-36,797,l),
(-36,797,l)
);
}
);
width = 245;
}
);
unicode = 2366;
},
{
color = 3;
glyphname = "aaMatra_candraBindu-deva";
kernRight = Chandrabindu.dv;
layers = (
{
guides = (
{
angle = 90;
pos = (152,465);
},
{
pos = (134,750);
}
);
layerId = "B3961A9D-C6DC-4F74-9770-9C992C479D86";
shapes = (
{
closed = 1;
nodes = (
(264,0,l),
(264,710,l),
(401,710,l),
(401,841,l),
(-36,841,l),
(-36,710,l),
(101,710,l),
(101,0,l),
(101,0,l)
);
},
{
closed = 1;
nodes = (
(222,900,ls),
(370,900,o),
(430,1004,o),
(436,1123,c),
(305,1130,l),
(302,1073,o),
(271,1031,o),
(211,1031,cs),
(155,1031,ls),
(95,1031,o),
(64,1074,o),
(61,1130,c),
(-70,1123,l),
(-64,1010,o),
(-10,900,o),
(144,900,cs)
);
},
{
closed = 1;
nodes = (
(223,1098,o),
(256,1106,o),
(256,1169,cs),
(256,1231,o),
(223,1240,o),
(184,1240,cs),
(143,1240,o),
(112,1231,o),
(112,1169,cs),
(112,1106,o),
(143,1098,o),
(184,1098,cs)
);
}
);
userData = {
assembly = "NPUSHB[ ]	/* 57 values pushed */
0 6 0 8 5 6 8 107 0 5 0 4 5 4 99 0 3 3 30 75 2 1 0 0 1 94 0 1 1 28 75 10 9 2 7 7 27 7 76 20 20 20 37 20 37 34 20 38 36 35 17 17 17 16 11 7 29 
CALL[ ]	/* CallFunction */";
};
width = 365;
},
{
layerId = "0DC1F6FB-20EC-4E8F-AE98-F98B5FD714DE";
shapes = (
{
closed = 1;
nodes = (
(144,0,l),
(144,797,l),
(281,797,l),
(281,840,l),
(-36,840,l),
(-36,797,l),
(101,797,l),
(101,0,l),
(101,0,l)
);
},
{
closed = 1;
nodes = (
(128,899,ls),
(275,899,o),
(284,992,o),
(290,1057,c),
(251,1064,l),
(251,973,o),
(212,938,o),
(128,938,cs),
(116,938,ls),
(32,938,o),
(-4,973,o),
(-6,1064,c),
(-46,1057,l),
(-40,998,o),
(-34,899,o),
(116,899,cs)
);
},
{
closed = 1;
nodes = (
(142,1022,o),
(156,1027,o),
(156,1057,cs),
(156,1085,o),
(142,1090,o),
(124,1090,cs),
(103,1090,o),
(90,1085,o),
(90,1057,cs),
(90,1027,o),
(103,1022,o),
(124,1022,cs)
);
}
);
width = 245;
}
);
note = matraAChandrabindu.dv;
},
{
color = 3;
glyphname = "aaMatra_anusvara-deva";
kernRight = Chandrabindu.dv;
layers = (
{
guides = (
{
angle = 90;
pos = (218,592);
},
{
angle = 90;
pos = (84,592);
}
);
layerId = "B3961A9D-C6DC-4F74-9770-9C992C479D86";
shapes = (
{
closed = 1;
nodes = (
(262,0,l),
(262,710,l),
(398,710,l),
(398,841,l),
(-36,841,l),
(-36,710,l),
(101,710,l),
(101,0,l),
(101,0,l)
);
},
{
closed = 1;
nodes = (
(223,912,o),
(256,920,o),
(256,986,cs),
(256,1052,o),
(223,1061,o),
(181,1061,cs),
(139,1061,o),
(107,1052,o),
(107,986,cs),
(107,920,o),
(139,912,o),
(181,912,cs)
);
}
);
userData = {
assembly = "NPUSHB[ ]	/* 33 values pushed */
0 5 0 4 5 4 99 0 3 3 30 75 2 1 0 0 1 94 0 1 1 28 1 76 36 35 17 17 17 16 6 7 26 
CALL[ ]	/* CallFunction */";
};
width = 362;
},
{
guides = (
{
angle = 270;
pos = (249,705);
},
{
angle = 270;
pos = (285,705);
}
);
layerId = "0DC1F6FB-20EC-4E8F-AE98-F98B5FD714DE";
shapes = (
{
closed = 1;
nodes = (
(150,0,l),
(150,797,l),
(293,797,l),
(293,840,l),
(-36,840,l),
(-36,797,l),
(107,797,l),
(107,0,l),
(107,0,l)
);
},
{
closed = 1;
nodes = (
(144,910,o),
(156,913,o),
(156,937,cs),
(156,961,o),
(144,965,o),
(128,965,cs),
(113,965,o),
(101,961,o),
(101,937,cs),
(101,913,o),
(113,910,o),
(128,910,cs)
);
}
);
width = 257;
}
);
note = matraABindu.dv;
},
{
color = 3;
glyphname = "aaMatra_reph-deva";
kernRight = Chandrabindu.dv;
layers = (
{
layerId = "B3961A9D-C6DC-4F74-9770-9C992C479D86";
shapes = (
{
ref = "aaMatra-deva";
},
{
closed = 1;
nodes = (
(277,806,l),
(277,793,o),
(158,923,o),
(204,1020,c),
(218,1045,o),
(247,1051,o),
(275,1051,cs),
(308,1051,o),
(342,1045,o),
(373,1037,c),
(373,1170,l),
(343,1182,o),
(299,1192,o),
(251,1192,cs),
(128,1192,o),
(36,1160,o),
(29,1008,cs),
(26,960,o),
(42,899,o),
(101,846,c),
(101,850,o),
(101,846,o),
(101,806,c)
);
}
);
userData = {
assembly = "NPUSHB[ ]	/* 43 values pushed */
16 15 2 2 71 0 6 6 30 75 5 1 0 0 1 94 4 1 1 1 28 75 0 3 3 2 95 0 2 2 27 2 76 17 17 23 37 40 17 16 7 7 27 
CALL[ ]	/* CallFunction */";
};
width = 365;
},
{
layerId = "0DC1F6FB-20EC-4E8F-AE98-F98B5FD714DE";
shapes = (
{
ref = "aaMatra-deva";
},
{
closed = 1;
nodes = (
(150,817,l),
(102,889,o),
(62,935,o),
(78,1006,cs),
(88,1044,o),
(110,1066,o),
(150,1066,cs),
(181,1066,o),
(200,1062,o),
(232,1054,c),
(232,1087,l),
(208,1097,o),
(168,1102,o),
(142,1102,cs),
(66,1102,o),
(40,1044,o),
(37,979,c),
(41,914,o),
(71,864,o),
(96,842,c),
(96,842,o),
(96,842,o),
(96,817,c)
);
}
);
width = 245;
}
);
note = matraAReph.dv;
},
{
color = 3;
glyphname = "aaMatra_reph_eCandraMatra-deva";
layers = (
{
anchors = (
{
name = top;
pos = (131,840);
}
);
layerId = "0DC1F6FB-20EC-4E8F-AE98-F98B5FD714DE";
shapes = (
{
closed = 1;
nodes = (
(144,0,l),
(144,797,l),
(281,797,l),
(281,840,l),
(142,840,l),
(119,883,o),
(96,948,o),
(114,997,cs),
(131,1041,o),
(168,1046,o),
(199,1045,cs),
(222,1044,o),
(248,1038,o),
(269,1033,c),
(269,1070,l),
(242,1080,o),
(211,1087,o),
(180,1086,cs),
(148,1086,o),
(101,1072,o),
(78,1030,cs),
(50,979,o),
(73,885,o),
(101,842,c),
(101,840,l),
(-36,840,l),
(-36,797,l),
(101,797,l),
(101,0,l)
);
},
{
closed = 1;
nodes = (
(255,880,ls),
(323,880,o),
(336,921,o),
(340,968,c),
(311,972,l),
(304,904,o),
(275,909,o),
(250,909,cs),
(230,909,ls),
(206,909,o),
(180,904,o),
(168,972,c),
(141,968,l),
(143,924,o),
(160,880,o),
(225,880,cs)
);
}
);
width = 245;
},
{
anchors = (
{
name = top;
pos = (234,841);
}
);
layerId = "B3961A9D-C6DC-4F74-9770-9C992C479D86";
shapes = (
{
closed = 1;
nodes = (
(264,0,l),
(264,710,l),
(401,710,l),
(401,841,l),
(237,841,l),
(207,898,o),
(193,965,o),
(219,1010,cs),
(241,1050,o),
(286,1058,o),
(330,1056,cs),
(370,1053,o),
(408,1041,o),
(436,1034,c),
(436,1172,l),
(393,1189,o),
(330,1204,o),
(269,1203,cs),
(210,1202,o),
(153,1185,o),
(109,1140,cs),
(30,1056,o),
(58,906,o),
(97,844,c),
(97,841,l),
(-36,841,l),
(-36,710,l),
(101,710,l),
(101,0,l)
);
},
{
closed = 1;
nodes = (
(351,886,ls),
(415,886,o),
(442,931,o),
(444,983,c),
(387,986,l),
(387,961,o),
(372,943,o),
(346,943,cs),
(322,943,ls),
(296,943,o),
(283,961,o),
(282,986,c),
(225,983,l),
(228,934,o),
(251,886,o),
(318,886,cs)
);
}
);
width = 365;
}
);
},
{
color = 3;
glyphname = "aaMatra_reph_candraBindu-deva";
kernRight = Chandrabindu.dv;
layers = (
{
layerId = "B3961A9D-C6DC-4F74-9770-9C992C479D86";
shapes = (
{
ref = "aaMatra-deva";
},
{
closed = 1;
nodes = (
(283,806,l),
(265,820,o),
(164,923,o),
(210,1020,c),
(224,1045,o),
(253,1051,o),
(281,1051,cs),
(314,1051,o),
(348,1045,o),
(379,1037,c),
(379,1170,l),
(349,1182,o),
(305,1192,o),
(257,1192,cs),
(134,1192,o),
(42,1160,o),
(35,1008,cs),
(32,960,o),
(48,899,o),
(107,846,c),
(107,850,o),
(107,846,o),
(107,806,c)
);
},
{
closed = 1;
nodes = (
(355,865,ls),
(421,865,o),
(446,911,o),
(449,962,c),
(391,966,l),
(391,941,o),
(378,922,o),
(350,922,cs),
(328,922,ls),
(301,922,o),
(287,942,o),
(284,966,c),
(229,962,l),
(232,913,o),
(256,865,o),
(322,865,cs)
);
},
{
closed = 1;
nodes = (
(356,950,o),
(370,954,o),
(370,983,cs),
(370,1009,o),
(356,1013,o),
(338,1013,cs),
(322,1013,o),
(307,1009,o),
(307,983,cs),
(307,954,o),
(322,950,o),
(338,950,cs)
);
}
);
userData = {
assembly = "NPUSHB[ ]	/* 75 values pushed */
13 10 2 8 12 11 12 8 11 129 0 7 0 9 12 7 9 107 0 12 0 11 3 12 11 107 0 3 0 2 3 2 97 0 6 6 30 75 5 1 0 0 1 94 4 1 1 1 28 1 76 31 31 55 53 49 47 31 44 31 44 42 40 18 35 17 17 23 33 42 17 16 14 7 29 
CALL[ ]	/* CallFunction */";
};
width = 365;
},
{
layerId = "0DC1F6FB-20EC-4E8F-AE98-F98B5FD714DE";
shapes = (
{
ref = "aaMatra-deva";
},
{
closed = 1;
nodes = (
(152,817,l),
(104,889,o),
(65,935,o),
(80,1006,cs),
(90,1044,o),
(113,1066,o),
(152,1066,cs),
(184,1066,o),
(203,1062,o),
(234,1054,c),
(234,1087,l),
(210,1097,o),
(170,1102,o),
(144,1102,cs),
(68,1102,o),
(42,1044,o),
(40,979,c),
(43,914,o),
(73,864,o),
(98,842,c),
(98,842,o),
(98,842,o),
(98,817,c)
);
},
{
closed = 1;
nodes = (
(227,908,ls),
(295,908,o),
(308,949,o),
(312,996,c),
(283,1000,l),
(276,932,o),
(247,937,o),
(222,937,cs),
(202,937,ls),
(178,937,o),
(152,932,o),
(140,1000,c),
(113,996,l),
(115,952,o),
(132,908,o),
(197,908,cs)
);
},
{
closed = 1;
nodes = (
(226,980,o),
(236,984,o),
(236,1006,cs),
(236,1027,o),
(226,1030,o),
(211,1030,cs),
(198,1030,o),
(187,1027,o),
(187,1006,cs),
(187,984,o),
(198,980,o),
(211,980,cs)
);
}
);
width = 245;
}
);
note = matraARephChandrabindu.dv;
},
{
color = 3;
glyphname = "aaMatra_reph_anusvara-deva";
kernRight = Chandrabindu.dv;
layers = (
{
layerId = "B3961A9D-C6DC-4F74-9770-9C992C479D86";
shapes = (
{
ref = "aaMatra-deva";
},
{
closed = 1;
nodes = (
(280,806,l),
(280,793,o),
(161,923,o),
(206,1020,c),
(221,1045,o),
(250,1051,o),
(277,1051,cs),
(311,1051,o),
(344,1045,o),
(376,1037,c),
(376,1170,l),
(346,1182,o),
(301,1192,o),
(253,1192,cs),
(131,1192,o),
(38,1160,o),
(31,1008,cs),
(29,960,o),
(44,899,o),
(103,846,c),
(103,850,o),
(103,846,o),
(103,806,c)
);
},
{
closed = 1;
nodes = (
(347,887,o),
(372,893,o),
(372,944,cs),
(372,994,o),
(347,1001,o),
(314,1001,cs),
(283,1001,o),
(258,994,o),
(258,944,cs),
(258,893,o),
(283,887,o),
(314,887,cs)
);
}
);
userData = {
assembly = "NPUSHB[ ]	/* 53 values pushed */
16 15 2 2 71 0 8 0 7 3 8 7 107 0 6 6 30 75 5 1 0 0 1 94 4 1 1 1 28 75 0 3 3 2 95 0 2 2 27 2 76 36 35 17 17 23 37 40 17 16 9 7 29 
CALL[ ]	/* CallFunction */";
};
width = 365;
},
{
layerId = "0DC1F6FB-20EC-4E8F-AE98-F98B5FD714DE";
shapes = (
{
ref = "aaMatra-deva";
},
{
closed = 1;
nodes = (
(151,817,l),
(103,889,o),
(64,935,o),
(79,1006,cs),
(89,1044,o),
(112,1066,o),
(151,1066,cs),
(182,1066,o),
(202,1062,o),
(233,1054,c),
(233,1087,l),
(209,1097,o),
(169,1102,o),
(143,1102,cs),
(67,1102,o),
(41,1044,o),
(38,979,c),
(42,914,o),
(72,864,o),
(97,842,c),
(97,842,o),
(97,842,o),
(97,817,c)
);
},
{
closed = 1;
nodes = (
(196,932,o),
(208,936,o),
(208,960,cs),
(208,984,o),
(196,988,o),
(180,988,cs),
(164,988,o),
(152,984,o),
(152,960,cs),
(152,936,o),
(164,932,o),
(180,932,cs)
);
}
);
width = 245;
}
);
note = matraARephBindu.dv;
},
{
color = 3;
glyphname = "iMatra-deva";
layers = (
{
anchors = (
{
name = top;
pos = (658,971);
}
);
layerId = "0DC1F6FB-20EC-4E8F-AE98-F98B5FD714DE";
shapes = (
{
ref = "aaMatra-deva";
},
{
closed = 1;
nodes = (
(558,1036,o),
(344,1079,o),
(275,1079,cs),
(156,1079,o),
(98,1021,o),
(98,894,cs),
(98,815,l),
(142,815,l),
(142,877,ls),
(142,935,o),
(133,1038,o),
(275,1038,cs),
(350,1038,o),
(558,1000,o),
(658,971,c),
(653,1014,l),
(653,1014,l)
);
}
);
width = 245;
},
{
anchors = (
{
name = top;
pos = (821,935);
}
);
layerId = "B3961A9D-C6DC-4F74-9770-9C992C479D86";
shapes = (
{
ref = "aaMatra-deva";
},
{
closed = 1;
nodes = (
(678,1100,o),
(428,1148,o),
(329,1146,cs),
(172,1142,o),
(102,1062,o),
(102,923,cs),
(102,803,l),
(265,803,l),
(265,925,ls),
(265,983,o),
(286,1012,o),
(342,1014,cs),
(421,1018,o),
(673,967,o),
(821,935,c),
(808,1074,l),
(808,1074,l)
);
}
);
width = 365;
}
);
unicode = 2367;
},
{
color = 3;
glyphname = "iMatra_reph-deva";
layers = (
{
layerId = "0DC1F6FB-20EC-4E8F-AE98-F98B5FD714DE";
shapes = (
{
ref = "iMatra-deva";
},
{
closed = 1;
nodes = (
(821,1142,l),
(799,1148,o),
(773,1153,o),
(750,1154,cs),
(666,1159,o),
(613,1136,o),
(624,1022,c),
(619,1019,l),
(658,971,o),
(619,1019,o),
(658,971,c),
(647,1068,o),
(648,1118,o),
(746,1115,cs),
(768,1114,o),
(796,1109,o),
(821,1104,c)
);
}
);
width = 222;
},
{
layerId = "B3961A9D-C6DC-4F74-9770-9C992C479D86";
shapes = (
{
ref = "iMatra-deva";
},
{
closed = 1;
nodes = (
(992,1261,l),
(964,1272,o),
(923,1279,o),
(883,1276,cs),
(815,1268,o),
(751,1224,o),
(766,1085,c),
(750,1079,l),
(774,1030,o),
(797,984,o),
(821,935,c),
(806,1094,o),
(821,1148,o),
(907,1154,cs),
(930,1156,o),
(962,1153,o),
(992,1145,c)
);
}
);
width = 361;
}
);
},
{
color = 3;
glyphname = "iMatra_reph_candraBindu-deva";
layers = (
{
layerId = "0DC1F6FB-20EC-4E8F-AE98-F98B5FD714DE";
shapes = (
{
ref = "iMatra-deva";
},
{
closed = 1;
nodes = (
(821,1142,l),
(799,1148,o),
(773,1153,o),
(750,1154,cs),
(666,1159,o),
(613,1136,o),
(624,1022,c),
(619,1019,l),
(658,971,o),
(619,1019,o),
(658,971,c),
(647,1068,o),
(648,1118,o),
(746,1115,cs),
(768,1114,o),
(796,1109,o),
(821,1104,c)
);
},
{
closed = 1;
nodes = (
(799,976,ls),
(857,976,o),
(868,1010,o),
(871,1049,c),
(847,1052,l),
(841,996,o),
(816,1001,o),
(796,1001,cs),
(778,1001,ls),
(757,1001,o),
(737,996,o),
(726,1052,c),
(703,1049,l),
(706,1012,o),
(720,976,o),
(774,976,cs)
);
},
{
closed = 1;
nodes = (
(798,1037,o),
(808,1039,o),
(808,1057,cs),
(808,1076,o),
(798,1078,o),
(786,1078,cs),
(775,1078,o),
(766,1076,o),
(766,1057,cs),
(766,1039,o),
(775,1037,o),
(786,1037,cs)
);
}
);
width = 222;
},
{
layerId = "B3961A9D-C6DC-4F74-9770-9C992C479D86";
shapes = (
{
ref = "iMatra-deva";
},
{
closed = 1;
nodes = (
(992,1261,l),
(964,1272,o),
(923,1279,o),
(883,1276,cs),
(815,1268,o),
(751,1224,o),
(766,1085,c),
(750,1079,l),
(774,1030,o),
(797,984,o),
(821,935,c),
(806,1094,o),
(821,1148,o),
(907,1154,cs),
(930,1156,o),
(962,1153,o),
(992,1145,c)
);
},
{
closed = 1;
nodes = (
(980,965,ls),
(1046,965,o),
(1072,1010,o),
(1074,1062,c),
(1016,1066,l),
(1016,1040,o),
(1003,1021,o),
(976,1021,cs),
(953,1021,ls),
(926,1021,o),
(912,1042,o),
(910,1066,c),
(854,1062,l),
(857,1013,o),
(881,965,o),
(947,965,cs)
);
},
{
closed = 1;
nodes = (
(982,1050,o),
(995,1054,o),
(995,1082,cs),
(995,1109,o),
(982,1112,o),
(964,1112,cs),
(947,1112,o),
(932,1109,o),
(932,1082,cs),
(932,1054,o),
(947,1050,o),
(964,1050,cs)
);
}
);
width = 361;
}
);
},
{
color = 3;
glyphname = "iMatra_reph_anusvara-deva";
layers = (
{
layerId = "0DC1F6FB-20EC-4E8F-AE98-F98B5FD714DE";
shapes = (
{
ref = "iMatra-deva";
},
{
closed = 1;
nodes = (
(821,1142,l),
(799,1148,o),
(773,1153,o),
(750,1154,cs),
(666,1159,o),
(613,1136,o),
(624,1022,c),
(619,1019,l),
(658,971,o),
(619,1019,o),
(658,971,c),
(647,1068,o),
(648,1118,o),
(746,1115,cs),
(768,1114,o),
(796,1109,o),
(821,1104,c)
);
},
{
pos = (881,152);
ref = "anusvara-deva";
scale = (0.9309,0.9309);
}
);
width = 245;
},
{
layerId = "B3961A9D-C6DC-4F74-9770-9C992C479D86";
shapes = (
{
ref = "iMatra-deva";
},
{
closed = 1;
nodes = (
(992,1261,l),
(964,1272,o),
(923,1279,o),
(883,1276,cs),
(815,1268,o),
(751,1224,o),
(766,1085,c),
(750,1079,l),
(774,1030,o),
(797,984,o),
(821,935,c),
(806,1094,o),
(821,1148,o),
(907,1154,cs),
(930,1156,o),
(962,1153,o),
(992,1145,c)
);
},
{
pos = (1068,252);
ref = "anusvara-deva";
scale = (0.8053,0.8053);
}
);
width = 361;
}
);
},
{
color = 3;
glyphname = "iiMatra-deva";
kernRight = Chandrabindu.dv;
layers = (
{
guides = (
{
pos = (-366,722);
},
{
pos = (-366,963);
},
{
pos = (-366,802);
}
);
layerId = "B3961A9D-C6DC-4F74-9770-9C992C479D86";
shapes = (
{
closed = 1;
nodes = (
(254,0,l),
(254,710,l),
(391,710,l),
(391,841,l),
(254,841,l),
(254,902,ls),
(254,998,o),
(221,1156,o),
(-14,1156,cs),
(-198,1156,o),
(-263,1067,o),
(-264,889,c),
(-110,889,l),
(-110,984,o),
(-76,1009,o),
(-12,1009,cs),
(58,1009,o),
(91,984,o),
(91,888,cs),
(91,841,l),
(-47,841,l),
(-47,710,l),
(91,710,l),
(91,0,l),
(91,0,l)
);
}
);
userData = {
assembly = "NPUSHB[ ]	/* 43 values pushed */
14 13 2 3 71 0 6 6 30 75 5 1 0 0 1 94 4 1 1 1 28 75 0 2 2 3 95 0 3 3 27 3 76 17 17 20 45 36 17 16 7 7 27 
CALL[ ]	/* CallFunction */";
};
width = 355;
},
{
guides = (
{
pos = (-660,918);
},
{
pos = (-660,741);
},
{
pos = (-660,759);
},
{
angle = 90;
pos = (-121,716);
}
);
layerId = "0DC1F6FB-20EC-4E8F-AE98-F98B5FD714DE";
shapes = (
{
closed = 1;
nodes = (
(124,0,l),
(124,797,l),
(256,797,l),
(256,840,l),
(124,840,l),
(124,925,ls),
(124,1058,o),
(72,1102,o),
(-8,1102,cs),
(-120,1102,o),
(-144,1051,o),
(-139,911,c),
(-98,911,l),
(-104,1040,o),
(-78,1061,o),
(-8,1061,cs),
(74,1061,o),
(80,997,o),
(80,898,cs),
(80,840,l),
(-38,840,l),
(-38,797,l),
(80,797,l),
(80,0,l),
(80,0,l)
);
}
);
width = 220;
}
);
note = matraIi.dv;
unicode = 2368;
},
{
color = 3;
glyphname = "iiMatra_candraBindu-deva";
kernRight = Chandrabindu.dv;
layers = (
{
layerId = "B3961A9D-C6DC-4F74-9770-9C992C479D86";
shapes = (
{
closed = 1;
nodes = (
(413,912,ls),
(484,912,o),
(511,961,o),
(514,1016,c),
(451,1021,l),
(451,994,o),
(437,973,o),
(407,973,cs),
(382,973,ls),
(353,973,o),
(338,995,o),
(336,1021,c),
(276,1016,l),
(278,964,o),
(305,912,o),
(377,912,cs)
);
},
{
closed = 1;
nodes = (
(413,1004,o),
(428,1008,o),
(428,1039,cs),
(428,1068,o),
(413,1072,o),
(395,1072,cs),
(377,1072,o),
(360,1068,o),
(360,1039,cs),
(360,1008,o),
(377,1004,o),
(395,1004,cs)
);
},
{
closed = 1;
nodes = (
(247,0,l),
(247,710,l),
(382,710,l),
(382,841,l),
(247,841,l),
(247,902,ls),
(247,998,o),
(214,1156,o),
(-22,1156,cs),
(-205,1156,o),
(-270,1067,o),
(-271,889,c),
(-118,889,l),
(-118,984,o),
(-83,1009,o),
(-19,1009,cs),
(50,1009,o),
(84,984,o),
(84,888,cs),
(84,841,l),
(-37,841,l),
(-37,710,l),
(84,710,l),
(84,0,l),
(84,0,l)
);
}
);
userData = {
assembly = "PUSHB[ ]	/* 5 values pushed */
41 40 2 0 71 
MPPEM[ ]	/* MeasurePixelPerEm */
PUSHB[ ]	/* 1 value pushed */
18 
LT[ ]	/* LessThan */
IF[ ]	/* If */
NPUSHB[ ]	/* 49 values pushed */
0 2 0 4 8 2 4 107 0 12 12 30 75 11 1 6 6 7 94 10 1 7 7 28 75 0 8 8 3 93 9 13 5 3 3 3 27 75 0 1 1 0 95 0 0 0 27 0 76 
ELSE[ ]	/* Else */
MPPEM[ ]	/* MeasurePixelPerEm */
PUSHB[ ]	/* 1 value pushed */
23 
LT[ ]	/* LessThan */
IF[ ]	/* If */
NPUSHB[ ]	/* 53 values pushed */
0 2 0 4 8 2 4 107 0 12 12 30 75 11 1 6 6 7 94 10 1 7 7 28 75 13 5 2 3 3 27 75 0 8 8 9 95 0 9 9 27 75 0 1 1 0 95 0 0 0 27 0 76 
ELSE[ ]	/* Else */
NPUSHB[ ]	/* 53 values pushed */
13 5 2 3 1 9 1 3 9 129 0 2 0 4 8 2 4 107 0 1 0 0 1 0 99 0 12 12 30 75 11 1 6 6 7 94 10 1 7 7 28 75 0 8 8 9 95 0 9 9 27 9 76 
EIF[ ]	/* EndIf */
EIF[ ]	/* EndIf */
NPUSHB[ ]	/* 28 values pushed */
12 12 60 59 58 57 56 55 51 49 35 33 29 28 27 26 12 25 12 25 34 18 36 36 34 14 7 25 
CALL[ ]	/* CallFunction */";
};
width = 344;
},
{
layerId = "0DC1F6FB-20EC-4E8F-AE98-F98B5FD714DE";
shapes = (
{
closed = 1;
nodes = (
(270,901,ls),
(338,901,o),
(352,942,o),
(355,989,c),
(326,992,l),
(319,925,o),
(290,930,o),
(265,930,cs),
(245,930,ls),
(221,930,o),
(196,925,o),
(184,992,c),
(156,989,l),
(158,944,o),
(175,901,o),
(240,901,cs)
);
},
{
closed = 1;
nodes = (
(269,973,o),
(280,977,o),
(280,998,cs),
(280,1020,o),
(269,1022,o),
(254,1022,cs),
(241,1022,o),
(230,1020,o),
(230,998,cs),
(230,977,o),
(241,973,o),
(254,973,cs)
);
},
{
closed = 1;
nodes = (
(127,0,l),
(127,797,l),
(259,797,l),
(259,840,l),
(127,840,l),
(127,884,ls),
(127,1021,o),
(84,1102,o),
(-34,1102,cs),
(-138,1102,o),
(-192,1051,o),
(-186,911,c),
(-144,911,l),
(-150,1040,o),
(-95,1061,o),
(-34,1061,cs),
(73,1061,o),
(84,965,o),
(84,874,cs),
(84,840,l),
(-35,840,l),
(-35,797,l),
(84,797,l),
(84,0,l),
(84,0,l)
);
}
);
width = 230;
}
);
note = matraIiChandrabindu.dv;
},
{
color = 3;
glyphname = "iiMatra_anusvara-deva";
kernRight = Chandrabindu.dv;
layers = (
{
layerId = "B3961A9D-C6DC-4F74-9770-9C992C479D86";
shapes = (
{
closed = 1;
nodes = (
(265,0,l),
(265,710,l),
(400,710,l),
(400,841,l),
(265,841,l),
(265,902,ls),
(265,998,o),
(232,1156,o),
(-4,1156,cs),
(-187,1156,o),
(-252,1067,o),
(-253,889,c),
(-100,889,l),
(-100,984,o),
(-65,1009,o),
(-1,1009,cs),
(68,1009,o),
(102,984,o),
(102,888,cs),
(102,841,l),
(-36,841,l),
(-36,710,l),
(102,710,l),
(102,0,l),
(102,0,l)
);
},
{
closed = 1;
nodes = (
(430,912,o),
(462,920,o),
(462,986,cs),
(462,1052,o),
(430,1061,o),
(388,1061,cs),
(346,1061,o),
(313,1052,o),
(313,986,cs),
(313,920,o),
(346,912,o),
(388,912,cs)
);
}
);
userData = {
assembly = "NPUSHB[ ]	/* 53 values pushed */
27 26 2 5 71 0 1 0 0 5 1 0 107 0 8 8 30 75 7 1 2 2 3 94 6 1 3 3 28 75 0 4 4 5 95 0 5 5 27 5 76 17 17 20 46 36 17 18 36 34 9 7 29 
CALL[ ]	/* CallFunction */";
};
width = 362;
},
{
layerId = "0DC1F6FB-20EC-4E8F-AE98-F98B5FD714DE";
shapes = (
{
closed = 1;
nodes = (
(127,0,l),
(127,797,l),
(259,797,l),
(259,840,l),
(127,840,l),
(127,884,ls),
(127,1021,o),
(84,1102,o),
(-34,1102,cs),
(-138,1102,o),
(-192,1051,o),
(-186,911,c),
(-144,911,l),
(-150,1040,o),
(-95,1061,o),
(-34,1061,cs),
(73,1061,o),
(84,965,o),
(84,874,cs),
(84,840,l),
(-35,840,l),
(-35,797,l),
(84,797,l),
(84,0,l),
(84,0,l)
);
},
{
closed = 1;
nodes = (
(224,910,o),
(236,913,o),
(236,937,cs),
(236,961,o),
(224,965,o),
(209,965,cs),
(193,965,o),
(181,961,o),
(181,937,cs),
(181,913,o),
(193,910,o),
(209,910,cs)
);
}
);
width = 223;
}
);
note = matraIiBindu.dv;
},
